<mxfile host="app.diagrams.net" modified="2023-03-17T06:42:08.481Z" agent="5.0 (Windows NT 10.0; Win64; x64) AppleWebKit/537.36 (KHTML, like Gecko) Chrome/111.0.0.0 Safari/537.36 Edg/111.0.1661.41" etag="7Zo4-kjmfWlA4DiyPigV" version="21.0.6" type="github">
  <diagram name="第 1 页" id="eftHnV5JVbOcPss7Ex_q">
    <mxGraphModel dx="2530" dy="-223" grid="1" gridSize="10" guides="1" tooltips="1" connect="1" arrows="1" fold="1" page="1" pageScale="1" pageWidth="827" pageHeight="1169" math="0" shadow="0">
      <root>
        <mxCell id="0" />
        <mxCell id="1" parent="0" />
        <mxCell id="9vOVsGMVSCyXEhv2zeX4-4" value="" style="edgeStyle=none;shape=connector;rounded=0;sketch=1;orthogonalLoop=1;jettySize=auto;html=1;labelBackgroundColor=default;strokeColor=default;fontFamily=Helvetica;fontSize=12;fontColor=default;endArrow=classic;" parent="1" source="9vOVsGMVSCyXEhv2zeX4-2" target="9vOVsGMVSCyXEhv2zeX4-3" edge="1">
          <mxGeometry relative="1" as="geometry" />
        </mxCell>
        <mxCell id="9vOVsGMVSCyXEhv2zeX4-2" value="Redis 单线程模式" style="rounded=0;whiteSpace=wrap;html=1;comic=1;fillColor=#ffe6cc;strokeColor=#d79b00;" parent="1" vertex="1">
          <mxGeometry x="-790" y="1795" width="120" height="30" as="geometry" />
        </mxCell>
        <mxCell id="9vOVsGMVSCyXEhv2zeX4-6" value="" style="edgeStyle=none;shape=connector;rounded=0;sketch=1;orthogonalLoop=1;jettySize=auto;html=1;labelBackgroundColor=default;strokeColor=default;fontFamily=Helvetica;fontSize=12;fontColor=default;endArrow=classic;" parent="1" source="9vOVsGMVSCyXEhv2zeX4-3" target="9vOVsGMVSCyXEhv2zeX4-5" edge="1">
          <mxGeometry relative="1" as="geometry" />
        </mxCell>
        <mxCell id="9vOVsGMVSCyXEhv2zeX4-10" value="" style="edgeStyle=none;shape=connector;rounded=0;sketch=1;orthogonalLoop=1;jettySize=auto;html=1;labelBackgroundColor=default;strokeColor=default;fontFamily=Helvetica;fontSize=12;fontColor=default;endArrow=classic;" parent="1" source="9vOVsGMVSCyXEhv2zeX4-3" target="9vOVsGMVSCyXEhv2zeX4-9" edge="1">
          <mxGeometry relative="1" as="geometry" />
        </mxCell>
        <mxCell id="9vOVsGMVSCyXEhv2zeX4-12" value="" style="edgeStyle=none;shape=connector;rounded=0;sketch=1;orthogonalLoop=1;jettySize=auto;html=1;labelBackgroundColor=default;strokeColor=default;fontFamily=Helvetica;fontSize=12;fontColor=default;endArrow=classic;" parent="1" source="9vOVsGMVSCyXEhv2zeX4-3" target="9vOVsGMVSCyXEhv2zeX4-11" edge="1">
          <mxGeometry relative="1" as="geometry" />
        </mxCell>
        <mxCell id="9vOVsGMVSCyXEhv2zeX4-15" style="edgeStyle=none;shape=connector;rounded=0;sketch=1;orthogonalLoop=1;jettySize=auto;html=1;entryX=0.5;entryY=0;entryDx=0;entryDy=0;labelBackgroundColor=default;strokeColor=default;fontFamily=Helvetica;fontSize=12;fontColor=default;endArrow=classic;" parent="1" source="9vOVsGMVSCyXEhv2zeX4-3" target="9vOVsGMVSCyXEhv2zeX4-14" edge="1">
          <mxGeometry relative="1" as="geometry" />
        </mxCell>
        <mxCell id="9vOVsGMVSCyXEhv2zeX4-3" value="redis采用单线程为什么还这么快" style="whiteSpace=wrap;html=1;fillColor=#ffe6cc;strokeColor=#d79b00;rounded=0;comic=1;" parent="1" vertex="1">
          <mxGeometry x="-621.5" y="1780" width="120" height="60" as="geometry" />
        </mxCell>
        <mxCell id="9vOVsGMVSCyXEhv2zeX4-5" value="大部分操作都在内存中完成" style="whiteSpace=wrap;html=1;fillColor=#ffe6cc;strokeColor=#d79b00;rounded=0;comic=1;" parent="1" vertex="1">
          <mxGeometry x="-510" y="1670" width="120" height="60" as="geometry" />
        </mxCell>
        <mxCell id="9vOVsGMVSCyXEhv2zeX4-9" value="避免多线程之间的竞争" style="whiteSpace=wrap;html=1;fillColor=#ffe6cc;strokeColor=#d79b00;rounded=0;comic=1;" parent="1" vertex="1">
          <mxGeometry x="-440" y="1765" width="120" height="60" as="geometry" />
        </mxCell>
        <mxCell id="9vOVsGMVSCyXEhv2zeX4-11" value="I/O多路复用机制" style="whiteSpace=wrap;html=1;fillColor=#ffe6cc;strokeColor=#d79b00;rounded=0;comic=1;" parent="1" vertex="1">
          <mxGeometry x="-440" y="1870" width="120" height="60" as="geometry" />
        </mxCell>
        <mxCell id="9vOVsGMVSCyXEhv2zeX4-20" value="" style="edgeStyle=none;shape=connector;rounded=0;sketch=1;orthogonalLoop=1;jettySize=auto;html=1;labelBackgroundColor=default;strokeColor=default;fontFamily=Helvetica;fontSize=12;fontColor=default;endArrow=classic;" parent="1" source="9vOVsGMVSCyXEhv2zeX4-14" target="9vOVsGMVSCyXEhv2zeX4-19" edge="1">
          <mxGeometry relative="1" as="geometry" />
        </mxCell>
        <mxCell id="9vOVsGMVSCyXEhv2zeX4-14" value="6.0之后为啥引入了多线程" style="rounded=0;whiteSpace=wrap;html=1;comic=1;fillColor=#dae8fc;strokeColor=#6c8ebf;" parent="1" vertex="1">
          <mxGeometry x="-634.75" y="1880" width="146.5" height="30" as="geometry" />
        </mxCell>
        <mxCell id="9vOVsGMVSCyXEhv2zeX4-19" value="只是对于网络的I/O使用了多线程" style="rounded=0;whiteSpace=wrap;html=1;comic=1;fillColor=#dae8fc;strokeColor=#6c8ebf;" parent="1" vertex="1">
          <mxGeometry x="-638.13" y="1950" width="153.25" height="50" as="geometry" />
        </mxCell>
        <mxCell id="9vOVsGMVSCyXEhv2zeX4-25" style="edgeStyle=none;shape=connector;rounded=0;sketch=1;orthogonalLoop=1;jettySize=auto;html=1;exitX=1;exitY=0.5;exitDx=0;exitDy=0;entryX=0;entryY=0.5;entryDx=0;entryDy=0;labelBackgroundColor=default;strokeColor=default;fontFamily=Helvetica;fontSize=12;fontColor=default;endArrow=classic;" parent="1" source="9vOVsGMVSCyXEhv2zeX4-21" target="9vOVsGMVSCyXEhv2zeX4-22" edge="1">
          <mxGeometry relative="1" as="geometry" />
        </mxCell>
        <mxCell id="9vOVsGMVSCyXEhv2zeX4-26" style="edgeStyle=none;shape=connector;rounded=0;sketch=1;orthogonalLoop=1;jettySize=auto;html=1;exitX=0.5;exitY=1;exitDx=0;exitDy=0;entryX=0.5;entryY=0;entryDx=0;entryDy=0;labelBackgroundColor=default;strokeColor=default;fontFamily=Helvetica;fontSize=12;fontColor=default;endArrow=classic;" parent="1" source="9vOVsGMVSCyXEhv2zeX4-21" target="9vOVsGMVSCyXEhv2zeX4-23" edge="1">
          <mxGeometry relative="1" as="geometry" />
        </mxCell>
        <mxCell id="9vOVsGMVSCyXEhv2zeX4-27" style="edgeStyle=none;shape=connector;rounded=0;sketch=1;orthogonalLoop=1;jettySize=auto;html=1;exitX=0;exitY=0.5;exitDx=0;exitDy=0;entryX=1;entryY=0.5;entryDx=0;entryDy=0;labelBackgroundColor=default;strokeColor=default;fontFamily=Helvetica;fontSize=12;fontColor=default;endArrow=classic;" parent="1" source="9vOVsGMVSCyXEhv2zeX4-21" target="9vOVsGMVSCyXEhv2zeX4-24" edge="1">
          <mxGeometry relative="1" as="geometry" />
        </mxCell>
        <mxCell id="9vOVsGMVSCyXEhv2zeX4-21" value="Redis 持久化" style="rounded=0;whiteSpace=wrap;html=1;comic=1;fillColor=#ffe6cc;strokeColor=#d79b00;" parent="1" vertex="1">
          <mxGeometry x="-310" y="2170" width="120" height="30" as="geometry" />
        </mxCell>
        <mxCell id="Z4Xb9YO6mUinGf_k16KE-17" value="" style="edgeStyle=none;shape=connector;rounded=0;sketch=1;orthogonalLoop=1;jettySize=auto;html=1;labelBackgroundColor=default;strokeColor=default;fontFamily=Helvetica;fontSize=12;fontColor=default;endArrow=classic;" edge="1" parent="1" source="9vOVsGMVSCyXEhv2zeX4-22" target="Z4Xb9YO6mUinGf_k16KE-16">
          <mxGeometry relative="1" as="geometry" />
        </mxCell>
        <mxCell id="Z4Xb9YO6mUinGf_k16KE-114" style="edgeStyle=none;shape=connector;rounded=0;sketch=1;orthogonalLoop=1;jettySize=auto;html=1;exitX=1;exitY=0.5;exitDx=0;exitDy=0;entryX=0;entryY=0.5;entryDx=0;entryDy=0;labelBackgroundColor=default;strokeColor=default;fontFamily=Helvetica;fontSize=12;fontColor=default;endArrow=classic;" edge="1" parent="1" source="9vOVsGMVSCyXEhv2zeX4-22" target="Z4Xb9YO6mUinGf_k16KE-1">
          <mxGeometry relative="1" as="geometry" />
        </mxCell>
        <mxCell id="9vOVsGMVSCyXEhv2zeX4-22" value="AOF日志" style="rounded=0;whiteSpace=wrap;html=1;comic=1;fillColor=#dae8fc;strokeColor=#6c8ebf;" parent="1" vertex="1">
          <mxGeometry x="-70" y="2170" width="146.5" height="30" as="geometry" />
        </mxCell>
        <mxCell id="Z4Xb9YO6mUinGf_k16KE-28" value="" style="edgeStyle=none;shape=connector;rounded=0;sketch=1;orthogonalLoop=1;jettySize=auto;html=1;labelBackgroundColor=default;strokeColor=default;fontFamily=Helvetica;fontSize=12;fontColor=default;endArrow=classic;" edge="1" parent="1" source="9vOVsGMVSCyXEhv2zeX4-23" target="Z4Xb9YO6mUinGf_k16KE-27">
          <mxGeometry relative="1" as="geometry" />
        </mxCell>
        <mxCell id="Z4Xb9YO6mUinGf_k16KE-29" value="" style="edgeStyle=none;shape=connector;rounded=0;sketch=1;orthogonalLoop=1;jettySize=auto;html=1;labelBackgroundColor=default;strokeColor=default;fontFamily=Helvetica;fontSize=12;fontColor=default;endArrow=classic;" edge="1" parent="1" source="9vOVsGMVSCyXEhv2zeX4-23" target="Z4Xb9YO6mUinGf_k16KE-27">
          <mxGeometry relative="1" as="geometry" />
        </mxCell>
        <mxCell id="Z4Xb9YO6mUinGf_k16KE-31" value="" style="edgeStyle=none;shape=connector;rounded=0;sketch=1;orthogonalLoop=1;jettySize=auto;html=1;labelBackgroundColor=default;strokeColor=default;fontFamily=Helvetica;fontSize=12;fontColor=default;endArrow=classic;" edge="1" parent="1" source="9vOVsGMVSCyXEhv2zeX4-23" target="Z4Xb9YO6mUinGf_k16KE-30">
          <mxGeometry relative="1" as="geometry" />
        </mxCell>
        <mxCell id="9vOVsGMVSCyXEhv2zeX4-23" value="RDB快照" style="rounded=0;whiteSpace=wrap;html=1;comic=1;fillColor=#dae8fc;strokeColor=#6c8ebf;" parent="1" vertex="1">
          <mxGeometry x="-323.25" y="2300" width="146.5" height="30" as="geometry" />
        </mxCell>
        <mxCell id="Z4Xb9YO6mUinGf_k16KE-38" style="edgeStyle=none;shape=connector;rounded=0;sketch=1;orthogonalLoop=1;jettySize=auto;html=1;exitX=0.5;exitY=1;exitDx=0;exitDy=0;entryX=0.5;entryY=0;entryDx=0;entryDy=0;labelBackgroundColor=default;strokeColor=default;fontFamily=Helvetica;fontSize=12;fontColor=default;endArrow=classic;" edge="1" parent="1" source="9vOVsGMVSCyXEhv2zeX4-24" target="Z4Xb9YO6mUinGf_k16KE-37">
          <mxGeometry relative="1" as="geometry" />
        </mxCell>
        <mxCell id="9vOVsGMVSCyXEhv2zeX4-24" value="混合持久化方式" style="rounded=0;whiteSpace=wrap;html=1;comic=1;fillColor=#dae8fc;strokeColor=#6c8ebf;" parent="1" vertex="1">
          <mxGeometry x="-603" y="2170" width="146.5" height="30" as="geometry" />
        </mxCell>
        <mxCell id="Z4Xb9YO6mUinGf_k16KE-1" value="Container" style="swimlane;" vertex="1" parent="1">
          <mxGeometry x="270" y="2074" width="370" height="222" as="geometry" />
        </mxCell>
        <mxCell id="Z4Xb9YO6mUinGf_k16KE-8" style="edgeStyle=none;shape=connector;rounded=0;sketch=1;orthogonalLoop=1;jettySize=auto;html=1;exitX=1;exitY=0.5;exitDx=0;exitDy=0;labelBackgroundColor=default;strokeColor=default;fontFamily=Helvetica;fontSize=12;fontColor=default;endArrow=classic;" edge="1" parent="Z4Xb9YO6mUinGf_k16KE-1" source="Z4Xb9YO6mUinGf_k16KE-3" target="Z4Xb9YO6mUinGf_k16KE-4">
          <mxGeometry relative="1" as="geometry" />
        </mxCell>
        <mxCell id="Z4Xb9YO6mUinGf_k16KE-10" value="发送命令&lt;br&gt;set name xiaolin" style="edgeLabel;html=1;align=center;verticalAlign=middle;resizable=0;points=[];fontSize=12;fontFamily=Helvetica;fontColor=default;" vertex="1" connectable="0" parent="Z4Xb9YO6mUinGf_k16KE-8">
          <mxGeometry x="-0.2012" relative="1" as="geometry">
            <mxPoint as="offset" />
          </mxGeometry>
        </mxCell>
        <mxCell id="Z4Xb9YO6mUinGf_k16KE-3" value="客户端" style="ellipse;whiteSpace=wrap;html=1;fillColor=#d5e8d4;strokeColor=#82b366;" vertex="1" parent="Z4Xb9YO6mUinGf_k16KE-1">
          <mxGeometry x="20" y="152" width="68" height="50" as="geometry" />
        </mxCell>
        <mxCell id="Z4Xb9YO6mUinGf_k16KE-9" style="edgeStyle=none;shape=connector;rounded=0;sketch=1;orthogonalLoop=1;jettySize=auto;html=1;exitX=1;exitY=0.5;exitDx=0;exitDy=0;labelBackgroundColor=default;strokeColor=default;fontFamily=Helvetica;fontSize=12;fontColor=default;endArrow=classic;" edge="1" parent="Z4Xb9YO6mUinGf_k16KE-1" source="Z4Xb9YO6mUinGf_k16KE-4" target="Z4Xb9YO6mUinGf_k16KE-12">
          <mxGeometry relative="1" as="geometry">
            <mxPoint x="490" y="115.40000000000009" as="targetPoint" />
          </mxGeometry>
        </mxCell>
        <mxCell id="Z4Xb9YO6mUinGf_k16KE-11" value="记录日志" style="edgeLabel;html=1;align=center;verticalAlign=middle;resizable=0;points=[];fontSize=12;fontFamily=Helvetica;fontColor=default;" vertex="1" connectable="0" parent="Z4Xb9YO6mUinGf_k16KE-9">
          <mxGeometry x="-0.2811" y="-2" relative="1" as="geometry">
            <mxPoint as="offset" />
          </mxGeometry>
        </mxCell>
        <mxCell id="Z4Xb9YO6mUinGf_k16KE-4" value="redis" style="rounded=0;whiteSpace=wrap;html=1;comic=1;fillColor=#ffe6cc;strokeColor=#d79b00;" vertex="1" parent="Z4Xb9YO6mUinGf_k16KE-1">
          <mxGeometry x="60" y="42.00000000000001" width="120" height="30" as="geometry" />
        </mxCell>
        <mxCell id="Z4Xb9YO6mUinGf_k16KE-12" value="*&lt;br&gt;$3&lt;br&gt;set&lt;br&gt;$4&lt;br&gt;name&lt;br&gt;$7&lt;br&gt;xiaolin" style="rounded=0;whiteSpace=wrap;html=1;comic=1;fillColor=#b0e3e6;strokeColor=#0e8088;fontFamily=Helvetica;fontSize=12;fontColor=default;" vertex="1" parent="Z4Xb9YO6mUinGf_k16KE-1">
          <mxGeometry x="260" y="62" width="70" height="140" as="geometry" />
        </mxCell>
        <mxCell id="Z4Xb9YO6mUinGf_k16KE-19" value="" style="edgeStyle=none;shape=connector;rounded=0;sketch=1;orthogonalLoop=1;jettySize=auto;html=1;labelBackgroundColor=default;strokeColor=default;fontFamily=Helvetica;fontSize=12;fontColor=default;endArrow=classic;" edge="1" parent="1" source="Z4Xb9YO6mUinGf_k16KE-16" target="Z4Xb9YO6mUinGf_k16KE-18">
          <mxGeometry relative="1" as="geometry" />
        </mxCell>
        <mxCell id="Z4Xb9YO6mUinGf_k16KE-16" value="为什么先执行命令再把数据写入日志" style="rounded=0;whiteSpace=wrap;html=1;comic=1;fillColor=#dae8fc;strokeColor=#6c8ebf;" vertex="1" parent="1">
          <mxGeometry x="-70" y="2250" width="146.5" height="30" as="geometry" />
        </mxCell>
        <mxCell id="Z4Xb9YO6mUinGf_k16KE-21" value="" style="edgeStyle=none;shape=connector;rounded=0;sketch=1;orthogonalLoop=1;jettySize=auto;html=1;labelBackgroundColor=default;strokeColor=default;fontFamily=Helvetica;fontSize=12;fontColor=default;endArrow=classic;" edge="1" parent="1" source="Z4Xb9YO6mUinGf_k16KE-18" target="Z4Xb9YO6mUinGf_k16KE-20">
          <mxGeometry relative="1" as="geometry" />
        </mxCell>
        <mxCell id="Z4Xb9YO6mUinGf_k16KE-18" value="写回策略有几种" style="rounded=0;whiteSpace=wrap;html=1;comic=1;fillColor=#dae8fc;strokeColor=#6c8ebf;" vertex="1" parent="1">
          <mxGeometry x="-70" y="2330" width="146.5" height="30" as="geometry" />
        </mxCell>
        <mxCell id="Z4Xb9YO6mUinGf_k16KE-23" value="" style="edgeStyle=none;shape=connector;rounded=0;sketch=1;orthogonalLoop=1;jettySize=auto;html=1;labelBackgroundColor=default;strokeColor=default;fontFamily=Helvetica;fontSize=12;fontColor=default;endArrow=classic;" edge="1" parent="1" source="Z4Xb9YO6mUinGf_k16KE-20" target="Z4Xb9YO6mUinGf_k16KE-22">
          <mxGeometry relative="1" as="geometry" />
        </mxCell>
        <mxCell id="Z4Xb9YO6mUinGf_k16KE-20" value="AOF日志过大，会触发什么机制" style="rounded=0;whiteSpace=wrap;html=1;comic=1;fillColor=#dae8fc;strokeColor=#6c8ebf;" vertex="1" parent="1">
          <mxGeometry x="-70" y="2400" width="146.5" height="30" as="geometry" />
        </mxCell>
        <mxCell id="Z4Xb9YO6mUinGf_k16KE-165" style="edgeStyle=none;shape=connector;rounded=0;sketch=1;orthogonalLoop=1;jettySize=auto;html=1;exitX=1;exitY=0.25;exitDx=0;exitDy=0;entryX=0;entryY=0.5;entryDx=0;entryDy=0;labelBackgroundColor=default;strokeColor=default;fontFamily=Helvetica;fontSize=12;fontColor=default;endArrow=classic;" edge="1" parent="1" source="Z4Xb9YO6mUinGf_k16KE-22" target="Z4Xb9YO6mUinGf_k16KE-115">
          <mxGeometry relative="1" as="geometry" />
        </mxCell>
        <mxCell id="Z4Xb9YO6mUinGf_k16KE-22" value="AOF重写" style="rounded=0;whiteSpace=wrap;html=1;comic=1;fillColor=#d5e8d4;strokeColor=#82b366;" vertex="1" parent="1">
          <mxGeometry x="-70" y="2510" width="146.5" height="30" as="geometry" />
        </mxCell>
        <mxCell id="Z4Xb9YO6mUinGf_k16KE-35" value="" style="edgeStyle=none;shape=connector;rounded=0;sketch=1;orthogonalLoop=1;jettySize=auto;html=1;labelBackgroundColor=default;strokeColor=default;fontFamily=Helvetica;fontSize=12;fontColor=default;endArrow=classic;" edge="1" parent="1" source="Z4Xb9YO6mUinGf_k16KE-27" target="Z4Xb9YO6mUinGf_k16KE-34">
          <mxGeometry relative="1" as="geometry" />
        </mxCell>
        <mxCell id="Z4Xb9YO6mUinGf_k16KE-27" value="redis主进程" style="rounded=0;whiteSpace=wrap;html=1;comic=1;fillColor=#dae8fc;strokeColor=#6c8ebf;" vertex="1" parent="1">
          <mxGeometry x="-233.25" y="2410" width="146.5" height="30" as="geometry" />
        </mxCell>
        <mxCell id="Z4Xb9YO6mUinGf_k16KE-33" value="" style="edgeStyle=none;shape=connector;rounded=0;sketch=1;orthogonalLoop=1;jettySize=auto;html=1;labelBackgroundColor=default;strokeColor=default;fontFamily=Helvetica;fontSize=12;fontColor=default;endArrow=classic;" edge="1" parent="1" source="Z4Xb9YO6mUinGf_k16KE-30" target="Z4Xb9YO6mUinGf_k16KE-32">
          <mxGeometry relative="1" as="geometry" />
        </mxCell>
        <mxCell id="Z4Xb9YO6mUinGf_k16KE-30" value="子进程" style="rounded=0;whiteSpace=wrap;html=1;comic=1;fillColor=#dae8fc;strokeColor=#6c8ebf;" vertex="1" parent="1">
          <mxGeometry x="-400" y="2410" width="146.5" height="30" as="geometry" />
        </mxCell>
        <mxCell id="Z4Xb9YO6mUinGf_k16KE-167" style="edgeStyle=none;shape=connector;rounded=0;sketch=1;orthogonalLoop=1;jettySize=auto;html=1;exitX=0.5;exitY=1;exitDx=0;exitDy=0;entryX=0.5;entryY=0;entryDx=0;entryDy=0;labelBackgroundColor=default;strokeColor=default;fontFamily=Helvetica;fontSize=12;fontColor=default;endArrow=classic;" edge="1" parent="1" source="Z4Xb9YO6mUinGf_k16KE-32" target="Z4Xb9YO6mUinGf_k16KE-166">
          <mxGeometry relative="1" as="geometry" />
        </mxCell>
        <mxCell id="Z4Xb9YO6mUinGf_k16KE-32" value="bgsave" style="rounded=0;whiteSpace=wrap;html=1;comic=1;fillColor=#dae8fc;strokeColor=#6c8ebf;" vertex="1" parent="1">
          <mxGeometry x="-400" y="2480" width="146.5" height="30" as="geometry" />
        </mxCell>
        <mxCell id="Z4Xb9YO6mUinGf_k16KE-168" style="edgeStyle=none;shape=connector;rounded=0;sketch=1;orthogonalLoop=1;jettySize=auto;html=1;exitX=0.5;exitY=1;exitDx=0;exitDy=0;labelBackgroundColor=default;strokeColor=default;fontFamily=Helvetica;fontSize=12;fontColor=default;endArrow=classic;" edge="1" parent="1" source="Z4Xb9YO6mUinGf_k16KE-34">
          <mxGeometry relative="1" as="geometry">
            <mxPoint x="-240" y="2550" as="targetPoint" />
          </mxGeometry>
        </mxCell>
        <mxCell id="Z4Xb9YO6mUinGf_k16KE-34" value="save" style="rounded=0;whiteSpace=wrap;html=1;comic=1;fillColor=#dae8fc;strokeColor=#6c8ebf;" vertex="1" parent="1">
          <mxGeometry x="-233.25" y="2480" width="146.5" height="30" as="geometry" />
        </mxCell>
        <mxCell id="Z4Xb9YO6mUinGf_k16KE-37" value="Container" style="swimlane;fontFamily=Helvetica;fontSize=12;fontColor=default;" vertex="1" parent="1">
          <mxGeometry x="-631.9100000000001" y="2300" width="204.33" height="200" as="geometry" />
        </mxCell>
        <mxCell id="Z4Xb9YO6mUinGf_k16KE-41" value="" style="edgeStyle=none;shape=connector;rounded=0;sketch=1;orthogonalLoop=1;jettySize=auto;html=1;labelBackgroundColor=default;strokeColor=default;fontFamily=Helvetica;fontSize=12;fontColor=default;endArrow=classic;" edge="1" parent="Z4Xb9YO6mUinGf_k16KE-37" source="Z4Xb9YO6mUinGf_k16KE-39" target="Z4Xb9YO6mUinGf_k16KE-40">
          <mxGeometry relative="1" as="geometry" />
        </mxCell>
        <mxCell id="Z4Xb9YO6mUinGf_k16KE-39" value="RDB内容" style="rounded=0;whiteSpace=wrap;html=1;comic=1;fillColor=#ffe6cc;strokeColor=#d79b00;fontFamily=Helvetica;fontSize=12;fontColor=default;" vertex="1" parent="Z4Xb9YO6mUinGf_k16KE-37">
          <mxGeometry x="42.329999999999984" y="60" width="120" height="30" as="geometry" />
        </mxCell>
        <mxCell id="Z4Xb9YO6mUinGf_k16KE-40" value="AOF内容" style="rounded=0;whiteSpace=wrap;html=1;comic=1;fillColor=#ffe6cc;strokeColor=#d79b00;fontFamily=Helvetica;fontSize=12;fontColor=default;" vertex="1" parent="Z4Xb9YO6mUinGf_k16KE-37">
          <mxGeometry x="42.329999999999984" y="143" width="120" height="30" as="geometry" />
        </mxCell>
        <mxCell id="Z4Xb9YO6mUinGf_k16KE-46" value="" style="edgeStyle=none;shape=connector;rounded=0;sketch=1;orthogonalLoop=1;jettySize=auto;html=1;labelBackgroundColor=default;strokeColor=default;fontFamily=Helvetica;fontSize=12;fontColor=default;endArrow=classic;" edge="1" parent="1" source="Z4Xb9YO6mUinGf_k16KE-42" target="Z4Xb9YO6mUinGf_k16KE-45">
          <mxGeometry relative="1" as="geometry" />
        </mxCell>
        <mxCell id="Z4Xb9YO6mUinGf_k16KE-74" value="" style="edgeStyle=none;shape=connector;rounded=0;sketch=1;orthogonalLoop=1;jettySize=auto;html=1;labelBackgroundColor=default;strokeColor=default;fontFamily=Helvetica;fontSize=12;fontColor=default;endArrow=classic;" edge="1" parent="1" source="Z4Xb9YO6mUinGf_k16KE-42" target="Z4Xb9YO6mUinGf_k16KE-73">
          <mxGeometry relative="1" as="geometry" />
        </mxCell>
        <mxCell id="Z4Xb9YO6mUinGf_k16KE-93" value="" style="edgeStyle=none;shape=connector;rounded=0;sketch=1;orthogonalLoop=1;jettySize=auto;html=1;labelBackgroundColor=default;strokeColor=default;fontFamily=Helvetica;fontSize=12;fontColor=default;endArrow=classic;" edge="1" parent="1" source="Z4Xb9YO6mUinGf_k16KE-42" target="Z4Xb9YO6mUinGf_k16KE-92">
          <mxGeometry relative="1" as="geometry" />
        </mxCell>
        <mxCell id="Z4Xb9YO6mUinGf_k16KE-42" value="Redis 集群" style="rounded=0;whiteSpace=wrap;html=1;comic=1;fillColor=#ffe6cc;strokeColor=#d79b00;fontFamily=Helvetica;fontSize=12;fontColor=default;" vertex="1" parent="1">
          <mxGeometry x="-285.25" y="3660" width="120" height="30" as="geometry" />
        </mxCell>
        <mxCell id="Z4Xb9YO6mUinGf_k16KE-72" style="edgeStyle=none;shape=connector;rounded=0;sketch=1;orthogonalLoop=1;jettySize=auto;html=1;entryX=0;entryY=0.5;entryDx=0;entryDy=0;labelBackgroundColor=default;strokeColor=default;fontFamily=Helvetica;fontSize=12;fontColor=default;endArrow=classic;" edge="1" parent="1" source="Z4Xb9YO6mUinGf_k16KE-45" target="Z4Xb9YO6mUinGf_k16KE-59">
          <mxGeometry relative="1" as="geometry" />
        </mxCell>
        <mxCell id="Z4Xb9YO6mUinGf_k16KE-45" value="主从复制" style="rounded=0;whiteSpace=wrap;html=1;comic=1;fillColor=#ffe6cc;strokeColor=#d79b00;fontFamily=Helvetica;fontSize=12;fontColor=default;" vertex="1" parent="1">
          <mxGeometry x="-105.25" y="3570" width="120" height="30" as="geometry" />
        </mxCell>
        <mxCell id="Z4Xb9YO6mUinGf_k16KE-59" value="Container" style="swimlane;fontFamily=Helvetica;fontSize=12;fontColor=default;" vertex="1" parent="1">
          <mxGeometry x="104.75" y="3360" width="560" height="360" as="geometry">
            <mxRectangle x="150" y="2990" width="100" height="30" as="alternateBounds" />
          </mxGeometry>
        </mxCell>
        <mxCell id="Z4Xb9YO6mUinGf_k16KE-66" value="客户端" style="rounded=0;whiteSpace=wrap;html=1;comic=1;fillColor=#b0e3e6;strokeColor=#0e8088;fontFamily=Helvetica;fontSize=12;fontColor=default;" vertex="1" parent="Z4Xb9YO6mUinGf_k16KE-59">
          <mxGeometry x="210" y="60" width="146.5" height="30" as="geometry" />
        </mxCell>
        <mxCell id="Z4Xb9YO6mUinGf_k16KE-67" value="从服务器" style="rounded=0;whiteSpace=wrap;html=1;comic=1;fillColor=#dae8fc;strokeColor=#6c8ebf;fontFamily=Helvetica;fontSize=12;fontColor=default;" vertex="1" parent="Z4Xb9YO6mUinGf_k16KE-59">
          <mxGeometry x="20" y="170" width="146.5" height="30" as="geometry" />
        </mxCell>
        <mxCell id="Z4Xb9YO6mUinGf_k16KE-60" value="读操作" style="edgeStyle=none;shape=connector;rounded=0;sketch=1;orthogonalLoop=1;jettySize=auto;html=1;exitX=0;exitY=0.25;exitDx=0;exitDy=0;entryX=0.5;entryY=0;entryDx=0;entryDy=0;labelBackgroundColor=default;strokeColor=default;fontFamily=Helvetica;fontSize=12;fontColor=default;endArrow=classic;" edge="1" parent="Z4Xb9YO6mUinGf_k16KE-59" source="Z4Xb9YO6mUinGf_k16KE-66" target="Z4Xb9YO6mUinGf_k16KE-67">
          <mxGeometry relative="1" as="geometry">
            <Array as="points">
              <mxPoint x="150" y="120" />
            </Array>
          </mxGeometry>
        </mxCell>
        <mxCell id="Z4Xb9YO6mUinGf_k16KE-68" value="从服务器" style="rounded=0;whiteSpace=wrap;html=1;comic=1;fillColor=#dae8fc;strokeColor=#6c8ebf;fontFamily=Helvetica;fontSize=12;fontColor=default;" vertex="1" parent="Z4Xb9YO6mUinGf_k16KE-59">
          <mxGeometry x="380" y="170" width="146.5" height="30" as="geometry" />
        </mxCell>
        <mxCell id="Z4Xb9YO6mUinGf_k16KE-61" value="读操作" style="edgeStyle=none;shape=connector;rounded=0;sketch=1;orthogonalLoop=1;jettySize=auto;html=1;exitX=1;exitY=0.5;exitDx=0;exitDy=0;labelBackgroundColor=default;strokeColor=default;fontFamily=Helvetica;fontSize=12;fontColor=default;endArrow=classic;" edge="1" parent="Z4Xb9YO6mUinGf_k16KE-59" source="Z4Xb9YO6mUinGf_k16KE-66" target="Z4Xb9YO6mUinGf_k16KE-68">
          <mxGeometry relative="1" as="geometry" />
        </mxCell>
        <mxCell id="Z4Xb9YO6mUinGf_k16KE-69" value="写操作同步" style="edgeStyle=none;shape=connector;rounded=0;sketch=1;orthogonalLoop=1;jettySize=auto;html=1;exitX=0;exitY=0.5;exitDx=0;exitDy=0;entryX=0.5;entryY=1;entryDx=0;entryDy=0;labelBackgroundColor=default;strokeColor=default;fontFamily=Helvetica;fontSize=12;fontColor=default;endArrow=classic;" edge="1" parent="Z4Xb9YO6mUinGf_k16KE-59" source="Z4Xb9YO6mUinGf_k16KE-71" target="Z4Xb9YO6mUinGf_k16KE-67">
          <mxGeometry relative="1" as="geometry" />
        </mxCell>
        <mxCell id="Z4Xb9YO6mUinGf_k16KE-70" value="写操作同步" style="edgeStyle=none;shape=connector;rounded=0;sketch=1;orthogonalLoop=1;jettySize=auto;html=1;exitX=1;exitY=0.5;exitDx=0;exitDy=0;entryX=0.5;entryY=1;entryDx=0;entryDy=0;labelBackgroundColor=default;strokeColor=default;fontFamily=Helvetica;fontSize=12;fontColor=default;endArrow=classic;" edge="1" parent="Z4Xb9YO6mUinGf_k16KE-59" source="Z4Xb9YO6mUinGf_k16KE-71" target="Z4Xb9YO6mUinGf_k16KE-68">
          <mxGeometry relative="1" as="geometry" />
        </mxCell>
        <mxCell id="Z4Xb9YO6mUinGf_k16KE-71" value="主服务器" style="rounded=0;whiteSpace=wrap;html=1;comic=1;fillColor=#b0e3e6;strokeColor=#0e8088;fontFamily=Helvetica;fontSize=12;fontColor=default;" vertex="1" parent="Z4Xb9YO6mUinGf_k16KE-59">
          <mxGeometry x="210" y="290" width="146.5" height="30" as="geometry" />
        </mxCell>
        <mxCell id="Z4Xb9YO6mUinGf_k16KE-62" style="edgeStyle=none;shape=connector;rounded=0;sketch=1;orthogonalLoop=1;jettySize=auto;html=1;exitX=0.5;exitY=1;exitDx=0;exitDy=0;entryX=0.172;entryY=-0.07;entryDx=0;entryDy=0;entryPerimeter=0;labelBackgroundColor=default;strokeColor=default;fontFamily=Helvetica;fontSize=12;fontColor=default;endArrow=classic;" edge="1" parent="Z4Xb9YO6mUinGf_k16KE-59" source="Z4Xb9YO6mUinGf_k16KE-66" target="Z4Xb9YO6mUinGf_k16KE-71">
          <mxGeometry relative="1" as="geometry" />
        </mxCell>
        <mxCell id="Z4Xb9YO6mUinGf_k16KE-63" value="写操作" style="edgeLabel;html=1;align=center;verticalAlign=middle;resizable=0;points=[];fontSize=12;fontFamily=Helvetica;fontColor=default;" vertex="1" connectable="0" parent="Z4Xb9YO6mUinGf_k16KE-62">
          <mxGeometry x="0.089" y="1" relative="1" as="geometry">
            <mxPoint as="offset" />
          </mxGeometry>
        </mxCell>
        <mxCell id="Z4Xb9YO6mUinGf_k16KE-64" style="edgeStyle=none;shape=connector;rounded=0;sketch=1;orthogonalLoop=1;jettySize=auto;html=1;exitX=0.5;exitY=1;exitDx=0;exitDy=0;entryX=0.75;entryY=0;entryDx=0;entryDy=0;labelBackgroundColor=default;strokeColor=default;fontFamily=Helvetica;fontSize=12;fontColor=default;endArrow=classic;" edge="1" parent="Z4Xb9YO6mUinGf_k16KE-59" source="Z4Xb9YO6mUinGf_k16KE-66" target="Z4Xb9YO6mUinGf_k16KE-71">
          <mxGeometry relative="1" as="geometry" />
        </mxCell>
        <mxCell id="Z4Xb9YO6mUinGf_k16KE-65" value="读操作" style="edgeLabel;html=1;align=center;verticalAlign=middle;resizable=0;points=[];fontSize=12;fontFamily=Helvetica;fontColor=default;" vertex="1" connectable="0" parent="Z4Xb9YO6mUinGf_k16KE-64">
          <mxGeometry x="0.1067" y="-2" relative="1" as="geometry">
            <mxPoint y="-1" as="offset" />
          </mxGeometry>
        </mxCell>
        <mxCell id="Z4Xb9YO6mUinGf_k16KE-88" style="edgeStyle=none;shape=connector;rounded=0;sketch=1;orthogonalLoop=1;jettySize=auto;html=1;exitX=1;exitY=0.5;exitDx=0;exitDy=0;entryX=0;entryY=0.5;entryDx=0;entryDy=0;labelBackgroundColor=default;strokeColor=default;fontFamily=Helvetica;fontSize=12;fontColor=default;endArrow=classic;" edge="1" parent="1" source="Z4Xb9YO6mUinGf_k16KE-73" target="Z4Xb9YO6mUinGf_k16KE-75">
          <mxGeometry relative="1" as="geometry" />
        </mxCell>
        <mxCell id="Z4Xb9YO6mUinGf_k16KE-73" value="哨兵模式" style="rounded=0;whiteSpace=wrap;html=1;comic=1;fillColor=#ffe6cc;strokeColor=#d79b00;fontFamily=Helvetica;fontSize=12;fontColor=default;" vertex="1" parent="1">
          <mxGeometry x="-105.25" y="3810" width="120" height="30" as="geometry" />
        </mxCell>
        <mxCell id="Z4Xb9YO6mUinGf_k16KE-75" value="Container" style="swimlane;fontFamily=Helvetica;fontSize=12;fontColor=default;" vertex="1" parent="1">
          <mxGeometry x="124.75" y="3780" width="560" height="350" as="geometry">
            <mxRectangle x="150" y="2990" width="100" height="30" as="alternateBounds" />
          </mxGeometry>
        </mxCell>
        <mxCell id="Z4Xb9YO6mUinGf_k16KE-76" value="客户端" style="rounded=0;whiteSpace=wrap;html=1;comic=1;fillColor=#b0e3e6;strokeColor=#0e8088;fontFamily=Helvetica;fontSize=12;fontColor=default;" vertex="1" parent="Z4Xb9YO6mUinGf_k16KE-75">
          <mxGeometry x="206.75" y="57" width="146.5" height="30" as="geometry" />
        </mxCell>
        <mxCell id="Z4Xb9YO6mUinGf_k16KE-90" value="响应" style="edgeStyle=none;shape=connector;rounded=0;sketch=1;orthogonalLoop=1;jettySize=auto;html=1;exitX=0.75;exitY=0;exitDx=0;exitDy=0;entryX=0;entryY=0.75;entryDx=0;entryDy=0;labelBackgroundColor=default;strokeColor=default;fontFamily=Helvetica;fontSize=12;fontColor=default;endArrow=classic;" edge="1" parent="Z4Xb9YO6mUinGf_k16KE-75" source="Z4Xb9YO6mUinGf_k16KE-77" target="Z4Xb9YO6mUinGf_k16KE-76">
          <mxGeometry relative="1" as="geometry" />
        </mxCell>
        <mxCell id="Z4Xb9YO6mUinGf_k16KE-77" value="从服务器" style="rounded=0;whiteSpace=wrap;html=1;comic=1;fillColor=#dae8fc;strokeColor=#6c8ebf;fontFamily=Helvetica;fontSize=12;fontColor=default;" vertex="1" parent="Z4Xb9YO6mUinGf_k16KE-75">
          <mxGeometry x="20" y="170" width="146.5" height="30" as="geometry" />
        </mxCell>
        <mxCell id="Z4Xb9YO6mUinGf_k16KE-78" value="Ping" style="edgeStyle=none;shape=connector;rounded=0;sketch=1;orthogonalLoop=1;jettySize=auto;html=1;exitX=0;exitY=0;exitDx=0;exitDy=0;entryX=0.25;entryY=0;entryDx=0;entryDy=0;labelBackgroundColor=default;strokeColor=default;fontFamily=Helvetica;fontSize=12;fontColor=default;endArrow=classic;exitPerimeter=0;" edge="1" parent="Z4Xb9YO6mUinGf_k16KE-75" source="Z4Xb9YO6mUinGf_k16KE-76" target="Z4Xb9YO6mUinGf_k16KE-77">
          <mxGeometry relative="1" as="geometry">
            <Array as="points">
              <mxPoint x="120" y="90" />
            </Array>
          </mxGeometry>
        </mxCell>
        <mxCell id="Z4Xb9YO6mUinGf_k16KE-91" value="响应" style="edgeStyle=none;shape=connector;rounded=0;sketch=1;orthogonalLoop=1;jettySize=auto;html=1;exitX=0.5;exitY=0;exitDx=0;exitDy=0;entryX=1;entryY=0.5;entryDx=0;entryDy=0;labelBackgroundColor=default;strokeColor=default;fontFamily=Helvetica;fontSize=12;fontColor=default;endArrow=classic;" edge="1" parent="Z4Xb9YO6mUinGf_k16KE-75" source="Z4Xb9YO6mUinGf_k16KE-79" target="Z4Xb9YO6mUinGf_k16KE-76">
          <mxGeometry relative="1" as="geometry" />
        </mxCell>
        <mxCell id="Z4Xb9YO6mUinGf_k16KE-79" value="从服务器" style="rounded=0;whiteSpace=wrap;html=1;comic=1;fillColor=#dae8fc;strokeColor=#6c8ebf;fontFamily=Helvetica;fontSize=12;fontColor=default;" vertex="1" parent="Z4Xb9YO6mUinGf_k16KE-75">
          <mxGeometry x="380" y="180" width="146.5" height="30" as="geometry" />
        </mxCell>
        <mxCell id="Z4Xb9YO6mUinGf_k16KE-80" value="ping" style="edgeStyle=none;shape=connector;rounded=0;sketch=1;orthogonalLoop=1;jettySize=auto;html=1;labelBackgroundColor=default;strokeColor=default;fontFamily=Helvetica;fontSize=12;fontColor=default;endArrow=classic;entryX=0.891;entryY=-0.105;entryDx=0;entryDy=0;entryPerimeter=0;" edge="1" parent="Z4Xb9YO6mUinGf_k16KE-75" target="Z4Xb9YO6mUinGf_k16KE-79">
          <mxGeometry relative="1" as="geometry">
            <mxPoint x="360" y="70" as="sourcePoint" />
            <Array as="points">
              <mxPoint x="480" y="70" />
            </Array>
          </mxGeometry>
        </mxCell>
        <mxCell id="Z4Xb9YO6mUinGf_k16KE-81" value="写操作同步" style="edgeStyle=none;shape=connector;rounded=0;sketch=1;orthogonalLoop=1;jettySize=auto;html=1;exitX=0;exitY=0.5;exitDx=0;exitDy=0;entryX=0.5;entryY=1;entryDx=0;entryDy=0;labelBackgroundColor=default;strokeColor=default;fontFamily=Helvetica;fontSize=12;fontColor=default;endArrow=classic;" edge="1" parent="Z4Xb9YO6mUinGf_k16KE-75" source="Z4Xb9YO6mUinGf_k16KE-83" target="Z4Xb9YO6mUinGf_k16KE-77">
          <mxGeometry relative="1" as="geometry" />
        </mxCell>
        <mxCell id="Z4Xb9YO6mUinGf_k16KE-82" value="写操作同步" style="edgeStyle=none;shape=connector;rounded=0;sketch=1;orthogonalLoop=1;jettySize=auto;html=1;exitX=1;exitY=0.5;exitDx=0;exitDy=0;entryX=0.5;entryY=1;entryDx=0;entryDy=0;labelBackgroundColor=default;strokeColor=default;fontFamily=Helvetica;fontSize=12;fontColor=default;endArrow=classic;" edge="1" parent="Z4Xb9YO6mUinGf_k16KE-75" source="Z4Xb9YO6mUinGf_k16KE-83" target="Z4Xb9YO6mUinGf_k16KE-79">
          <mxGeometry relative="1" as="geometry" />
        </mxCell>
        <mxCell id="Z4Xb9YO6mUinGf_k16KE-89" value="x响应" style="edgeStyle=none;shape=connector;rounded=0;sketch=1;orthogonalLoop=1;jettySize=auto;html=1;exitX=0.75;exitY=0;exitDx=0;exitDy=0;entryX=0.75;entryY=1;entryDx=0;entryDy=0;labelBackgroundColor=default;strokeColor=default;fontFamily=Helvetica;fontSize=12;fontColor=default;endArrow=classic;" edge="1" parent="Z4Xb9YO6mUinGf_k16KE-75" source="Z4Xb9YO6mUinGf_k16KE-83" target="Z4Xb9YO6mUinGf_k16KE-76">
          <mxGeometry relative="1" as="geometry" />
        </mxCell>
        <mxCell id="Z4Xb9YO6mUinGf_k16KE-83" value="主服务器" style="rounded=0;whiteSpace=wrap;html=1;comic=1;fillColor=#b0e3e6;strokeColor=#0e8088;fontFamily=Helvetica;fontSize=12;fontColor=default;" vertex="1" parent="Z4Xb9YO6mUinGf_k16KE-75">
          <mxGeometry x="210" y="290" width="146.5" height="30" as="geometry" />
        </mxCell>
        <mxCell id="Z4Xb9YO6mUinGf_k16KE-84" style="edgeStyle=none;shape=connector;rounded=0;sketch=1;orthogonalLoop=1;jettySize=auto;html=1;exitX=0.25;exitY=1;exitDx=0;exitDy=0;entryX=0.172;entryY=-0.07;entryDx=0;entryDy=0;entryPerimeter=0;labelBackgroundColor=default;strokeColor=default;fontFamily=Helvetica;fontSize=12;fontColor=default;endArrow=classic;" edge="1" parent="Z4Xb9YO6mUinGf_k16KE-75" source="Z4Xb9YO6mUinGf_k16KE-76" target="Z4Xb9YO6mUinGf_k16KE-83">
          <mxGeometry relative="1" as="geometry" />
        </mxCell>
        <mxCell id="Z4Xb9YO6mUinGf_k16KE-85" value="ping" style="edgeLabel;html=1;align=center;verticalAlign=middle;resizable=0;points=[];fontSize=12;fontFamily=Helvetica;fontColor=default;" vertex="1" connectable="0" parent="Z4Xb9YO6mUinGf_k16KE-84">
          <mxGeometry x="0.089" y="1" relative="1" as="geometry">
            <mxPoint as="offset" />
          </mxGeometry>
        </mxCell>
        <mxCell id="Z4Xb9YO6mUinGf_k16KE-110" style="edgeStyle=none;shape=connector;rounded=0;sketch=1;orthogonalLoop=1;jettySize=auto;html=1;exitX=0.5;exitY=1;exitDx=0;exitDy=0;entryX=0.5;entryY=0;entryDx=0;entryDy=0;labelBackgroundColor=default;strokeColor=default;fontFamily=Helvetica;fontSize=12;fontColor=default;endArrow=classic;" edge="1" parent="1" source="Z4Xb9YO6mUinGf_k16KE-92" target="Z4Xb9YO6mUinGf_k16KE-94">
          <mxGeometry relative="1" as="geometry" />
        </mxCell>
        <mxCell id="Z4Xb9YO6mUinGf_k16KE-92" value="切片集群模式" style="rounded=0;whiteSpace=wrap;html=1;comic=1;fillColor=#ffe6cc;strokeColor=#d79b00;fontFamily=Helvetica;fontSize=12;fontColor=default;" vertex="1" parent="1">
          <mxGeometry x="-478.25" y="3810" width="120" height="30" as="geometry" />
        </mxCell>
        <mxCell id="Z4Xb9YO6mUinGf_k16KE-94" value="Container" style="swimlane;fontFamily=Helvetica;fontSize=12;fontColor=default;" vertex="1" parent="1">
          <mxGeometry x="-678.25" y="3900" width="520" height="350" as="geometry" />
        </mxCell>
        <mxCell id="Z4Xb9YO6mUinGf_k16KE-95" value="Redis 实例 1" style="rounded=0;whiteSpace=wrap;html=1;comic=1;fillColor=#ffe6cc;strokeColor=#d79b00;fontFamily=Helvetica;fontSize=12;fontColor=default;" vertex="1" parent="Z4Xb9YO6mUinGf_k16KE-94">
          <mxGeometry x="34" y="262" width="120" height="30" as="geometry" />
        </mxCell>
        <mxCell id="Z4Xb9YO6mUinGf_k16KE-96" value="Redis 实例 2" style="rounded=0;whiteSpace=wrap;html=1;comic=1;fillColor=#ffe6cc;strokeColor=#d79b00;fontFamily=Helvetica;fontSize=12;fontColor=default;" vertex="1" parent="Z4Xb9YO6mUinGf_k16KE-94">
          <mxGeometry x="300.5" y="262" width="120" height="30" as="geometry" />
        </mxCell>
        <mxCell id="Z4Xb9YO6mUinGf_k16KE-106" style="edgeStyle=none;shape=connector;rounded=0;sketch=1;orthogonalLoop=1;jettySize=auto;html=1;exitX=0.5;exitY=1;exitDx=0;exitDy=0;labelBackgroundColor=default;strokeColor=default;fontFamily=Helvetica;fontSize=12;fontColor=default;endArrow=classic;" edge="1" parent="Z4Xb9YO6mUinGf_k16KE-94" source="Z4Xb9YO6mUinGf_k16KE-97" target="Z4Xb9YO6mUinGf_k16KE-95">
          <mxGeometry relative="1" as="geometry" />
        </mxCell>
        <mxCell id="Z4Xb9YO6mUinGf_k16KE-97" value="Slot 0" style="rounded=0;whiteSpace=wrap;html=1;comic=1;fillColor=#b0e3e6;strokeColor=#0e8088;fontFamily=Helvetica;fontSize=12;fontColor=default;" vertex="1" parent="Z4Xb9YO6mUinGf_k16KE-94">
          <mxGeometry x="10" y="142" width="94" height="30" as="geometry" />
        </mxCell>
        <mxCell id="Z4Xb9YO6mUinGf_k16KE-105" style="edgeStyle=none;shape=connector;rounded=0;sketch=1;orthogonalLoop=1;jettySize=auto;html=1;exitX=0.5;exitY=1;exitDx=0;exitDy=0;labelBackgroundColor=default;strokeColor=default;fontFamily=Helvetica;fontSize=12;fontColor=default;endArrow=classic;" edge="1" parent="Z4Xb9YO6mUinGf_k16KE-94" source="Z4Xb9YO6mUinGf_k16KE-98" target="Z4Xb9YO6mUinGf_k16KE-95">
          <mxGeometry relative="1" as="geometry" />
        </mxCell>
        <mxCell id="Z4Xb9YO6mUinGf_k16KE-98" value="Slot 1" style="rounded=0;whiteSpace=wrap;html=1;comic=1;fillColor=#b0e3e6;strokeColor=#0e8088;fontFamily=Helvetica;fontSize=12;fontColor=default;" vertex="1" parent="Z4Xb9YO6mUinGf_k16KE-94">
          <mxGeometry x="129" y="142" width="94" height="30" as="geometry" />
        </mxCell>
        <mxCell id="Z4Xb9YO6mUinGf_k16KE-108" style="edgeStyle=none;shape=connector;rounded=0;sketch=1;orthogonalLoop=1;jettySize=auto;html=1;exitX=0.5;exitY=1;exitDx=0;exitDy=0;labelBackgroundColor=default;strokeColor=default;fontFamily=Helvetica;fontSize=12;fontColor=default;endArrow=classic;" edge="1" parent="Z4Xb9YO6mUinGf_k16KE-94" source="Z4Xb9YO6mUinGf_k16KE-99" target="Z4Xb9YO6mUinGf_k16KE-96">
          <mxGeometry relative="1" as="geometry" />
        </mxCell>
        <mxCell id="Z4Xb9YO6mUinGf_k16KE-99" value="Slot 2" style="rounded=0;whiteSpace=wrap;html=1;comic=1;fillColor=#b0e3e6;strokeColor=#0e8088;fontFamily=Helvetica;fontSize=12;fontColor=default;" vertex="1" parent="Z4Xb9YO6mUinGf_k16KE-94">
          <mxGeometry x="254" y="142" width="94" height="30" as="geometry" />
        </mxCell>
        <mxCell id="Z4Xb9YO6mUinGf_k16KE-109" style="edgeStyle=none;shape=connector;rounded=0;sketch=1;orthogonalLoop=1;jettySize=auto;html=1;exitX=0.5;exitY=1;exitDx=0;exitDy=0;labelBackgroundColor=default;strokeColor=default;fontFamily=Helvetica;fontSize=12;fontColor=default;endArrow=classic;" edge="1" parent="Z4Xb9YO6mUinGf_k16KE-94" source="Z4Xb9YO6mUinGf_k16KE-100" target="Z4Xb9YO6mUinGf_k16KE-96">
          <mxGeometry relative="1" as="geometry" />
        </mxCell>
        <mxCell id="Z4Xb9YO6mUinGf_k16KE-100" value="Slot 3" style="rounded=0;whiteSpace=wrap;html=1;comic=1;fillColor=#b0e3e6;strokeColor=#0e8088;fontFamily=Helvetica;fontSize=12;fontColor=default;" vertex="1" parent="Z4Xb9YO6mUinGf_k16KE-94">
          <mxGeometry x="373" y="142" width="94" height="30" as="geometry" />
        </mxCell>
        <mxCell id="Z4Xb9YO6mUinGf_k16KE-104" style="edgeStyle=none;shape=connector;rounded=0;sketch=1;orthogonalLoop=1;jettySize=auto;html=1;exitX=0.5;exitY=1;exitDx=0;exitDy=0;labelBackgroundColor=default;strokeColor=default;fontFamily=Helvetica;fontSize=12;fontColor=default;endArrow=classic;" edge="1" parent="Z4Xb9YO6mUinGf_k16KE-94" source="Z4Xb9YO6mUinGf_k16KE-101" target="Z4Xb9YO6mUinGf_k16KE-98">
          <mxGeometry relative="1" as="geometry" />
        </mxCell>
        <mxCell id="Z4Xb9YO6mUinGf_k16KE-101" value="CRC16（key1）%4=1" style="rounded=0;whiteSpace=wrap;html=1;comic=1;fillColor=#dae8fc;strokeColor=#6c8ebf;fontFamily=Helvetica;fontSize=12;fontColor=default;" vertex="1" parent="Z4Xb9YO6mUinGf_k16KE-94">
          <mxGeometry x="34" y="50" width="146.5" height="30" as="geometry" />
        </mxCell>
        <mxCell id="Z4Xb9YO6mUinGf_k16KE-107" style="edgeStyle=none;shape=connector;rounded=0;sketch=1;orthogonalLoop=1;jettySize=auto;html=1;exitX=0.5;exitY=1;exitDx=0;exitDy=0;entryX=0.5;entryY=0;entryDx=0;entryDy=0;labelBackgroundColor=default;strokeColor=default;fontFamily=Helvetica;fontSize=12;fontColor=default;endArrow=classic;" edge="1" parent="Z4Xb9YO6mUinGf_k16KE-94" source="Z4Xb9YO6mUinGf_k16KE-102" target="Z4Xb9YO6mUinGf_k16KE-99">
          <mxGeometry relative="1" as="geometry" />
        </mxCell>
        <mxCell id="Z4Xb9YO6mUinGf_k16KE-102" value="CRC16（key1）%4=2" style="rounded=0;whiteSpace=wrap;html=1;comic=1;fillColor=#dae8fc;strokeColor=#6c8ebf;fontFamily=Helvetica;fontSize=12;fontColor=default;" vertex="1" parent="Z4Xb9YO6mUinGf_k16KE-94">
          <mxGeometry x="285.5" y="50" width="146.5" height="30" as="geometry" />
        </mxCell>
        <mxCell id="Z4Xb9YO6mUinGf_k16KE-164" style="edgeStyle=none;shape=connector;rounded=0;sketch=1;orthogonalLoop=1;jettySize=auto;html=1;exitX=0.5;exitY=1;exitDx=0;exitDy=0;entryX=0.488;entryY=-0.001;entryDx=0;entryDy=0;entryPerimeter=0;labelBackgroundColor=default;strokeColor=default;fontFamily=Helvetica;fontSize=12;fontColor=default;endArrow=classic;" edge="1" parent="1" source="Z4Xb9YO6mUinGf_k16KE-115" target="Z4Xb9YO6mUinGf_k16KE-133">
          <mxGeometry relative="1" as="geometry" />
        </mxCell>
        <mxCell id="Z4Xb9YO6mUinGf_k16KE-115" value="" style="shape=image;verticalLabelPosition=bottom;labelBackgroundColor=default;verticalAlign=top;aspect=fixed;imageAspect=0;image=data:image/webp,UklGRmxkAABXRUJQVlA4WAoAAAAIAAAAggYApgEAVlA4IAJkAAAw0AGdASqDBqcBPpFGnUwlo6KiIdWpwLASCWdu/CX5w+E/VPlJFLGq/r9mv85HLFe8Sy7/lfAp6Pv8R04/Sr5mP2u/WD3hPTf/lPR0/qvrZ+sj/YfUA/YD1qv/f+4HxOf33/velJqxHiP+v/2b9ePAL+xf2z9ff79/7vWv8X+V/sX9p/yP+T/t37T/C3/J/37xB9Ff6r+7ep38h+wf3b+5f5b/df3f5tfsH96/uH7X/5L0R+G/8R9vHyC/kH8h/uv9k/xX++/tXyIfS/6jtr9O/1/+//0f7k/AF6rfNP8z/df8h/2f816If8t/nP8F/0/3/+S/0v+4f6D/Bfk99gH8l/pf+m/vf7y/43///+T8A/1Xg7ffv87/0P898Af82/uH/Z/0H+y/bT6X/5z/r/6X/d/tz7Zfz3/Hf9z/Rf7b9pvsJ/mv9g/5n+K/0H7Q/OL///+j8FP3D////R///yyft3///+wLE9TPXfecf1foEpaJFwJ834JQnRMt0usfQ1UaYiaE14QrcKmMoMA/93ah1RXpwRv+X1LcXFJD0/mgn2mFLQJg2n4dp43nJPKZleEHTRXbye7J0yXX/09IdkRpucRsDrIdGtsVYM1bKB7eADtFkKmX1puhYD8OBBtj7YnmB+OM20nvJm0Fo11pdfIb7zCUIDOkAML9Emy+oljg6pF+kSFOehhCwcvGfIqcIVu5EFXtci1SOmpebo8I1J68fv+ct7CyNVUkpKdnoucSg5mT0t6AHVj34Cc20eLEGHY4pR/oZr9kIAB4WVVihUwzX7IQADwsl7o3IQUuEfS3CPpbhH0twj6W4R9LcI+dQna/lt1ND+qpxnQEcxtosevySq2Ra60/ijcpeVTb/aEKJMOsQgHGoALqhTnO3/yUIgQqfZqdHoQf+IhzmFKUb/Sk2FlVXx0t8BkFi7xrOsekgiG9EvZZsAia2VE68A+pBqaVdV7zrQ/FiUiRt/CXt3fx2LkvmVuiC1N7aGvhhqh33NfRXsg+fNbIoBn/+Kj0W7rE4oElVYoVMM1+yEAA8LKqxQqYZr9kD2ZHXUGmQKmGa/VhlqsUM1DNftH4tFCphmv2QgAINAqrFCphmv2QgAHhZVWKFTDNfshAAPCutnJrAA9kAKEAFfKGpqJFrhvD5RJDbIkhtkSQ2yJIaxCF7i/KkH/64soruiZIpvEnV3iTq7xJ1dhbz6o8rjwsqrFCphmv2QgAHhZVWKFTDNZ+zwPCyqsUKmGYYipSo47afj4ouk/m6z80gOkqqzxVoQFZBfAuv9UqrhMoVMLgoRr2iL5CkLxctNs6imy5lfa7xfPKkIAB4NJYxo7a6jlpakivFBe2JFK91nt+sqMxQqYZr9kHuBel88qQgAHhZMzhs/WkIABZIZaUDtMqrFA/VwADsh0xmbgsTOcNSkJJQn4KNN9lOMVFQ+XRzuZWRqqv9I6IiBaFQaGG9XLDXxOqS19wLk7ZtP81eM8r8ZnCySxbE6D9mPefJh9FpRUcF9siWih/XSanwhivJ/ZjLPqByCm8WoeTVXeJA2IRMfxWI8QliOiRnCuRonxaK2NTcj+JVIoPkLIbRt2QsKgJZkQkfezwPCyqsUKmGYYipYYBHnePlP2AcIGchNarGeHqF47hpfolQtcl0b+TNIudABV6YQoXJ72nThfOZMzBoCi0HLDh0ss5JQrjSjmrA5I59J2gHS2OsZWhMO5wPCyph2DlrTr3075P78SovCzTa8n4LqB9CWIF5nI4YflJV4mE5sKoccgxELo81HNexaNVum00VDEvr4nvrLDLVYoVL73FYHZ7xVoV/Xye/F0SQ5pOd6BrACtCmnfsUqAsyo5ouptF5w3GqIIc5U+BV9h5eQJ+ejoA7qBqUaG35UZBt8AXwg++gJYDigOw0kXuo2wAb7jKxrPAtPaGuz1xUehsHlU9IQADwsqrFA/VvcBlFpVYg0GqCcGq3UoPBW++MrNd2Q410Kbs21Cqu02sOxXKQjTehpeVH8IgHqkxxHOQn20LuLjGqvnXwD/SsaMYQOxtn31UeBgR0I5fRhKw+xseFlljZVgwpuz1D6RMvE7CHiy+Dm3kWDf28Ie0DYCe5tKQSysF8GLmj0Nmm0WxYhZtM/YFbzCHW0cJ4Gwv1OWHTj28AHhZVWKB+reoudb1VsAKGasl1SAWSry8LKqvdJzWDf5KWT7AEkpRjB+rrjxeJ3ZaUEs9OZQtL/Q4Cev5rBqwzMxiEwNqfulvrw70+Q2+rp6hNOUvJvcoVggRsvQI2XoEbLzOjl2fmWxZ/i5vQLYrg2XwsV+REUmBSaBeNXyD3vP8ZhQSyppgLX9vpkCC5r9Tn17kIDBBZvHFwgfi0rjvSLn1qKSzue/XiUPik6JrrQSUKmGa/ZCAAYI+j6oxt1sR42JOrvEnV3iTq7xJ1d4hk4nv94HFCgJ3iNmMjpNOVLnjBK+zJegRsvQI2XoEbI/ODghWlb7AVCdbqDtUXTOdiQ0veafbqkq3o/sxrXVlyh04BgL4NlGRQhagXjZDnlSEAA8LKqc3qKmGfaMfKJ6AQ4zoZV3iFxjutlPgaJ05M2lueOj9l/eKP2YLAHnlXeIVMJIBkogInaY7J32t1dHio4Rc8ZJg6bxXi9H1wEQl7tJBpIUGXVkpxTmP8+YQszpPggrUlObMzPLot6iRAB+GzXVXKl0pTA/EP5F1xdGSi2eZzpllRXfFl6BV7tn/cEZFHte80qXM04LsTe3JWMHMiY3M+fnLbkFErxrMOLAkLEoWvVCphmv18CS4WZGx1h4gPs8hiJlfSP8eGGa/ZCAAeFcWE0KshiXDcvWc57MIpY+7d5Dt5EdNZhoElf4keE797h6DXzfB4HIobXe0XyfHmtg0VctMNZpJtGn/LdEQe79uf/SlbjRZIYymdu5TL9a1QvLvjRMf4YCoe4ot3b1SHIc4rSaKp1NxbBRD9CRNHjvRbxNkS0P/aLrcckCMhz73eA947wuqDLHspHH/sxCLWkzc72Gx9Y+oSfjBYH8Sg4AN/0Zh9UlL43PckCc9odA4te+TwTYC5ojYNfFBFCkM/yovsBEYOP9pc7e5jthULh/UJ8qotdMffwAEdjmAZJUmEh1WD/P5TeVcf/Yip47YY3RcsLzo2GM0ewsqrFCphmv2mjxPccymStQ7hvRkiawAPCyqsUKxrknzzfGdxuVJDRFq2gfiVUb5abZz3WxYzhtmXi8UGgQ5TPo39jtSG07gvdw4ievJp51X8GFDPJJXapvUDCWKLL2Sh7CvZIbZEkNsiSG2RJDbHHJeth3nD7z3CAFpcqZkbH6RKGEhsiSG2RJDbIkhtj8KByAHWcyk1rA8LP6bBigBN+ClghAAPCypJ4uI5Sm4AHhZVWLdpw7W6i16oVMM1/gUwanOV5/Qxb9qC/cMZ6q2PT5jTgD36a7evFKpYnRt4PFBVZMSiphbntb1FUxp071KvsDhD1A5fPKkHutwisimkU3iTq7xJ1d4k6u8RIYcopCSUKmGa/Vhpx7eADwsqrFA/VvcCSQ2AmoPyApnJz+/Il2mWhs/mFxCvO4v7ThL8A0Cgstnc8wuzh2MsGrFCpBxoOhxQ6L+/9C8mDFlykzZA1dyp13GKhHxEo0k84fY3N7OKx4HtrPDesylKzTE53hrNaKv2SPEGE29OrACn8ebFWKFTDNfshAAPCyqsUKmGa/ZB//GyHPKkIAB4WVU5vUH6st6sB3+tv0N883qPsRC44dy2n9LVY7r7D7JPFfnwGqdBxg//Ygj71pCAAYHGjyI2u9NzHfXLzEG41A1sCEYKqFyKEkAOXOcRBNp+IZ4W7VzJqFmFE6S1sd8YzIW6qW6S2NB5Lso9hZVWKFTDNfshAAPCyqsUKmGa/Vhpx7eADwsqrFA/VvcCOtVxvnHXvczop932CLyxdaHh7LSBtsi588PY3kDX3XFRnPMVnTR5tXnaH3rSEAAwR9fo2VXFAmyE2DVihUwzX7IQADwsqrFCphmv2Qf/xshzypCAAeFlVOb1AvD38Gsht6x66ZngOQzwHIZ8/kM+Z12EQ7AEfZZflVYkJ208CerxpApAjZegRsvQI2XoEbIYX/oqGqI8XzypCAAeFlVYoVMM1+yEAA8LKqc4BfPKkIAB4WVMOxXPMN/lByaw4b5v655UhEF5ty25bctuW3LbhpdkJJQqYZr9kIAB4WVVihUwzX7IPcC9L55UhAAPCyZnDfshAAPCyqsUKmGa/ZCAAeFlVYoVMM1+yEAA8LKqxQqYZr9kIAB4WVMO8gAHhZVWKFS+5w37IQADwsqrFCphmv2QgAHhZVWKFTDNfshAAPCyqsUKmGa/ZCAAeFlTDvIAB4WVVihUvucN+yEAA8LKqxQqYZr9kIAB4WVVihUwzX7IQADwsqrFCphmv2QgAHhZUkojh0D6W4R9LcI+luEfS3CPpbhHzJYm1VYoVMM1+yEAA8LKqxQqYZr9kIAB4WVVihUwzX7IQADwsqrFCphmv2QgAHhZVWKFTDNfshAAPCyqsUKmGa/ZCAAeFlVYoVMM1+yEAA8LKqxQqYZr9kIAB4WVUvOwSZGcWcaELFh17iXJgxEIk37aLYshQDdZYiwwjd07LE05rq5PFVoeZ9BlN2cM9WrOq1dna4VvEzgmczXmp+X8aiIut0gVYWfK6Z7prZCSUKmGa/ZCAAeFlVYoVMM1+yEAA8LKqxQqYZr9kIAB4WVVihUwtXRsYx8WulB+sUHp+Af0HpIxSaVEQKlwj9jOuyAMZS5BtgphhD+652IR1lVG6ZgQK/yzritwAzNYzCtC+d7/Yp52jym0AklfEKfd4m2a8xlSHlMLNh2JzD//yUQ0wwTiywlOwbhmjwns8U7gcL9qRfp0obSGtrOC3eJRSlB7X7hDSyjbOFVYoVMM1+yEAA8LKqxQqYZr9kIAB4WVVihUwzX7IQADwsqrFCphqA7oISShUxLQPA5BiVKAAD+/7VQpPu2sunb1GMtRCx08CylFBWUzwgHRX3ytWHrtOA/TL4EKvnlvU04dBzrfl+j0QfXmd/hUhKf7CGWIV1CRofb+60eLARDLWN8HPmhHjXP/tvLMWpBeXsQb8xrHvWGT1dIeFt9YaOATz5EOEGL9j+Zy+hOCzuipQAEtR+ANNSx9N+roS1G+brt5ueXyoDdXS+N5SjCsSMz6liTkG5e68JSMLHrXJ9dUMoG2aIMQ4x6kxyVZ1sfwRPKohRFqN7MMPZHv+0jrPBPhKDxSFktAFR0VT80Cu/Kftx9IJaurFuTuXDO0DB09k2zSiTKvrbtW3OAOWBS2grE2flPT6S0ay97ugAokTWJpIBeX3ps8aO+AlY4645QQXL0dUkMRfPjP1M4pbz5jiCP6hPeMrVEeT5natLPflTnacT8HArM5TnNurc5dD7tB8M4Nj8oR55PHthBXD8B1xP2HttevyRRsTEsFsM1bwssYHt3W/usVpVXSDem1oyjgaY+0CV0h9ukTDFfxH+5usl/XKiR+ngQmprJD7L6kVTyDp1Pkd7zPo3oz1KJkgBv+RCtwAXoOIdxkKKrk7OuRRRZrBffuumzI+11kdYxpXOzj6gOXlUL0jbMzx6n8lsnM+YouMOSngSukJfN1py0/Tum5IdQslpwKyrjFMqsx+ussLF9NBRRrob417RyhtE1ypF/9fqE87niYpNxcElNA+Rv4ytunSzB0yDr7cnkao0p+9v3/5Rg48SRGI2RREAhZWqjJceNl0sS6hQqlTh1yDLjkTnsuKcdIxXPynClfSva5e3g13ICNUDjMkOFzmbnyquo3UT/M2n2KYHO6G8SqUFatcyb0NPkKI9OAhXEvrH/93qAvs17UX25R12OuAkNNR8CP3nGeDTx3kY4QYQX0LvuNXhVO9pLFW7/kMdI4YBarf1u0TaZCbHsWW8+k0ccfq+LiB0IBGzu7nyGoEcCrMPJ3SWcebCCCzfGOniEsw7ZgDarigJw1KJ60gFNpiInDao/p3pTrA7TG3qMNmBeV7Ctv9ONTbbk4p/rRItmeycH9xSHbw+H3K8RLZI7ilKexrG8DD1fL2pMGjcbBaHkYgFiwZeIBCh3rO9RT/CWhcC36K+6WzAs3AL0RJlmDUD0YYZx40xpH+s0OgeHaVT5qkHdFY6EscvyGvOVzUUrECA4QN8PCbVX8UhtI5LTWD1plu7YBMruqQo8B2QgsDDnIAdv4Uncby5tTiFmZkAUW82widLjRWDwJ0t6+zl1qswoNq/MC91qfj2jGX6oh66MvOHa1uvM7702XMQ8mXBdHTkJaN5wrYksWpTb370ZPTMHjRO1vho/SNA0qnbVHWhpQzRD3E2KjOCVUavkX/Scv7NLyiBm/ctpPJ4HQ7nzZV+9EDIhwQFGh0+ey1/rKXgthNnE+911kfdCorVt1C2ql1xNyuax9mxHCy4kA3VhDVu4iHQtK/wxiHP9pvVKmN3OveYWLKy+x4ZaQsH/pBeUc+LjLXAUe4K1+IZCiJXm82mGQibhQLhbRaua1YrfJCTuO2v4qTnKnsX+w88VA0eZadFhzMazFnPjmW5f3yb0MkYqSfjCM5BxHSaQPDZG2axbSrSzpYcbWGcUWW6W0jwEta8NHfjIaPeCLUnWtoZfT03rUKBwo2TpY0e0qM0J2Bd22B5J3EJohnEnzWSITk5wzGlaVmKnxdRZfzvOy5JGw/KqQQjrKj7tNIFRkFX+8N9eqUgFF49H+CwmeIqlDjRBwYmiBqr/l0yW0pZnRDAink69SmoPEsSjgQ43uyrftdmfO7DuRk2Qe4NP2YcOCQWtSdobdENqhFJ6OHlX4+vnxq0ZB++TK4VfXkmv14gjSxYt1HyaCx0/k/lVJMEikqNY14QnX9tUrJri+9cSA/mWHQdlX77bPXGggAnyBXHjqK366Z15/e6qK83g4fakG/R9aX1ZxfjeDTiWuOAREJt9geEnuxewZ0CWVV3DrUqgCuCjqTHAZsbZGOJBdqYtjaD903J+fxoF0A10nfKhlOKLYjC3SrXTtaIr02O3gZZ8N6WwM2tuhShBwD2Wu06nSqypPrnEvT4SkSOAS6IaFqwsRmYJ569XvVXT3yp9AJjGbM34i1Ob1hy1lsk5m6w348gr8kDVbl0951aqUJuATmk8AsmuO1c71l/QyPk01jhgHWtrC6PjYz5lnBV89A0kM6lF1IDrZCC3gIjsfGwxA3GTcnklbpjIDmVRthKl0q1753L4CkDXARQjbgtN1eRGD+jE2Z1cCXVQEhOUzfMD1uhO+LaAedqfxNf/XoxI1i5VXVQZW/mDHHMIE5AaYXN1XSpqODRlRXa1oC6lw5Qp8ToVRl2d5n2g5BZZ7gXS9MgmsgLliIQZSHNeH4biSGvMqj+fM+GbDyP6cZ54oiZABc3LadUo86YMEMyWub0jjpbOsd9NY79lMM3j3qPpV7TvVIZPn4rhaIOHvClNNOKuwvWf/fhQU1wZ701YA1VoE63TlEGf7UrbIGVibWFrKc8si0l+gvvJ4kgIcVsVKmgY+dgNwH3/57HUO6VLto9LbbDPjSmgw5+b7ID+Gy+E2I5hDRuG4etX01ZUjcTvssqGTqfXRcApyO4s+SngisMN25S8IZ47sgre4fZjPjmLZ8BpiOESOnaMtjKlRkWn77jR5v0sNNQ76jafBXUFk4y04RcGmqmK2BhuUH24iV7EKhiqL4hVG1j+yFKQBF7RvXCBPmlOQfdnv2qz+EIlr2RHP02Mewe+sha5aXa370lESe+F81Yn1AF7WiNWUenpATK4MXPCdUvUwUXOnrU5EtT5urCgTdZWpO4X0OMVDt8ejvzfq22IPEgIDcEPPj1OVwP3EDWtHHaWbBE17tQk/vsOo0H0uSyOQ25JBTPcnqIwCIa8qUEUMhJswe0cXUbXjw0fX+LoN7Mn9b/NgeDNlHWZ+vejoc9Qcemn+dRioXU8W5JCL9og16nAc9cpSFWZ+m7miIbfaNTCAkb5lOeyn+w5aPi4XsdmKEmG3PhVVpBeyF4St2hItXnzbbvgkgNj9WLYzRyDz2W63D+v7fo+mFi/vGvCrnAAHOVxWr9L/U36rQJNE49lyDmKXvORuM/elJn1Fy/LgfyiJJtqyCyCyCyCyCyCyCyCyCyCyCyCwCwUVaFGLTxTZXCD+icRxuyGGyCPq097ebwcf69uiflr8kC8pAbuAqNwVs6GP1tpjuNERqlGjK2u/4ahuds/DDRASqa/L/GLm6uaEnvVn/a+NcEzgUOAUrTA99BRGiTvhbFVIoFLDT/Se8nzxUlFOLE8biKolTzhiNb03TrGensM7ciJKjaXYQqQBQbWp9B4TY1EMbB6HeWOvmzCkvd6lN/zWAVH9A58ou+0UDb6pdgbXpFIa81PgWK3Bb528+7Bdr+G5siEqHT1UWnwNvtQmLlF9Q5TSY/X+RLMF3Q9DIi182xA80TXeIRBB5XEL/HrDsDHiQf89472aoeII4SZhL0zaSjW1h/gufHOa/EkHj2UWHuMlwwnYILZFGTsXeBaAKK5YscDT8S6FxExWmbPMCnL0/1yZS+XWEoQlM+Tnf+j2UtWJlCz7Td+yk/Gq32yswIeXFBovoJ9V0L6bzGR9m87GQ7scFdkLaX77T/xUAK6riRDcal1NvkyUdTQ3gAYRAAiis4FGG0c0B5DlKDYoua/tHUzzXN+AcHcrlC7rqNp3JNTbdRpFVXopNXo+1c7/WUbZGJJ/wEGW2d7EEZkLWa6z3wammAU6UG63Rujvv5ojjJAnK8bovnr6MOvtPNdpFSIm1ydjLmHcDv6+thx3xjQ3Lo/6DF53qnNbQPG+8G6E5EHRA2LL6xXbsAuTBgW+rcV4YGb0hGp01z6pf8pAbOknUfAm5WM/Fz4l/QcEGmXeADhbhkxzshKVkX7jMDvQOrwL0gFFgf6U1LNcQVbHnDSEd5HKdSwXjOZq19xvEneHMHZ4uctGBaI8vLca1hdsKb+A60NU+LskBLQh6HgNKqjcZo8YVazDVBgJPdvpjAE938TUqZowBVYikgTVT2bdiDDP2yBIpjj1/3sXPNXACRNlhVOCa87J5t2Pie+1TYcjXAGryLGl5/8ldr6nB36QOm4A79R3L6fm2+YllQITtPPxlEnRF/EgDy9lhtOwkb+z6ldXsjhR7QJ6bgBGyK0sevaGCzq38LQqkRt6v2CGagB33q1x8py5Z/lvjVz9qHzbyJVDrL2BB6IUCOrwucsSID+0Z7RjN4fuGDB7GEK27sN53JbSyae74Es5DN+pFL9VCchmpdp0edpIOYMkSpoJWCwgcYwORj0xO4F96s94/+UwwQB7VzsMas54S5uxiU6f7Tv7V2mle96iFP3n4a4g5s8XEYmIP2sHQz+CcnNF7Kl92wGWHcfyfSXV0kEJIZv3s/eW6Z+tovgIGW+BpOILvtoLblJ7TooL70Hh9teCZtEfUnopwkVx1dBlH3iLUQV+SKBEMlrgWlIpRuyAGfRHLG2qGcv/Jdp5v3YQDvVQC660Y1FUB0MELeYqYlY5zrU7ATzAvb14E6LbuFaSfRrsJ2x1zMnMitz86CvWo9ZACsRITOgMfM/3YLq2t49zUzA1afaXdHwFla0q04OQqamzqEiZ1kf5x9SCFVr3ci806lwSDRyNzG42gpOe9LHfnjlDJsZ/93c3WAwpqBofIvGkw9fmjmQP9DNUY0fsLoHxaTBfugoOGj87SheH2q1hamI1Y4OjYzE7WDtcFekVvv2iWtEhRJbQfEEQUHTmn8O1xyb5LW0oV+Zxghyk5WHkZ2zCAkohX3ndoKkZ2N5SmboIo24ET9PYBrmQSbbDGwFDGTOK2HpJgaXdG7UdQ9XKuvgQMUSEgBmR9YEEv5uf1Bo7FEE7nMN4I7DxKmmFR4aV8gv4p+CVLfkdy0cDKZa5WeoRK6LtkGsMMJgAAFguepE200M+F3gG84uQPCUg6Wt88wcr3abHHXNzHMRNZ5BEYAAAAAAL1rAABoMNWBFmlQwkZNGgvaHdvVIqDmgAfEnnonTbVs86U61/eJEoWTBDEpV+htCzjT6agkn70mv9vhCZHI+gsP3sxyCuTHwcSnvxoaCFtHy96sAgCQlUC7N7LP4wNygMwh/JmeHOLUjaVCalRuYGCrJhgjwIK4zgAAGIAKGLRZLBLvUTAlr+wK8KQuA4POV047cSrkStWujPDzkOmpjAAAAAy6DbJJd5ZttBRbOZHA/rHk+rxT81XyzFWGQ6UN338J1GgooGZR67YX1XnIcmAghMxGuSxdI3iSZnsJCIyr+1atV/atV/OeWdKSd/oFglYjLKMLh8yerPpQHaVJ4pd/EfQFpV4EJp7CADiW6AVXCR/xVLna1f5El3y3PeYaarzashjTOLAfi9DCqRPMccHNia0OH6lZ7nmWiniPZBrhMfRsulCYFGA4/T/nVRHJdpyk63VA3ulxPhzLDW/DMoRzHGt3oMUWgTQz93siL+GBsUtI/WRHbZ0h9duvbdNmhYc+jZPp9JAwpGuoIy7aJN//gV6YIvGiGY5/R+hFEvBlLoWfaAoC44/vEI1QLbq9VG2yINAWtcdtEMEh5ZWB8k7v3qX8tRNcaL0wFAVXOJvUjK5H+PAxPQu5n04apfvB2EmRdVgpO7aQQAMnKCoSG3TNc0L3oQeuYVqBc4oMgNZq4kKegA1LVSoQ9dmBk7YuaYSQbRu5px1Do8i0cRQlW6ENtABp2GZRGOGkJWyn3B1xYFUAm//BuYL7fuPudLiBxZhuicOF7owK+a9IuX+vL6FvUh4dkxf+q2aMJi17sfxswDUB/DsbQTpU2eypBapXcfmEBZuCL5Ehi+ssojVaHkmAQZPnN9aqxtI2PS2LZExmzk3bXmRJDqEgAE7eJH6+yoA/irnkbgWWOKOuAhLXDlF3uOSRf5eWDaQNai+sI/Ezs0BDxT6qYVgq3fyI6ojo4A42XcqIeef6AvAqCUdcHsH4m+uky7HL+WObXVNp5ZqCtzvN+nthwM6Qpd5KVUzaIZlj1pOnCIy6k4wVyzJf0109KcCuRsNGGBDSUthF5DoV3yMHg4pyKVC4/DDE1FbYK6oVchMOi0PlP3q5/oET4feaHVDHlHVbly7QrHRnLYDzCNYUy3xhSxWfX+4JpQfFlcYrcCFMMVDOqFnwFwEsWO/jrCcJl5tbn6mHsN9NNmR+q+glca02rojEYzRpy+6oC/jwoMyI64M8gdbww9mFY/6E3v59OsxfQIP68NEIlycDxLxPzV6RafEnS/skHLbFaJ7Q9QBWqZXruGmupEVQaiQDZ6puV3bjyLgQELFxM6294k/dnH8AyKHTM3zeRQF2nYegbVRKqoUlDHBypUTQHD2Pi0JiWoUPKS6TzuRAr6gZijCNjOYjcn3LKUWV+VDAVdI4biD+CQRcgXs3zYARF5lFQvUF5uxXIEe3GbkM07BxWkXjvTNWbFfVTx942kuYTm+WXjkN7qPgZOjusOUxw3C2uOP/xo02aa37OELy6sCa+YvI8KzQsmsb5ql9DA5zoo/WJLtQeLHlqVIlz3TAZBFOdoN+qKfvCpKzBxghWQgLh+5YY3kqXPxjO6iJNRqqTeRKc63sJ8EtW8X+/69CujBr77dwN907eHil599AEwEaNm4aNRGkCM+NciSx66Zgqf3T2UhYEA2JGTipTL8nRjBV2KrypHI8RHHAbmlbhwQB31vc3ZcySDDqVpqNhhY3DC03FTgSxjc/0LG582nAw3oNAqdHHUa3TTTrldqLQK+Cz3m+pPFhCqb7yw2qczbvDVAIA5g1fhpV4eeSKthq75wS/219qGxWgGugwVFyB+TAdAmbpi+XoQEeJRZSYT7ewgtwb47nhsmh/j1KFqw8cdzAyFxpQZKC3XYsW+HzpcTntbz7XQxZvan1WuoYJUm7NYFRZD7PMxmp1czd5Z+Dwu0TlPsiAeGtJGvx+4vKS2nYvJBjvZfRU/osV2Zes5uEQvO4NQARRtRO/qcEqSw8LtkEYjHktX9Q0peDns5Dg3F8EW8vmnA0kIVkN1zV0pYbe5BHkQX2Is5LASwOCeDmy3bHCPpMHnxJuuMd6h/EpH7JywuSG8zBFTMWkb9GhDnJqUF4C9ioayx505YC/zquCjX/7xHyzJzGPynb7+V43qPV4UpKXhUJyY9WFvEgWDjlRfU7lQLlIpNTThmrcdRvrAjWlcG5CDUsn400hrXWv+ewyhb2QIpbWWZrYBNUgC7bcmEfdD3blMo7Biuk/WXOBZj+MIh5qAgkfV0wELpPDCW+iUaZrG4T2Exd+ogIebkN2ZJHuYAMIhvfe7z0GoOAsUf20f7c7CWfJTSgnMnTH2x6+EJOKk0fugmKY4jCV3GUhP8DacD2jYAQGDrM1CyZi3bwwvK2CNKiv1X9KvSdnTXjojz/ud/1oc+nIMhfr2VaeXwBeMZzUybp6hL29McBpy6HvykBHJ1Wf0+4bHrcww3v1xmVsjJ+lWM1lYfhnvZ3925Ip7+n0tPtT+szBdS/G9fZa3xYZDWirVAr2fFU4UKi4DSnzV5SwcqTPOrIXsv7YJXMj1y2k+QLIM+8vfA/M/SXUVleY4yrW5pUHbuwKMJVZQhw6uf/FeXMBxmpLo56U1QmcxjTC5o5/Qdu0m8SEeo7tUKCRqetHIjyjsVryoS2AbgORdaV9zLNau4y7IwW93Q/kfoSL3Ew9cu0mn4Z2webBELA2jj3AaJYcN/BgD9EQfRgLWwlo5FSfZRe2w0SS1aa9GGNjoPZJkE9lpeBC3OUavyzF39aKhQllBusBLFRNq3Rk16TSNwsDN859DbcFKzJDzTvWS9KvEyDazHtzBrLklgYXx5zU3p8vl/WfX+Nnd1ENympCekrsFn7o2/pCk2a7WbcRBPUSGAc/esuDFOKq+0oVeThsOQpWy/GY6oZSkJ9OgbQAUf7RkjkivW9p2LEgG8PuRCuTIzn4xObnN9G8FMRgD4enPYkUz0S0nw/za5SnujEV8SGJPX7MSUjqqwuwz95Ugr30kV5QVkC4fs2nnJdUYkO1aTOHRQ3PYqWkDTqgx+4g2IMlZhw2uAXz0X/DUo2eIp477p99jNmhx/D3x1R9j1tpL8oLFTLTbZTYI3Q03s499tUVrwyVJ1O6Tm73Zn0vz8zNPm9lJFFtSfwLILXaZSGOV5vg7g7P4ooO61rm017Yv9sTdEI1ogwwhdjvE5hsVCuZ3tweAcbPQkYkldny5aTLjYVDQcoK9lzv7xBt1aZG/2985XrXeTZheIpQAI/CfQDIV7H2HqYDTbl6sJM5qJyFCuBjzzFLmx1OdOV2o43hcUchyzGj5D8X6WIvaRJXITdN5rqA+hbUW578qWScwVrLayHg9BOjZQNsioG/e/IpXSdOd7dWydSwBqf4YN7UOBu5/bqKl2bgC0IWh7nt+aHLJPHSHL/x0GCCPbXiaR9GKSTKzmgbbr6vNRqy6EJcONfYH006Zyuc26z4lrKlRsMHltbR4R7VPyBem40pCbYq1hlMx52z7njJW6I8b3kotglC+K7mtbWa143GPf318rW+RZMHvlBRMP8o7HXSaqFg1UisxHtwb0OCLAdwecHfusI6xNs5vFLjLuNJfgTGmF+SFM7ZteyD5JUpCrjKdD7pFD8zy7C0yDv8z9NhT7t28o9DU03qyGP+sMtAUahdZIqkvZnKqM6cYWVGI6Yx8mcRWi4Y3WqYaxHnPlo0j3nLuO6oGbowNHeXY4Nnr/9lcTwSuhug9iF+vt2EVHHpvFjDcuY8WHOe3v6UGN4/DV+uWEYPwVjZpRHkCtaSg+XfMK3iahr5/1IhEqGqqXaZsLkfYCHKVks0xpAmqngpavOwzs78Xy56nguwQ7KUqZzG+KQ13OqD3VjKeRQVEqLTDUqko9M7A612Db3lGAxD0dCxLO7LwXmlLB76VX8pXg9aTV3ZextfcxqwPjrWu1hwooquy9Cqy3OTQPcI7CsXBfXDXq3AF1LTkKNjF1jFE21T2MDIm2m/lWY88sTRw6LyF0wJC17poRLO1vA3EbkEI4NIZcjYlOWrPKXlME37sEuNmkoELuC7Pi/qBC9T8xFgikLVZpYezfuDtbtPRGTPHTO3c8YdUnTN3zFr2TT5jgHkvPLM1CjzdMyvNXmsPvRSnCj5nykr339DQ2dx4rKxcFb/KnlU8kMSLfNgSfAqey0q2P+yOFxNkrjqk24iRacXFSIaLskZQV0XsS5SJsJd0DjK8FzfnlSwcza5ncqdBvpXjZ8Yxx3irqS8sl+S48qm9UGxG4fHAYqmWuAKYm2/xiqtjwVyeooZ5GudksmhzBHQb4fC1FMBSfaDm/L+29istXMsHvgVU1CsB30laT2B3u7Hsx8zKBg8yfkJc1vBuLSuNaXf2fPZIYCTw2+z7/1bxg9NQl9eynCAailemEHO75zkwiqhfXsrB0qXN3Sm+AxS4VDSPHE2BaTtXKcZSRGdrcngb9c1MF3J4HN2mqXOauLg4n9QEqjB4nGSEb7Kr+kKtdyEHNPuAeVKu6Ls8oG+slv9fxHL4dMLz2bcRJNJPSMbfEjL0xXfSFHjUb+M2gqN9QzGN89lWkXEZS43+J6YAsthanNS4SoO6itMwFmfFzRCaCG+aD/rfub6AwBTxFMqR7r8iTQmjZPEVasgk2Flg59AVAw1xcFSbro1oB01GzETdoC0DWgsnFt5glPLFPB6hp5W2pMLFg7rsmmnS/TH/h8dFlHXnzn2I5gLk18pqSipd93Hov0Ho+V0YHS+2sxTkkHYpPxQ00YBWxtMlxlPT1YK62sIPrV5kH8EzLZr1/UhudIRc9sezeWiqF0pS9QcOIIiuoZnuyVqVBx341VNr9UYnfUljUWQ6VhxMEcazkc51Efx3ER+HSQv9dLossYGCOzC64EtSr9KgfKaUJq/RgAA3FPTkfKkuqtBtB2CJFdAQ1bIulQZFHA3MFunS9+8WWx6L1wPwWFBv777bX/6/opVnvsZidR1Fiwpk1AVmHi8Nbzl/Ntmi6bwsHOHg+C1AMxIxWe2i9Blxr7UF4FQ08pm/gQ1f8RYCRAF1Y0bdQLFDWgAYhDz+gKFw1w6hRYkqntgveV/hVAikfxgiVIrXHTUkmAulVGo2qvbaNzjSCPQbL815U9bQf+M0fRTRUETDZWPfu+b13Z1R5susfgVJzqMRXgFzxfRrdw7ogO8F/y2n6YubbBLcn/8Sb0+hJJPjCHGWGjV2Q7bAVdLf9rmOD1yfHxwKlu2Cemus8cEEap/pG/GbpJL2MD8yayaipEoXNnGNILXD+eLfMO0Kp+15Ay2o1h2VbsYSgD6Clh7Su3a4iCwD05hcx+hVQRVWObDefWdOhfQYk+b/vvgidGOCzf7px70MTBay9G+RUheB0Wi7RTm30TbLyqDYw/0W0LJzSJ9LiME65e2QK2s3aNtZGjWeFSYLu3HlgA+mOB/msNsts57miOoCaJwcHP6cdgT8LiAsszuRmXe5u9r5PoqP26w+dLx7HUOYSdaURV0BzsaO9pG70Cz/qL2QgPqeT5cBsP8vgz/rzPrmkq+yhtHNKWs3klZrfn/dwJ6yJ92cLmtAsCoeFUit8eogjO7yu5V+mS6Jq6GWWoIMqA1Y63sJzWaBd8O4yu/Jmk673xuLXI8wPzpc8k7elxj03KBU8JBNs/bOt42ReulxX+Cem01xY3Sd09zrX6U2SZLMUNSwPpA3ZctyHnEquOE4JlLJGz2iromlDbP/iTusCW9wR9ijl8AGjcK1ZabbKDYn5fsUejnF8S1Bc1OOy7lYKrq18X23Pfu0VBCIX/bdK1owKvZjolPEpQI42sRvNTdGC94oBo/k6ZpmtP0GE8y57Q4Kou8xW5UXEplztnGp0bEhKcdI6J6wk5Z6SBDSCqlBVtaEw7R1475ugb+Qp+1reRzLrbJc6B0gRbvimevWNp7f8x8jJI9moWkbfLcTubgz8BsYNGoDLWKaM/yYv/oIdgxkp/cgT4lUP2QebVPtkMxz373FTQmXHhV+KWjvWYtT2nG0k2/IR24RPJPoL/evVTtx0nJ/5/XKo1qbxaehYGRl+hy7Pn96k0L5E+NFXemMgUfgDzBjltOUXmwvkoQf5hsqbzytX+7vEAqiJlZLby3FD5DO1ljLYXfs0vo1t87+yxpBbSjrYTu3qh1aJ6mNZ5qDsMV6Nlk8Y2h+SBw2zc0hWusa35F84oxWrSiWpkcUmIXxyIGoF6rm+kXyi0m596UpoIxWBRQlLfsHL/eAxBj3pw3cCqTXIjN5g5A1JTwVudltkLbpDXDSTUSrG2UwnQ3pv5EFYBBNkwdFtCgaldI0YV6jUrOEFdAwJkC3g5NibS8/2p16GCaWe6pW6+TR5Y63tjdrDDmv4OfyhDqemPnihRYdEi1DVEZyrc8U/xlOiG8SE/3LemquTfN7mnEF9MFDx92ws66z093I+xxSzxDcPIUWGjBTVHNKZWSxdIb0iZwc7ZqWM0Sv10RvbDComIFDi83mWnoY3UvFPSnjkxtt+Dn2DvcFqQHEX0TsxBliDf7jjxGY5VMkZPtsvivYo+O5TITkaZijixMZ5a+LJCvEyffOWrtVM4aF6yMMb3YSQXVDnuW9N4aqGmD6Agln8Z2UvEt4lhnzKk266NywHTC3f/eZd0j8JaccLLJco9ITAgWzKt7ZEZgMV98538690zmBA4d6Acepkm6zp3zMl6QP8minx0FLU6CM044NJ07PNoug7Y5PGYRh4C/KVsEJ7hvNnPHqjneTebcb6p4QDe7oRY+n0CHNf25mdoeD+qTkuGoBwgdNn3DSOOokNNsreBElzYxJw/UOQmwmGH8vGxXjIj1CnGPnFa1TF+Pkc1kGT03LssstZvth8l6+TDXdhr26VBv61NQ5vBLKgQ0Zt/wAbKkuoxaVbPOcD0cGmX/y5WiQIavrKneY84kzqR/uugm3KDp9ffnX/aKaGfjx2QC0wij56mtcBmrZFLMXO2KdK9SsWnEbAmAF+B7tJ7Qc2XxVWwMnhjuzGLui9qrZXdoUt16hSPVLPylkgolen7pzA9sDuFR+lB+HY6OAwkmDEtT2jD36m55iLma5Vqc1vlBPBEtwvuAa+h3KmuP30B++yO4ZJ2nfHIPCgrNVQ54w6u54alr2UmqSdPe6ijFoyzEOEFZWlmPNeCfhgDJbCjP6vPhaU7F9ClmO4yXy2Ia9a1GeSu2py+WfMQHUP1ZbnLVlEG1kusZnbj0Mw9gGXp/XM8A3bNwC6CPTBuBdM/sIr1XdfYIRshGlKxJTNz3d1WSDdGqcZJH8u8ulFoeBNmF3zDiNMpYL2Wad2Fp9T8wQoiZGXtUMIuqXnUy9BAntica9iyjHun2ZFYfcAL6X8WDs4e5IIpHmC2chmP6ZC1QDXsEsKQ0H/dUvsRkulWWmrzcDgM+hMZuxRtigZQAAewnLC4tI4tO/MBiWN3wzUSyZ1Vgn6h7+hm4C9vVtH2p6QcKXxOKXsUWW818sT6Phqe1aYSclw6oe8X21Txx89A/NMz0FmIG0b9jvcwKI7Wr3sYbxCd+Rp7/m4CnZaJaiqDRW2gYXs0CtEo0X7p2bqysNjR2OjuDgZBxIWEKNDPOYdFX3Tdi/DxWmz9f9bFXjuFenzEMntXsmT9Zvx1oaxEoloL3QIAczB7T+JPOY3/KPG1Z/3ZFRbl/9cDhF1Ju/lymv4TcdBgez4wTdpLztzDL8WggCxZrWTQSO91fVCJJkKttUimV+9PwIMGDWcQDtTd+jWLa0p4SUhJAO+TsEz8LHVecWhhaGg1QAft0qEdDoy6YorgimiHhL/+6H+9+f/mY+naXYIdgRltkK1m9OefYmmHmZ9hRatzjQnmSc1e6HlbqnQ3k2dKv/AFQtCZVwibmxXmArP93EmfLayZ3jvR7IHLp0Q31zUp/h0aixElGfY7ng/hJViO97Z/iUmvqilwItllsQCopsErlH0oB1SN1IdHpBV0x9+Y/fNLSme5kfKWOovjvQSApHhFTqPfFa+9lgz6qyxmzPPR5IRTyCQxhakNLWy+2YsLmuT+rhCXHIF20rONB5uf2u09tYFwvxqdq+Usz17drg4Y2Qs5ZFih67bLXgbgBEyacfjGoMuzZj29VUCSuqgO6FlOtjiSefm3y2Vs4U3qd0pbjgdeEGpppl7TbcpDSnNCN554rSNfTvEMB1pXtI6YRkNLe4s9IZwmZU1eaXJLTm20H4XqiRQuTIOn4M+qVCoqWEQgQIiixbHL/s4HGCSD6v1X1Kig8agig3e+dL26Uf5lUg/CaFuqy4rai+Refbng0fOZ6ne0R6vVkxzF2vJgNurQmRGrIstwqIC6eeSmYazlzL9KqkBqVwDflAAqxLbjQtpg1G1DeHhkLHyQSuPz/UOgNp25MlORAS/4ASce/s11aBeZ0RECiR4WGg5qcqGXWdLR23/RH/zCZvLsGVxodeJzowzyqC2XY0Fj6odUFEX99375G4ABxKn00UoNWsEuwoeQlPx56Uh+v1mJ+0NvjCWlilbmCWv66ez6AfMr8urt2oPmo6l/0tf109n0A+ZX5M/KU9hV7SX4yiyoQphZjScheX4hAZ7K0MI/exry7Ug634IrYX5G3BDBoQiWMOI9fZFI+SzBMKJ/cpmaqG58RzxaTFXvC9q2pMl33RsRgu1yaRjwt1O3JSr5nNnDTqLQwZEixWRnYjqL74EAT4bDm2arkoPJYAu1fhiPPe/a9MasFpm1ngyap8r1DwlX0+j11+u0VeLoCbPm31mWBeC70gzevHHZZ7eQ8BfnMzbaFB1aLoZgwsg/5GspnEnjYd7vu8hYq9h58FXpen1coosLs1zrKdG1nsmrZIkYECZElCI7WYNTNLuDtg50dLNiCjzxbfJrWj9dQSaQ9B4xHtrtMS/bBSD4jGkeDdfR59A/2les2AHIn8NCnx+HgxNdH9x5JsgDjsGih3KAxxp+tQ8X51NYRnOcoCMB1O1fqA2pAblBmW+7gPV+8gkPYtrbzL1ORAeXn5XOmi3gPlpmKd1tfBcV7OwGCkfaplSjVAHdwEkND2Vk+RDP3gIfcZB473iedhXbKePKmcfAzotU2Iip2zuQyXhWuBRgi+TL5zjked8taX8CZdKw2JOF70OWhA/SYweoAsOjPQk1++OLvNHACG6glrlwj0l+7EL4RBaLiT/4KYviCuJdvt6ZyiMx1e0KfurT/RmAPDGTMtBiWmPRownIAQ/LYzJrY+7T5Jj+huIHurqL+xiP9iTaqSb0N5wT4Qa9EwzsuykMk2ak7R9YzMXutyP3cDV3ZGOgSF8o3L/VaCJkVYU9VUPIEwJ1zlId0GGNoVpJPKNlHGvEC/74Uuo32t+/NeV0gE9kD3EfKWQl/sTSXfNGKym5OYXM/B9eQsePSY2zakT9LCZCS5YiW5P2RXM0fNjksw5PnBF1k2gZ+A9XcKtfUoKxFKqkErpaJZXj8HzaOmB6aTaspPEJ36EJLLW5KLed0o7woeHfj0WlDRj5ZN05Bwo5Zj1pJjPca06a4a/69SJxR2EontZ4FAH+cxoReGtSC2PCIGhtshusLkLqnOKeN6cQmabirZPJU2PJK9zeNvYYDMYTFa/WcWbaN1Nsncc39FAtTE+l1OZ+4hKiLq5CLIuOqbq37+zROQuyySimLopnYlptxEcWYF1TMgMIlUom9Z4XgC+d+Ysw4nkmUC8Zqy2DNq7l4jFgwqiWeSA+XHnBfWMO0RSdC+gmNGJJK3ndabTh47wElH2qmRCFzPH8N4qmEWtLs+Z2NXd94dDkM19kAum/A948NcRWqgXnwDJT8LgatALg2IT9R60NZoMUrNps/Dxlmwnve5Q+ro/zKvTCekaKJ8ohXXqNlBQolEQ+HClu6SEyb5j+sp5nuIfb/Q7fZvQ7THb7N6HaY7fWhfk131PWxr5HmmyCES73D5WcX19OIP2rVtz6xhABZ/3zVutYJBEFYBYN9ZtiFe82WWQsnFfrIbSc79ce40eBfhUDX0dwJjEHoB/Mb5kjMCjR9lu5Q6EzmuvLh9FC71WbcXeqy+H4lDsaSIYkl7I9mBSmKnGkkjiCgavQ6FrjwhwV4MusoJM2NrCrMb2MqBmB825fnO3PmWvQJsAy1/nOWZMtQAIBIz6fLJ9CTPgz+sbaeE1LknhNTdhqKLKzTl7XBLxKRB43G/sYigRpWXPPtnr+gCnAkj3qvd9tFkUdSfrBYd2/L1q3gAc3zUYJuUeZqy5NJmdyuYKMKExHO61Gk4aZgAJWLQNkAdNp5LGUk7b9NxrwX34jYB8heT2d8qg+un/PTEOMx51ZEfSgdlZGxsFgSJtaAsPExOTAC4s7On9rE5iD450ms94bZuWKgo0+lxfG3F2LmJ2nkXd+fTLFzNSgCdIedFvzOaPAaR6M9K2pHYl/ZpOquksRU8AQCX2+NilcpmGC6kALdhm4s7roFpf4sFCDQpP7kfGvu+rWHVWAmCtmvGCGgHOPGvo9kKPqhWCb8/wrhAUDPGS2/psXdZOsdXgaczhnCU/aFxORQqhobrohoV8lYf7SIAaASgypyF90daldsFqcCERw8hST/96cehqLILWEv8yFKo9+b3JA3UnScEU0/NHmWprNMsu56g0vNMvIYKSobt5G0y16+j09ibWU7RKC3Ktxum0IoezkunqiJeRYuHFWl1A1Dyh9VfxTbFPo4JT9n9xVeUvWvyefRmcyHkqQ1HMfDuijGfx0BzphEbEfoX7IWD/yp8QaJks+IPd57y0/Mw0+MjojRQ8h1bUe/DWFO5mucT5LYIoyjWrkX8PZjVqIwjG05O0NNWwrXzPePpwRH4x+qsu0U9Zsw9Exsl0FELwIwqN8a5klxl8x2+MowjKtxwZB/2A85OFA/poDQP5Y3N05xASGSX4JmQ4+RPDP+grc+o/1jM1s7t4PVWahnU2XkD7an9NKf9KHH96wwOP3f7GQ9cOwx8lZVsI3kaxC6k7mtLHdTxqdAlu+cijpKa7p1qWEzGv4BNsu+q8FhIyX079lHn8x2lrcgZvU9VLCGjXa2wyOuMIoNFpOINpoO9DcaGa2vioWpOv4jX++/8UPA9NigHaXExzVxOPclyp4mUgAhdM87R4dRWS+RpMjeHLmRbFmKvf7OZkfJABB1XsErjSO4CpHULb8ICC+TRQh2CAsOanLkZHybgqzrbp0MLexg3lcGCVId0ASKdt06RbJ0gA+yuT3fPKPokQE2FczClJ7yAzwPxRYC4wbdUUdeVUjgP8MONilhhTprPv/UBIuiAl0OvMIZ0+O02vHCo9oNx6ERvj1L+vDBPnMt0PGCkvQx6T+UdJTMKO+Bb6nYd9Zn76StXhebDGw8ILmvsR6CY31ZkYaJUQ4d7QW21Cnx5OqthoXZUtExtYlL06cRbTQPielNy7NTmVQANV7vnSBsP2miTyWmyU9S0NDG3/QSIV+0sIPXEl/DmyJpe1IzjU1DLK391DqrrzVySK6EhIdpPTOMuJ+b229mUsev+APM17XHpdipb1fXgMkHI8j7ObxWT3K64gkgZaZIX1hsWpX5gk/UO5naEzF9o3oR7N/Bg5GHwGpYb4323yiB1ywAv4udfUWAa+1ooz3UWKJoGMOa0l+zxw4U7EgpIt259yRznMQMEdMqbLu+VqIv9RewTBchg+pTK1E6k04AUlMKLBNT3CGK5WXp+KtopYSkfDP1/9poqgKXbXXrKWXKZOo5bDPQjY5opl2HzCCtCzWT26ZAPA5Lq6TjoWPS0VCbJg+OmeHDzDx6Vk31dPHPvWsI04xK/PlmPcodaYF8QrPnk1NmsGuigi/Qp9HvL8KVpjZQTvJpBWiq+wem3nU0sHTRF8V/DCKAObA+vdYaWLvcAJdWtMhkZH0KmFh9FEKpadDtz3p78TnPEwKAAREk+QnjxIPxH5GdSopf8dWacXY25HeJLtsedBF6pme4cfFW6XwDonyNy+vVccZK0gAvMvCfX23JQAPz9zLVUv770tGGAGH7fq7IivfNDGeJJ6FTs4AhmK4cBI6pH6rioTi4HX343CKh7guVJywBSR7U5KxJCZvzhHYnuAVKQbubGvG04nbWpJfdi7P95vBzw5B+k7cqIxMZcYF+Yxnt8yBh+fhyT5EnCYzGzaXCsfV52bfIgoqj1FEAdUSTAEV662MrRAHfwGw1afSxekmmxMUwN6MX5+muIaNmdYRKqPMoedJHH9Gt39pqqAuGAyMRAqRx9zWEVHJyWuXRJ9lG6KKyHnfMFJ80FtaZRoRtSqw4Jtc68yvoSmei+FHZsDmt+g5Xq2A5EkAKSO56gVzPWbEJ0DzA/Ypg0PgKeIMMsyyuL8glL93DSvUkEzormbcPeDV/33MmsHScRiZ3nyRdI4XH5dyaczK/p+4/pXavsOvdskecTayA6QDBdSwB+K2DjFyln4fevVDp9RSa4x8PiJ+LlIP3k+GBVFvs8jwE7L7eBIOC+IMFw5yVaQCGUAY4M4NAdh9URQXLD0sAzEaw5pRzJfrn/3cofr/uLFqAoj7E/7UlTxgbgh8nXBWDxg8bdRX54Kml4S5wwGensMMdUiSIXov4fB8KdA7emUxM1oE76x/LiabZ6qV3sYDYF8ne38jYS1raXIRS5NEiRwuYvG7r9UeUyENBZNGfG+1BVXpV7Kg7hklEHdFEpyBWhMBwGfrKFnPtZeGU4zO+VSrs31BGym5nf34JwYr3jVFpEKHsN1JLjA9MXQO+HoPf3uQ/mZge2FIdowKjpEbMnrw5hJvgmN71IinnIV6G11Wm179/7Cp0aYHbhwSyfManlNQKHOekqkHEEc/Yn2Z/bKAzSv8cSMOTZuoNujlly+65H2133WLSsX+4ywg10E+VDa6VQnJ700/UcWRSsJuFQapnSFiZXlf+nXAqOfoALLy0FBHsftCzi86miWyY1eqhP3IEAfhTZ9bMG9zs6Y1iQ9acBUaNjuXOBnED4cXYr7BnJPsIvb7qeJQjmBW86AVfyWX3oFibTV+Y1itzWASsIartmk86xiY24l0ZSs0TfWGgr6W2nWQvcDyz+CYDFryVjXzXNYfWCGBqtDXFpOs/hvLR5BEojEAjTECbWtW40+705mG11WbC6YHnxrYnaOnNc9JvIw9HSP2NSzUJhzhTjXp/3QXmC5pbgB0es1Ucq76GqmzcXkeB8JKjPONQ05PoW+IYXjGmWJ0qmov3NdnphM26pUU63lO2/I9EFuBK+lpDEEilsAfu5oANtVupOJemKftlyNXFLEluJt93cCoPRk2EItD+ueSgBBCQ8OuVQIrBOs1DM///rxYNdWlDnrjbZTeG5dSIeAZLgWol2+MntN3qrsZEFiUK8/5NAWSmljc3nrSvzZzdng8h+gzgVSXuAU9SC5dgNXp2eDsxmG9epj/PymUSlMqS5ewTTej3Xd7x+1YZeEPY1j+PuNSjVFEtqdFI/YmBdCZeaTS0npOE04QOV+59/2XaDPxCleUlqM+aigR+xDKh88ADX6rz6gBKXqDx2KF5FeywG5cs0FNhgGSbWeALFK3kYhkHXCoBmuKfeAAov7cMEAPiInfkDQgIyagOKpA86V+4OJzzIfEKtAOxyILYy3jJGI8+fiPUw7sCJl0MKx79ZF59hb4f7yEHm/N9tUNyUh0npyzIgSNL2ANOsv/OT31P/6X+lagGqgoAEdq7kztLR7Gh6xrDDdjQWH18MypKc6wppVS8JCTZuzxUPKWRjnGtigj56NzM4acX65LV831lIEQXiJKSXfO2F/agbEvs72OT8HSnGXAdyzWAUGTVQsjlWE36MT+9078wqUz5MVg3w7MDwsTx9vOh3q4HZdFfP0NdHpLr0mMYUJsBm7twTS9D/ntbus7PCfdE1UzoVi2bCE6H45ENsDQhftvj1lNYinNOl9lFMV/J33A1D2W4HuoqOa8yFNpaX03tid3VJ+GhBz9HENHr9tJsD4xInzib53kDvZPdubOZfaZRRsGd5UceykyaRKOD9JxM1gdFsmqKjjR+azBzqYyPZNjN9rJhvFuk0hBZbsc5e/kTBDkbBTxbAt3T0EwM52AcDiU6Unh+smF56BaGmW/Rtkm3XN6Zw7FBXTFPJNIOd+mkkeC5VulUI5HX2FOZxy3INAlKU0ITVPQF3zu0YEwgNbR88YDnVdFzBKwDDHHL6FbkLvT8DGx8Kmid0qMjnf2yHDhCTaNhC9SFbbEnJ7O5Us23pYFEvddt1+Zdh4wScLHg0fgnXh3DhANtwEP5AKzqpIwTteiD9W0NDucEiTMIg2zWKQUzJBxzMZO83jAhw6bSX0lcC2ZnvyosHXekaSYgkyGmeYMN3pi3OCUl7elJtydDsxcr5DXT/+2QV6CMaDq4QLV34xDT6qHKd4asVzNueOlOEcN1F+F6+XIhXakhYVg+aOU8rbvxz+6YF/8n9/eMSwTO3zgrmG3YyZbEghorftPAF1yAzCN7IYU5gFbT27+ICY4LwybhHYjPVzprqdyG9HUgPqazongzMqYrXZO1QIjU9zKATgmpDSL1LIDlvw4lstYci7KtJiht7ntMzbJECAzwp7Yo+xBMYd7kPuQ8fu16895znghP8FahXHdEN8RHP1RWp6HMu83szVoo/fpyTWx3ZWBPlXwGGWXLJaX/yDscDk8ei5zAu+wn3EcPqY5r88sWCtLnLSICKN1JevLxNA/Nr6XU16Y/r50AuKBjDXS6JpAqLXLt8KwS4CPdfuVepVg1NVtcFfgmZvVLvgVwfmH4UxIVZCCanqgmW9AwXHh5qqtWSZye4dCCmwVI96porvjp2K+Lhm5mzfOxCUqNM9tbmX8jfzJrVTr55q4E7kUj6+ideW+82eV9M/jnslICXkASFvWgqoTZ9+npjESIVYSs/RTajrH7ohdZDZ1Wyhz6j1UJg2v5zP1e96ImTJarwKYscCBLXYif4rttnwlrtpSPt4SvF7L9vf9RnJjp16/qbuenKxvK6IzrdwgB46r77CP5znIVqbKQEQZ7b00DvwV7kQw21JoT9jFdhx/nfHlp4/KSHWj11UT+dmvviwfVuvRBEi2SMcRRhaSqR9Yp06PbRVIqsToZ7+moiQZxvUm9K0j5goavwynpGsToRqYwUH0mM96v8vHkORkTWO1XSP9/EEYYrfi9lfMS4/Cqa+YOCwLHHCmB17zcXWUfZeaSw/Z76GzedjxopqnUDgccj1lpdY4HFeRbE6YAJxlJZussAmA4khv6Uv/w8N2Gxu+3ywa9l/ilMwBUiVt2zMgvHFplKSrsdl+LhtcFvG37wQcswhaAAhKRK267hvYE0TeUE81bDsq93Ns2YlWI1hFSwOdzcDNU8zAO2GlKPDalmAprsFZqg2LEwkk9/ymJtuKgAAAKrqoY5B3hcMfSpAAAFO8ZX8a8GAmxUMf8tWuQXaXehJfGedzDccPbB/J2AI8/RAP4deNNj0YhzIjgWMQC/9g0Uugezb+8zij+eIKahctZeDL+fa+UMdIBaIcRAcFBzC5Q4rsuc98zchDOVj2Hq7CjswTJ9LGCjYku21auFkwedII+VJ/XHJNaHTaLef5C+9fwwwz29/4Q3G488bqcD25iX4UnDh4js024S7xJtj9aP08XVtw+60jQ7FPiIjP6rbrCRDJT8Yhkp+MQyU/GIZKfjGIlwRGqFEmZy71MF5ODMz7ABlcBOAIvToNM/NRDcSVhkNGa3tTTvAvGlT2IAjXOsMB8orSgKXhdDNwJmQ8a+lW06e/G1hoGfTDtltkSZPDLmuAsKmNwFH+1Fy/0VtOP/8KWxZcw08omdt4Xb4ZlyAkDPriAc512TeQTIzINN7vw2tTW+l861oGFZoH6r9VYZ3lOjPdiYjPdRoMTEZ7qNBiYiJggbhhEN28YLGXcFQQSoiPdSaXJCEEDIokqdkZfisloBg4CxzsKJH8Bdj2jZc+Gm5t8Jpq3GrGU009rgN8H4fXws6c+RUC2qWNIkgdEjyJ4PrbT+/zowOCZwt1x5dh0AJ+H5ZUj2SRJht4AKI/Vi21NIb66gJoaDKQrvR1pix5W+LMl83CO+ZgxX/yJRrpeHghjMN/YhmAGMEASDJbfVmZfqUFXn2hQnDEb4866ucMewJeNFPDZDxw/LXZnCTduhacXazI9a0SnFL45F6HICY7ml2MoOCyP4kpnnCLtE1BDnzAljNwm2vfj8VjLlR6r4OAw2zTwAo+Inc5iXWNbHaxUKIWSoCv8gkdetfObsNYHaBH3ARPjJNUIbCFJdiwxcA83jskv8oAj/E/Nq8jRuquGJQKdm9HSwE+Or+Zp74zw8M7ZLhyPl4g5I0GdawicCZWi56+AY+76+S+grrsLuZbHMculqtt2WSImN2M04MEW/66gYWHRuEMBO4cVhUJ2/N0dtgYUuEAeKZivd1aNd7vUTidR6kHJi86DFfO4EdwMsOj/aflRIKgv8DmLqceNzX77RYv/sxaWBBVkmM8+FAy9DoQMAFcf/18m5Bf/iemMgkKozlAUC7HUoIK/S/eg8LgXvKv8UVpXXnR3fwJ1m4F3Us3Au6oMbt+I/veqCDrpmfOjwN2HTzQZpW+aM/z22+f1ZNfqB0xAagwYQ3j7O/YkiF377JpaeOhLu0DwV2C+ouCFqmZ5NGQXTBI4ITr1+wH/q8NlLoD8D8muwSs27UqcYreMmxt3KxZjjE4kq46my0hgIwECiQIgHTpDOUkcfwxC9/A9zIuvRSX5Ylu3CQfey/+RBVuuZj98+23PWNSQ5KZtXyFrjsC1zm0lXTnF66Q9S2IsF1wfjdHP3zqXVQu/A4LN+LsFd9bUSJyB/LRm4Ne9qpgs/8UyIBbip0or+KbS369ORWhxBMqc27oa1IK3LZjsZ8P2WoucKMiRTLCQI39WMQyd9qySuQYZ+IiVAoKAEgtHdx4mO5zTbWj1n/sR/RrMW3CEm1qHa5DaBcu6K+/opWHqLgaVh42CoTvoxvxVkNZh6eY0gvd/DDmuYprILQCnku8rLMyZrQUd1oFYhPn2pRlvRfTFvx4xpYVQKNKSNvc+cvlaOKX+RHAN8Nr7fNM5P2MS6Yh9tzxWAgY1MQKq7tuuFw1R/TUUIC8rrxn+xG9vHwu7vlMyrLT2qXvYvzR8Loxj0YJrF3vHmVo/HcYeLSNUvKnFonuW8DR1wSBHdws0qs+WGGu5gVm8HQb4+y7Sev7yDjKHf6KkKNxaFMxOQiV15xWfPTYEaKDXJEQRolHDN7EliiWKMpIR3zezaOZu5A+6qZZflBM0T61jqdMHjLQAoE+pg4LK8LSSkp1D/jNLr2gXUwlIIEosqHtHBfETP99l+wmvKfXgULn/AWDo6Hxpb4MVfdWmkIdYoSjydpL6r7vT2fKDeqvBlAAPOqhBQTbGr2t1lLi7dZ8afo3LmJ0r94CXNQYMwBKH4Rp25OPHEbUTFnqeddk5mWSQnYQS5Cb5HMmj7Uyh1YfyjAuhqIcwdkiRRd2IXBSqjwr8TjyABvtEFwHDCQs1iDQ5B9x5V0hVpoGoDJooFrAD9MeVhCQHfZhU784arYV8R/W//bdZmPN/zkWoroiqBj/TwoW8ILqroLGb1xyDxPTWj7VFV3tlSP6m1c9qR9Y6TsnZ4hm3JWkHVREVGdt/73zqC8W/MhZjoocp9DjfN8DBfNwojWQvl0kQjisPv+NxwFT03I6hlAkwyumPkxY5BM9p9rdY9wUyXtYcrrr/H7JBm55saeMhcM9mLhjTFraDimz2UCu0BREliSuWCVq0oaBl0a1eB0afcPOSSw3Ihm+k4grKOdStDy/GkCAHldHTmBtZ468H7g1n2VnqdTrr7U3XRQJPrw+P7+FxD/SVyyUM2mvJrRhpq0eq6j7nS1xAyBYPiOwGEN962q8yWxnJW5sLj1lBeXIljOdvE4ZkDKfTuZS+dG15fOvSahSNHgvAjUmwrZNohbk47ck0u6NRmZUZW4Va6TaBWQQQ6UYnmhj6bc+rW//sJID2d+qJb2b/sdtS2Ezk369GGZ9VEwo2+fKpiAEd5ZNvpOpTVnOgDvscBp8as7Wefi2cXqB/kS0TTKcoZNlfOEQyqr4dgATsLf/fc+oqNEaLNsYuyOf/BPJ9d0etWw9eWT4TsWRQHabxe3BlANFPI04C3zEhk0Q9BaIS7Ip/Tbn1a3/9gtZetwG91iI0Xn7uiBkK3CqFhxY4TYS1L9l0y/dO5b6fmDyNUm/0zQdyhklfrBr7Oc0pdq5qwfgtcOAAFLEC6MJa4uDiZK8kIwhmKGIaqe9AHyVuN9UO1M0Boyjj9gDapOUSE2g87Kh6nzT+7P+np4F8pnNmZwQFTBqufJZ384yzjhh1lGDy+JKDjr7CPxOusaq+qq7da5ND5LciBCTwjC1nC9khAyQ4+ZC+d/jdO8sB1sAlJiLsIArN+m5ipZP2/MnBanqkPn4T8HI93oOlBkuuvAErnksHtP3VCbD1vQkt6oA1ADhC2mF42PSWSK7OxmHbWkbjBnGtltTNJBYqmla7K4nb4iDHVjMDe6qMHgVIsZvyryJk/yfvM/fnyEpDOvs3ja0E5yEl5OSUjSWba7v5BuWFKRiqwBib+hkC8aStFXwhoKd8iW4rnVJQVokG+6yOElGVBXhXmNMarbBwqw/mteuv+BXEbXPvTwcypW+Uh3qb1VoN5YUqi215ek+tbPp/hbQ9lrrHJPE+Lvx6iuvEjCH+pAacjr8067q0maf65bcVSYMEHXTteQgoBN5HNVVBmwuVFblViHYfVuBvwA7S9UWvlp0Emv/NF4X6V2JD9Je7zqlLPjRNy16Z9yTyypKHIOD1vduvrxCbF1DEZLakPAk/E2jy0pnyfzdFSWLCcI8lXRen2h5fmH4uPzB16duJKnO9IdTnszrL6oSM8P/s9KiRGtERE+ODuO5xyvVmOihS4dIGOf4uVea38fFqa1wxldPLtD2VePGFg99AL7dcM938G30/VTGTRHd+oB5wJfMHZUsQ03V8WrmyseN0TP1qIdjYx0JszQ3KcieOeVXE+1r4iOiFt8lIVCiygXbersNsNYYnx4JXYwIiVUelFn56Yx/CDdypPJne0lQYdCby/FaSI30pIFWxXm8KsnUbOH+lukIMXJhF936cswMm7QiVJMXHiYZeBv+8N0vQkAmt3uT+9kQHKbIdNbV9Kz1A7wuBUyVKztzUpo0LFzI6f+pUCOnkPvUVY79IKL3jjTJgWurKjbSJ57vLjbaHl2YRTi3k9sefa97LXKnERxr6gs2cdTMMd0YB73zp+E4qdCOqKSOjUfJJMGsSDVr969AWNVgTZl4jLhAyCHf/p1u4iI8HQzo0Z4OiIcpa3SIzPr/N5zU0NCdel3VdCdMclVji85deEY2dZMiZdUVNV/n80QVk/X4ciRt7XWOJFFBemz8CBtiK0A6TtqiLNl5z98LqBR4ZlNvT7a90NjDo6SRQ/QzuphFiZ5BINOrYFWUom7qGNrIyptSrhIpS6aMkMvJYrCRpHXRC4UAlJqxHLCJ70pRC2fdOURBdWrE+R5Je0A8PEYBLQQGHvYKencsGLq4Xsjb6Uj3u5U2exCuGJait/4dElpkz8jaTYlIZQNqyggVq+HKwyPgho8YhQN30sB6JVOst1zfIFLD2Eu1WGFYaBA6DbFYYejPdKHZ4+clCwk4jIiQy8PePVZKC/0EpbBheyWkgPl7mDDxdw+t06JnR+oYdkVV2RznpuJklZvIEZLR8WgYesfX50a8F2Del5HGQ0S3bd+STl/NNp0bi35ERDyzyyczPpBAvMnA8JbNUEdbJAFDDkNMDYVBAfroIzAsQLPXTFtac+ReprEH3fzftMD75qUP9DgmaPlX4X/PfmHEPm+w2Uywmd8gtkRGqn459lNDAlmaeHIae+EYysU7FIxxTd4ugNGpDhbe/FMt60AAHTEFWJ/fyjcFxbKBI2Mvf1axwkO7B1+qr8l3utNwhNp8n+BCNyJJX+RRvBveHp7Hi0aNM5VAmkRzEVXwpWmgfw2uWk/mR42XW+YwOZ1elqVf0RyF04o/faTXyX6LoCFZBZ3zsNVBJkW26CGMqbitmrnO0yWxfUCTW9YV4ztfzcJFG3wF3SywDtw5B52naDt92P8qQ0SO4XyTlxyW/SPJPAEuUVCMyVhS4K1Iz5hrRswyM1eM0vZQlbGe6SvghW6a2SWPnhCzVbdaEgIi6FJejxNZsQZvKSzMrvnjC0MOrD16PMZxksS1Mds76eSWIIO8pupnCuGZS4N+y+ni/951zvOIfij9f8jEC3p8G3QP9JL1yAZb0HvGmRQn3nsGB9dOvZKyfp+k4AYGZo6qzm4OjIRxahuS8ZzS6BEr94w3JPx8IbiS/+XXrJmr2rpKvHX4EClncNzUFJd+bMW2NStAhjY516F/QYjmgt+o1BShXJ3hkCzNHYC1qO84Rrc2u8WyX9K5PGpaqifCMXf4CbfeaN5m/7DYPmmrzH6ZpfSSkXgl+QlARlGhnBNGcOzDqkVo7wtYZ2aw772+ZTsTmCYoJL+eOQ/iHugpG3vFZUdTJBQgpuHZPwlxg4EABe3iAAFLECNqGiCC4afSDSvoBL5snLWLzaFIM1Huk4jC+RA/Iq8n8Y4eflScjTVh7LTonreiD+6/dDB5SbvV/AlUq0Gi/4ERtxleBTiZqREfHLzfFoRe54wudVNI4ATyxGzAL8EcE++vVYt1YpLCNTT24jKhLjp7PUETtEaA+350byiJhc+moWjl8lhb3sI64WV/Jhwb9YRg4UexFSve+KMEVdLVJ0sIsLzXGyHvNUYlPurD4LFOTG9hEKb0s1/OEmk6veBn3PhyKQBPrm/Zfvh2nYhP8lq/I5J3Ltw4PZWHQ3LPjGNyDn3gUzSzbjfnTCFeP02XUhFAAKQkYPH3MY5lEHLgbcZGyJg6AkwUUPy/IMENgNGjH0Kpm84E8v8E5tpuDeUDMGpBlBTX6lI/wnHtGbiXLVM/hWydhSezlMCY9LEVnCnXORnHhbEc+uzdxd54AADpiA3zQwBFxhmaGXtAV7KAAAAAAAA6YgQoIAAAAAB0xAAAAAAABSxAAAAAAABvtxnlwCQikeD/VfOki2lHtK41bkSB4ER1LOfxLNwVntwLwcq6lnP4lm4KzLORHwsPutm2SjyUb+hjo5hYgAAAAAAAAAAAAAAC7JsaudAO/z//9nw0CX/kzQgGcYd47lxo7vCmlOaVQBHkC0SnBk6XFT8LjcP8SLs8cJblQ4nrd4bGSEu+NEtrhOPENztdr/6AeANX87nRcR17o5V4Mb3pqg4tD2wOidjuDGV3rdhGNiBd6tdfZRCZ4V86bG9Td44cnmSyQKwOK367Ucm4QLXERy980UyOrVdfH1qCAmz/HnO2dIxzIrShvDsgocn3GyIU4YvwSgB1oqBrYH0pRTzKgSwPEof/JX8QjkWrzF40W6KsdYOqTFU5ownAcFGqPDNo/BG2gI7f8d7obUsLf+HGUI6Gv4G5/DeKyCdYHxCim4mU/j6oxtHeVhYeSFPzij9EYjVKlRGwZhSH3PhgGdzZ/0+sBil4DoP0tq6nx8zmT2iG+AcFDkHydi1aC+Ar5/56XX6RO43q8pOWd9ZkyadLUbX1YbnlQlBQHDERk8iRSGBCI8MiaDM1A9PnSkUhIU468woKDh40DPqrZyhCZoz9bWTGu/Ew+IerHt/UuNKcOciDy/R7TCVXk074e1FHNV35qFXKcm62KXuoKMCSTKRK4wq3yDvYjb+kESlnyCJ+tLhS5nn3mwjuoQhH1NEe3CNkT5b/kE+sb+xOfzRDiDOgHsX+muTDrrF3hrxhNohB4Qp2lhDSuYCy80fmSAQt7IOxS5XQLkTFM4sMainovzrkvSsCAz1otgWZBfSh1BirOk1SPmP9bK5+fujCdSga7T/L3qmDNqeOqo8PlK9xR3HdQWSSMwtvzY8VcNP/IG6PPDnz2zR5qSpgE9zOrczAgLq8kBRir/9AxyX79dgWIzdmFfh3r9MBAjgGuKIvJzG6bOIFnm9Ut7Cw5K47xr019olppvF7eMQxVGYCizZSr5i93/qYsLV8Dus80vKYqNLVUzB76fMWR9Znawmi2rpGkH7KTozJU5QrEXS1vMQjNHTqGYjTyfhDSClsU4suJ0CffErvYYaI1MfY22M37Ed+8InYh+PA/FJB6jncbNh9f3tdv8azNOLmLMv0MNeXbaKje4vqhdzPBxvf3F97dcwLKyJqoCVNJTCjXQf52LUwdT+rtEOnt9cLuHsae4P7JorN6HpkkAAAAAAJuCAGM5Or3vt3wx3Xo5oAM1B54B2i4ktm1MZOm+4vcR6mlnxDaQeeSYpyIhdYZhyNWkLZbudYEwzDpBxZ90FZkwb8IoMwxAwghLp2zlD9eFWJoOHKMbOQME4SbIrUtUhAJCYXs0vSKiwA1ayDABCinTPJ54s9lgq98gYLNhyYnbAGkYNunE8L/lUqN09oXa9oHbP/90dFTNvY+0kxpiQgaKyZGMpP74AuxIWtZqvncZT/XB6Y9u7lTRoCRzcKlbTZNWPzv+kIzdIKsD+zLMdgvNA5nq3DZsfe9EOI4n6V2vHLb0QYjIpfzNin1qgqf0nPQUbpeiEOu74fgLzLK4zZ9vlOjb7Z6Ta2NLQYskGtUtzmScNhmk8GCd7fAcgWj5TbLBWqnX5hMXfM8niOgaWBh6tDFdQ7xqPIydq5hw/u0FA/nnRmpEZMufgIaZfz1ufxb5TAILCurtWHdsLkPdKTYrAcpkizMd1NOrkV6KBScjDAKj3R+P41V7Q7ngGvfBjD74XOShnjXkjGkoRcbpkR9V7/KvL/T8q164wkncEzZNOYsoFG50KKFfH+KP+3lFNcN3oPHE8DRrx8vdQgMROXTqxS4qlh764n3WPI5zzDh97oFcihNrna9tX2rrHMeKEJTOd5plMqMfUbUFq8nxjalm6TthwiAzY8a4jOSz/ewV9WaX9SGIWX7x1R6B9Z/4gNV49camJUKBgtoCknyyymIUkN+w+7Ag9Yvomp3k2gCrY5MVvnOj9moOznILvDtU7+29BAnPZ7gCBZXxLybNaDbUKtr6Ox3Npmy8PeRCICRyWcmFUdovxG0sYBkPDnId3LyA4YXLP1yBLAEawAp5Uk8ElRZX2HDM29Uz8pyh9eBPehyqYmFN3D50jAc2JLejxYGrlMDnpPA6h1UlsUA2MXPQ7Yyzrfu2msCmwWbgUq9ooe8gWfSyGgbQnnGGCljIqn0oNQmAm8EopHx+NgIDEXbPZC4+wGi6YB7c76u2z6b5fQ/g82+aTxkJqLhbgEFVUW8T4N6kC9WZgMVWrEtB7wwSMXzLInvcMWED3FWMce81yFGgS+gMz9ahqJyfGdY+nEr3y4CPg7zFKnExTArCz0a9HML5/v4klI1gNASwzInIxqjxeBiNGiLmt17THwkQbfH/nVDWgNvzRMa6YmC6Yj8316bu0h+BcM8Q+dOb7g31CsQZxu0btGhKc+erlDZ2z75rgGvd6TSVWjg6Qo1hxcVE9mnzB/2vCVSBa8kU7V5adM1ulnopFUwSSAFjkcNkewhUxx/2LXQirrKaKJ/+3QtXvsdQ+yWQ/mCh2Vf1HYip3d74V1HjhEnc1bxfHCxzMQNNsKAJTIVJPsGT7jX3LPfMQQVnft+YD9bQ5EbzGLgCnl+zvK3eyy6bye5Y9thTz1as/knrFuMc23nSQvo5w3aHcFqLF6gmTTDKj+rSE7aMfNjX8rqb5jnx78q3L81eZdBxBL+oQSDkx2+QedHi4UfTJPbrHAmuSuNPu1eE+Xr1i/VK8vhPZ9r5kY1eWDw+SGdZduCS1QSLoXQ1ARdxKDq1gIGwuX/+EASwwFad62Qbzca7h8UdUioSZ275lbP5y8aB9xtZF1375aDDQqoNKlubzrKrvkF9CjnJ7uUGWYGuOC21tFqKANuvlJtmKqTHikiicT80dnmg+aNsKWWexQYO9ufr3jC28+DH8DfUNz2GfCrSKpsBuZqCNkapfoFTybmrBap2lyRN86UI1yypPzpP5r3VRdopWv2Vlhnpghw9Wg8Aj5gEC91ANekUj06qe5FwPksVhro3/2J+kNy92F7mWpXmP83ayPgnLFgrK/yJfflJbKmvD8jn6abegvg02eDmt3eC2zYCLOFlg/L/RY/c4tkq4FKlhsW1V58/rnxQSVLny8LuDoY1Lp/kUkIax7Iqhx52XwswevILVL8QXjbMaA+ssFo23TIGgAAAAAAAAAAAABFWElGRAAAAE1NACoAAAAIAAGHaQAEAAAAAQAAABoAAAAAAAOgAQADAAAAAQABAACgAgAEAAAAAQAABoOgAwAEAAAAAQAAAacAAAAA;" vertex="1" parent="1">
          <mxGeometry x="180" y="2330" width="748.76" height="190" as="geometry" />
        </mxCell>
        <mxCell id="Z4Xb9YO6mUinGf_k16KE-133" value="Container" style="swimlane;fontFamily=Helvetica;fontSize=12;fontColor=default;" vertex="1" parent="1">
          <mxGeometry x="220" y="2550" width="680" height="300" as="geometry" />
        </mxCell>
        <mxCell id="Z4Xb9YO6mUinGf_k16KE-152" value="主进程" style="rounded=0;whiteSpace=wrap;html=1;comic=1;fillColor=#b0e3e6;strokeColor=#0e8088;fontFamily=Helvetica;fontSize=12;fontColor=default;" vertex="1" parent="Z4Xb9YO6mUinGf_k16KE-133">
          <mxGeometry x="194.75" y="40" width="80" height="30" as="geometry" />
        </mxCell>
        <mxCell id="Z4Xb9YO6mUinGf_k16KE-155" value="子进程" style="rounded=0;whiteSpace=wrap;html=1;comic=1;fillColor=#b0e3e6;strokeColor=#0e8088;fontFamily=Helvetica;fontSize=12;fontColor=default;" vertex="1" parent="Z4Xb9YO6mUinGf_k16KE-133">
          <mxGeometry x="450" y="40" width="80" height="30" as="geometry" />
        </mxCell>
        <mxCell id="Z4Xb9YO6mUinGf_k16KE-157" value="Container" style="swimlane;fontFamily=Helvetica;fontSize=12;fontColor=default;" vertex="1" parent="Z4Xb9YO6mUinGf_k16KE-133">
          <mxGeometry x="45.62" y="110" width="620" height="110" as="geometry" />
        </mxCell>
        <mxCell id="Z4Xb9YO6mUinGf_k16KE-158" value="AOF缓冲区" style="rounded=0;whiteSpace=wrap;html=1;comic=1;fillColor=#dae8fc;strokeColor=#6c8ebf;fontFamily=Helvetica;fontSize=12;fontColor=default;" vertex="1" parent="Z4Xb9YO6mUinGf_k16KE-157">
          <mxGeometry x="20" y="40" width="83" height="30" as="geometry" />
        </mxCell>
        <mxCell id="Z4Xb9YO6mUinGf_k16KE-159" value="AOF重写区" style="rounded=0;whiteSpace=wrap;html=1;comic=1;fillColor=#dae8fc;strokeColor=#6c8ebf;fontFamily=Helvetica;fontSize=12;fontColor=default;" vertex="1" parent="Z4Xb9YO6mUinGf_k16KE-157">
          <mxGeometry x="130" y="40" width="83" height="30" as="geometry" />
        </mxCell>
        <mxCell id="Z4Xb9YO6mUinGf_k16KE-160" value="redis数据（因为写时复制而分离的内存）" style="rounded=0;whiteSpace=wrap;html=1;comic=1;fillColor=#d5e8d4;strokeColor=#82b366;fontFamily=Helvetica;fontSize=12;" vertex="1" parent="Z4Xb9YO6mUinGf_k16KE-157">
          <mxGeometry x="240" y="40" width="100" height="50" as="geometry" />
        </mxCell>
        <mxCell id="Z4Xb9YO6mUinGf_k16KE-161" value="redis数据（未发生写时复制的内存，共享且只读）" style="rounded=0;whiteSpace=wrap;html=1;comic=1;fillColor=#d5e8d4;strokeColor=#82b366;fontFamily=Helvetica;fontSize=12;" vertex="1" parent="Z4Xb9YO6mUinGf_k16KE-157">
          <mxGeometry x="360" y="40" width="100" height="50" as="geometry" />
        </mxCell>
        <mxCell id="Z4Xb9YO6mUinGf_k16KE-162" value="redis数据（因写时复制而分离的内存）" style="rounded=0;whiteSpace=wrap;html=1;comic=1;fillColor=#d5e8d4;strokeColor=#82b366;fontFamily=Helvetica;fontSize=12;" vertex="1" parent="Z4Xb9YO6mUinGf_k16KE-157">
          <mxGeometry x="497" y="40" width="100" height="50" as="geometry" />
        </mxCell>
        <mxCell id="Z4Xb9YO6mUinGf_k16KE-149" style="edgeStyle=none;shape=connector;rounded=0;sketch=1;orthogonalLoop=1;jettySize=auto;html=1;exitX=0.5;exitY=1;exitDx=0;exitDy=0;labelBackgroundColor=default;strokeColor=default;fontFamily=Helvetica;fontSize=12;fontColor=default;endArrow=classic;" edge="1" parent="Z4Xb9YO6mUinGf_k16KE-133" source="Z4Xb9YO6mUinGf_k16KE-152" target="Z4Xb9YO6mUinGf_k16KE-158">
          <mxGeometry relative="1" as="geometry" />
        </mxCell>
        <mxCell id="Z4Xb9YO6mUinGf_k16KE-150" style="edgeStyle=none;shape=connector;rounded=0;sketch=1;orthogonalLoop=1;jettySize=auto;html=1;exitX=0.5;exitY=1;exitDx=0;exitDy=0;labelBackgroundColor=default;strokeColor=default;fontFamily=Helvetica;fontSize=12;fontColor=default;endArrow=classic;" edge="1" parent="Z4Xb9YO6mUinGf_k16KE-133" source="Z4Xb9YO6mUinGf_k16KE-152" target="Z4Xb9YO6mUinGf_k16KE-159">
          <mxGeometry relative="1" as="geometry" />
        </mxCell>
        <mxCell id="Z4Xb9YO6mUinGf_k16KE-151" style="edgeStyle=none;shape=connector;rounded=0;sketch=1;orthogonalLoop=1;jettySize=auto;html=1;exitX=0.5;exitY=1;exitDx=0;exitDy=0;entryX=0.64;entryY=-0.004;entryDx=0;entryDy=0;entryPerimeter=0;labelBackgroundColor=default;strokeColor=default;fontFamily=Helvetica;fontSize=12;fontColor=default;endArrow=classic;" edge="1" parent="Z4Xb9YO6mUinGf_k16KE-133" source="Z4Xb9YO6mUinGf_k16KE-152" target="Z4Xb9YO6mUinGf_k16KE-160">
          <mxGeometry relative="1" as="geometry" />
        </mxCell>
        <mxCell id="Z4Xb9YO6mUinGf_k16KE-153" style="edgeStyle=none;shape=connector;rounded=0;sketch=1;orthogonalLoop=1;jettySize=auto;html=1;exitX=0.5;exitY=1;exitDx=0;exitDy=0;entryX=0.5;entryY=0;entryDx=0;entryDy=0;labelBackgroundColor=default;strokeColor=default;fontFamily=Helvetica;fontSize=12;fontColor=default;endArrow=classic;" edge="1" parent="Z4Xb9YO6mUinGf_k16KE-133" source="Z4Xb9YO6mUinGf_k16KE-155" target="Z4Xb9YO6mUinGf_k16KE-161">
          <mxGeometry relative="1" as="geometry" />
        </mxCell>
        <mxCell id="Z4Xb9YO6mUinGf_k16KE-154" style="edgeStyle=none;shape=connector;rounded=0;sketch=1;orthogonalLoop=1;jettySize=auto;html=1;exitX=0.5;exitY=1;exitDx=0;exitDy=0;labelBackgroundColor=default;strokeColor=default;fontFamily=Helvetica;fontSize=12;fontColor=default;endArrow=classic;" edge="1" parent="Z4Xb9YO6mUinGf_k16KE-133" source="Z4Xb9YO6mUinGf_k16KE-155" target="Z4Xb9YO6mUinGf_k16KE-162">
          <mxGeometry relative="1" as="geometry" />
        </mxCell>
        <mxCell id="Z4Xb9YO6mUinGf_k16KE-163" value="磁盘" style="rounded=0;whiteSpace=wrap;html=1;comic=1;fillColor=#ffe6cc;strokeColor=#d79b00;fontFamily=Helvetica;fontSize=12;fontColor=default;" vertex="1" parent="Z4Xb9YO6mUinGf_k16KE-133">
          <mxGeometry x="295.62" y="250" width="120" height="30" as="geometry" />
        </mxCell>
        <mxCell id="Z4Xb9YO6mUinGf_k16KE-156" style="edgeStyle=none;shape=connector;rounded=0;sketch=1;orthogonalLoop=1;jettySize=auto;html=1;exitX=0.5;exitY=1;exitDx=0;exitDy=0;entryX=0.5;entryY=0;entryDx=0;entryDy=0;labelBackgroundColor=default;strokeColor=default;fontFamily=Helvetica;fontSize=12;fontColor=default;endArrow=classic;" edge="1" parent="Z4Xb9YO6mUinGf_k16KE-133" source="Z4Xb9YO6mUinGf_k16KE-157" target="Z4Xb9YO6mUinGf_k16KE-163">
          <mxGeometry relative="1" as="geometry" />
        </mxCell>
        <mxCell id="Z4Xb9YO6mUinGf_k16KE-171" style="edgeStyle=none;shape=connector;rounded=0;sketch=1;orthogonalLoop=1;jettySize=auto;html=1;exitX=0;exitY=0.5;exitDx=0;exitDy=0;entryX=0.5;entryY=0;entryDx=0;entryDy=0;labelBackgroundColor=default;strokeColor=default;fontFamily=Helvetica;fontSize=12;fontColor=default;endArrow=classic;" edge="1" parent="1" source="Z4Xb9YO6mUinGf_k16KE-166" target="Z4Xb9YO6mUinGf_k16KE-169">
          <mxGeometry relative="1" as="geometry" />
        </mxCell>
        <mxCell id="Z4Xb9YO6mUinGf_k16KE-166" value="写时复制技术" style="rounded=0;whiteSpace=wrap;html=1;comic=1;fillColor=#b0e3e6;strokeColor=#0e8088;fontFamily=Helvetica;fontSize=12;fontColor=default;" vertex="1" parent="1">
          <mxGeometry x="-310" y="2550" width="146.5" height="30" as="geometry" />
        </mxCell>
        <mxCell id="Z4Xb9YO6mUinGf_k16KE-172" style="edgeStyle=none;shape=connector;rounded=0;sketch=1;orthogonalLoop=1;jettySize=auto;html=1;exitX=1;exitY=0.5;exitDx=0;exitDy=0;labelBackgroundColor=default;strokeColor=default;fontFamily=Helvetica;fontSize=12;fontColor=default;endArrow=classic;" edge="1" parent="1" source="Z4Xb9YO6mUinGf_k16KE-169" target="Z4Xb9YO6mUinGf_k16KE-170">
          <mxGeometry relative="1" as="geometry" />
        </mxCell>
        <mxCell id="Z4Xb9YO6mUinGf_k16KE-169" value="" style="shape=image;verticalLabelPosition=bottom;labelBackgroundColor=default;verticalAlign=top;aspect=fixed;imageAspect=0;image=data:image/webp,UklGRvgrAABXRUJQVlA4IOwrAABwIwGdASoGA8MCPpFGnUwlo6MiIRLqELASCWlu/FuZbRPbptZjBaL8/U4k91byp57/9v619uH5jP1d9VP0nb0b/S/UR8tr2bv8FktnkD+gfiJ+JXmT/Uv7d/av7156/jnyD9a/Ij+1ftd8XH9l4resPMz+U/Wv8L/af3X/tXzU/VP7r/bf2d/tf7oe0/w3/m/UC/If5B/d/zC/tPql/W/u29c/2X64+wL6ofNv8p/d/3e/zXwzez/6j0Q/P/77/tv1D+QD+Of0L/Kf1v9x/8R/////92f7bwi/s3+q9gP+Rf2X/vf6f8s/pi/kf+9/p/9Z+1Htl/OP8r/1v9H/pfkM/mP9c/4v+K/K751P//7oP3V///uv/uJ/9BX7gIxeg2q89OzFMwGichlRN8un7fALP5gdvSH9M3yAUUzLhAMMy28KgC/g1mr8IyJa/BP2GTCOlQFIqleenZlwgGGX6MKpPHDf9/xw6U9wDgAdvgCEo3y6eSJeTsAwzLhAMMy2o+ViRN8daajfLp5vuL6ft75/7G+XRkulQJE3i/jh0oskEdKgRvkCTcAs/DqXT9vTm1E3y6ecADt756GDExvjs80indHCcxOUZOVltLUghUqYmN4v44dKgRvlib5a+Oe+XT9Djogp0Oe6Cl21oSJu9luoGhDbPNhey/cFiMrMTlGM+VNgx7WdN8daajfLp5vucOnv6ChFjw4geYtmm+/QTNSh8RD/3Tvzg1/ndirsu5HSgvJR4mzRF7Q9t8Aqm6vQU+cjTUTGAWbuP9jfLoyTBGom+WwiuAiKHEWgdgUcpYDEBYjKzE5Rk46wA/aD2TO20R4SEh/zYMTG+OzzRWS8PcxtTd7PYDD/U8RwdsD8wJ3Ye+ShKxV5LXbCJzDokrLbk5MRc8G3wCzeLTUb5dPOGpIm+O11kMqJvF++jGwqrJEyYU6GBowO3vn+LJIm+WwIMMqJoRxHSoEiALALGZBzMP7N/4KtP5gdsi2z0CRN4wi6VAjRUEwvlyWvwjIlr8D7c1Qc+axo1i+HukTul0qBIgCXNqJvlsCDDKib5dCxt9Zf8P8wzzaLoiA4WUq+7IodKgRoNTXC/zLpUCRAEubUTfLYEGGVE3y6IiSAKvBBWnzqQVz3d70MC0nNMdrhv2+Aab0NdylFmkeTArvLk2gbHyMnKy2woqxpyH+wOUPQKXhQ+vCL1SZ4uo4dKgSJvl0/b4BZ/GjrgPToSQly/MAlRfpxF5LMpgCBAnFEuEAwzLavZ4sAs/mB2+AWfzA7fAKk1I/DpMxzyqXyW5z1F8AjNkJhxks3IwYeJ1v+4LPNwBkOoGM6sHcxcBG5puT7j+pqqOCZ7vZpFZDwA9PVbq7uWUtsQZhMyJYNFuzWgIYjVLrVfmjtNCeYKjfLp+3wCz+YHb4BVGCdborDHI1KOlqy2wtTd7NjQnM14wkAYtTsC1p0HIwiRUYoo7oUQsJe11YA51esFgPKjgB6r5aiwStSQv//9ZOqSPU2GVE3y6eB1pdem+XT9rckuK+35LMtwc7r+PzVN80UcMGm+XT9vgBiGWDbpVro7h0qBIeKL3iUb5dPOAB2+AWfzA7fABJ0gqM2zGdd3YrEcXTW96jXFo8OKpwm582DaKMm+z4zQP0wr6dN8ujJdKgSJvl0/b4AJ2qNmtIP7EthcJk48CAF0Wk8uDYniiDtnXz2/Qf1el72pN71loByynZ8NuxcKXcxYHdO7zY8SZB0w8oZUowAqBg2Gw3ZnV0eRSMDdR6OZ7JBHSoEb5Ym+XT9vgFn8uijy8KGO82m2mXMuluq5D1zlgMm5fyWsImJN8o9dlIj5B/tKrRrRc5R+Ftj9yQR0qBG+WJvl0/b4BZ/MF5LO1aBopFQTIF3x9jc3+gqcqVkAQF11KOtNRvl084AHb4BZ/MDt8As/jSUb0z9Yoh3An/UNiQABlRN3wtng8a7Uun7enNqJvl0/b4BZ/MDt5yXwnYncdU5jfGoY0xciyrT+YHbItBhJ1D68IyJa9fOlUR0qBIm+XX/wPy68OACof82DExvjs/Z75dP0O1Om+Wq2A2SD4UPrwjIlr8F5A/xiZlRoUdNBSbUTfLYAFp/MDtkcEwPy8JdKgSJvF82wwNB7QwNGB298/xZJE3y2BBhlRNCEWfzA7ZBks2p5Plr4575dP0OLCfJ1h9eEZEte6Af+0XuOHRaXSoEibxW8aaiYmNBSbUTfLX/43YYKy2wtTd7PXguFp1m4H5dcvMUN38m0ssiAY25Dl/u7g1sw0njgVW5KAKE68KH14RkNP0TVIKGVE3dbxQqJ/1VxLOxFVL/MKu1XagOpBDodDWIkLBeHoseGx8jJystsLU3auG2IrzTfLo07yMxlzC6x1Ugdcieb1jIMSF721oSJu/5hzdQEHqrXWgb5/g9RGVmJyjJyst65YvO8RjfLp4ZYW9uAmTf7MQJqphVTmzbRLHyXem3Z0508M7MKz5yxR4knOC43gskeXDS6uwns5YYFGTlZbYWpUyqncCRN91H625A/xjLEn3dZWSQpiY3xrhbNTdgrfDOJIyFSKG5GdBIxB4e34W1/CYAwpcOT3yUJWIbKXSoEb5Ym+XT9DmGVE3y6ft8As3jRw6U9wrbG+WwCOlQJE0IRZ/MDt8As/mBOAB2+AIU6XT9rxgHN2Iyjarz07MuDt8zpfYGxvl0/b4BZ/Lwl0qBIgD44dKgSJlk1bEnbs3ACxr44LxbI8D8wO3wCz+YHb3z/2N8ujKQGJjfLp4XpWTyDQhqCQ2CgLfPnBRPwOyGZP9dUTfLp+3wCz+YHbIwYmN8drrIZUTfLYnc1vzG+XT9vgFn8wO3nsqj47PTsy4QDCjHbLHI6G/b4BZ/MDt8As/mB2+AWfzAibSQBJlYiaeyyS6whePxzZlGYhhKFqCfXfZ4mBl6QZmOFCBmCjE6We+BjMPhxoAEMc2ssPB7b4BZ/MDt8As/mB2+AWfzA7RPa80i1LaQsrnYRdqtgFJuGz0HGycbISACuGbyMy5Ad69dvJkt1nlWM9z2z2hqP8wsfGZXnvODNgxn3T/OorIhr+abstB7b4BZ/MDt8As/mB2+AWfzA77SeOHTBSRN8un7fALP5gdvgFn8wO3wAQAA/v9qj1dW31w5xOi60CyGcckOqEO0DO3pPrL46f5172hEzt/zwMsYYRNMbR7ZLMr8A2GbAfEz37i5sjzXg27ruHXWNfEAnCAdDCn1tL2RJPjyiviA5haZdSiQS3woFKExrm5W2KJfCMU9bdalhEf1mU4AtaI47V5kGgCpJ4ABaMwAAABwZRWAop7E+m9c0T63DIANRRIQfQ9qb8C0cJ2zPiiqcz5jHzGPmMfMY+YxOWZGuMNgW+i1jxt1fW42MxTf4AEQVk+cbyvoSlkPsOeQ+w55HG3I5JF/V266JD1yz0RKpP/V6XkU1P7iWg5x/bVE/c0V1jE51iN5qCZph4OjkGt0DEJmLHE7mmKZA4CBdk7fFgF4iXXfishx802dRt03enbZubLEpAJo2UaS3r6IAzs+gR7r2CBmA++ERKPEfnxvt5yGZhgvH41L3W45HvbtHo1I75Jlyt3czxrS+4I22VFX8tZvaOz4kAtvo7O8jeBHoAwTPjDiv3x43285DEaW+t0tlsVvAIqU3dZ81ApuXrVFZS0mqCcVGhVnR5UOzIArDMkeDL+XeRvAj0AYJnxhsQK/Xxvt5yGZhgvH41L3pR6D35oOC2bXno1w/H5+KGguucpret+3EAjh0Qsmc1si6FXuUPRM54GknbHeFb4oa0AlHFLQ3MiiMp5in/e+A0ChJAGZBfK3Dh3HSXcXVl/BzuPqsp2p/WjENZx0dpX8z/sECs016eakB396QNNJs2JGRo38bZIgSBh8ogSBh8ogSCdZb0yRpF+zXYlMFdqaotLjc/kmKl8GqnpwdWIrappJX6SDC3e0YQz8TLObu8DTpCZ6GME+SejhyTmokaUSiBJXic6HFbK3hJsfeQgd1BJOJWu9J716mvIcJlESlzyJQx/won64BkrT3K09yoL6Lux5kNwQtk6VS4s//g6PJGGLOPpo4jmR4P30HkR5pqos7EGsrCjcHRs3PSzbMg2UHEZh69wC2KpKBNgG6pA8THiidqtFip6ZUYxFjkALQJIoLs1Q+Jnif+fo69mvCGjziwvNPBSQtgWmhzjmCSljsIxg4ZHM37utxhBWUCsaolHIsJNMKxis5BCteuuFozKVvU2xY/gcZajhVap/P+dxYn1LYQV3c2Pxoa6cXeQQU1TZAcNTYBwInSInxMAr8StWrB4Mv+pymRDrI1q6+KhcBfvWYEaxJjqBEQRnq4MA3kGsFZVlaVzBCz2u7bgAB/jRfz246a9tsm0bSjWS5gH7LtYWQf2dEddywp3P3DKeacy5S2+b6b7MGVV7d3wbitHdlaEPO5RCUg7J/1DVYu9GdKSGCNAfHkzvoMLgIlXZpKFHC077DS8aZukyfmuhvqoGtncOgv6Qe2Ow/FM7ahPKXn7njcURY5yeFxAX1jSlpE9aPSNnAdCmhcDa0iLa03YABzdc49ayjWbYV3aS8uDt/N41z8SUBNTMlqxlF/TCV9KcBFVCcxjOsbMGV1PrKtfVEuVeu3MldUc+1rwxtlg54tJWqPj5bWsaOyKfwHlmPYq3epeg7qRe74PdH6hbI625+hDCwVznFFczJ6k2OZoOrtzLh6F29ddE8jEG9a34aJj9ek65Wt0YSZFoh2vfnb6aRNr+SSPd2bmzzGbKjNz9+7mxeSQqI5GPykKoas2NMgD9TLHa5fXPXNWA+/zN0MwqjkHFmyuqdcj+ZnoSoU8FCcHgdTBpt7W2X0/+hiqL3n1PGoFJaYUQCqXmKK2b3YjJsnt9Llm9Zqrc6Mf1dCqRIZHvjZlmLPfV5x6SdjhIUFPkrAMe8XYklXFTKZTc2bUt7q50X/zAYFPOjKBXH1hLFkxddl2x5tGuJbYFi/Ol8HvvNoetD5xYdF38ROJgt6e/FzLqD+Gw/kk9kpbHsqKyf9ZpTlV2yEalYk8t8tTb8OrNvHWtRrguN0g7pSepu/Gb4ihB41GPy53VerfpRoJ6Lw518lKOGQkAa1grWEvs9kscbc4+x7+J0lxlg13IEmiOTZAGDFbJoa3ic58cifwBoAxkfSOMtI4vkAwHInjm7UAdtSRyNAO0/ZPA/gnLbmqk9K3Y/KyjttuHHWIxQoXZz6BvcxEqqqEAq2+4DoWnBKjtaF8bMapAk8GJLU/x0WGp/josNT/HRUV6fSh3UMKe+O2G5s/c85l2fb9dudNJ4Ys1D10TYLzSK8DFysf4/vG/Hb0BEndjGB4Giud717n2i9aDpEzR8DrqUFaVMLREBm4H88riu8nkrdgExXb1UUoBywFBqZVjC/HD+cKqZUYXUdFjvOgG+0zxRNaQXqAwI1JrQw2JK4oW3sT+MHKvq9Wf+LgHbIFTGIdJM0BG9WmsgCMqKXPJfEuYiWR4uymhOPMnwcKjPoX77dahOAKryFvWlG71lLcjUrFg6DNJnZ6WNOIJwhsgpyts9DwnMA4WiPdqiyl3wjcawC6ym836BLPrEFyaAB0/3qaq2+vB6yTL+zp+oFm/9/VAexTxcF0BiVnnTR/Un/hEsnNsyGqHYH0yUphJL2ypzkGcAWML4g5YxoQwZ5q6XuWmJLFE2Ci2g4Ztt6DDDDEwg+g1SQamAq+UVGD3N1DIwyxUjzL2wvE6tEcTPd9NWoQzcDrdGfQdie/IT1lc1W5mjaRTmFyohh82fi2tSE+nwTs1kSvtmLzKLmUyUlN1zZTFvbaSjZ7KdmEJ6oSgNFr70OODSSXXriOVierZg9qTMwL6reJa6q4vmEphrzJDpkp1NW8ce+K8iHu63UjRIclup1lwFXX8S5mz5cPS5DImlmtz934wO9LbSM8AzLq9ccfmJDz+O5pL5d52xDqoVYYVBkQqGSrx2Dacoz1JL26phT+4CYGmrczM+T54ZisyZ2/ydBqLDspxGfMElHRiKO73uesixnuq+aBQ19zu/A93Jle2XYshJT6SxZcXmhNlQoa3Wnt6ynfZ3cOF5ZmfaLUuQ81Y89uOK/CiKAizJDaIyElte44dfBfGXUKhku8Jjw8kbS1M7g0AVraD+oac6yuK6Cq/nZv/yODjAlaESYURb8JI04JgCn+w1JV6N2V+mx0+CHfjLB/U88aY9aezMyJVW+fHh/QetUy61LV8Sl30nAb3hl9pxZRTp6fC8e5HfM8lIRYUIRxEaeyIwqXvlwA7kANsVxnwti+yjoCLVg5kGflgESuE7chlX0DgNG/WQ8EZ43V/aUY4ZHaWu/ON49FRX39XjLraRPl1SsytIaUOpkL3EbKB8T0LJBx6bx7GQaP0Sfy58L8Aq9Qy942PWxD/X5H1goThrbsvSTq77aR9bc0SQys/RSwEvRzjn//GbOuyW4Bu2itrKW1tl3XXrGudS0zaX1PrL2uh28iherbPWOh5dKrCGxUSu4qSISxzlh0dGIgGGpPQGYNy8+WLueI6O+g6xqroJHHG9S0I74x/3O55tNskOn8NNvlUDtb1Ow8Xg4Z6F5M0kqGZWRB+x2EQLlCmDLPx2W3q/BHcqoa1Ddikrfe5eBv48ZZdkxPlBwNCz2QAt198FZ2hXPcgRLGuZsk/DlNg/6nQN2XAM5Q9tjRkNIEsnD5MvPOsw1pnoNnmHxxoxTnhcPHuqjtate2k33twTzeDiyh/1Xkwk6i2fHji4a54ltjuk85KAXFDo81vsrLPIYZhKXI/AsPfiOklWf6GMd/PyRq7YAAY9SLkaOeuuIxGIXiSyNGqVfm8wdahfjxRIoiqGw0iheb9Z7RXDxOfKiVhSm2d4TstPUWcSUJAL1S/h6seNCd44nXxlXmMLi8h8dQvJzYkQ5VxwM/toLB0TicI3Zy3Ak9xOtPMd1z10hT+HKzOKTqLyfcJX7vb3iTUQhM9TEZ1p5ru3ft0GMBOxKYeO+g+li8zMGH01EjXsWJ7WwGumrgf71PHlesDTP/GgOk5LNnafR6ASse5y0vmvqX6dPg91hafNPxNpG4jNCLutao8u1LaREbUu95wfuec0IdCP/LOY03WQgRt+zby+wkHgZLvuOOy35iavhraLq3U09PAqdbMmzGuniDvBXU3OQ+MleafueR1JjUis7Nx7pId6ucVqvFIA8z/myWd14weH5svYfBbdi/1qeQwgl/Uakx0wVv+oV/ml1aiY6eOOaPtLc3lsZu6ES0OVf43ZrF4kzGN9loNO75SmB/hEPzJvtAZMBDmnk93WidkWbh/G8JBFAcAw/8R9gDF7wK5gSaTLC7euFr9nIuNIWinsD8+gfRywQxP1LO9P9A7AMtd4g8qAW8lJU6w+DFEQnpLt8brQn2+UcTyM9Tp8umYTjU3hQrBy1xDZjBoN9E9p9s4WV6VntJ3sFBWFy14SjSHEgQzsNoJCg+cebMkpiAVWPWIcijjhVllXAlU+IV5sN1Ab0EXcWXGpZglhoZs+jeI/J58hzbTUP3KF95F4mJkgXFCyKB9GRsENW0EgYSNj4GHK5OnYigCYB6le2c9v9DxpKZ0LT+jUhSwYYJFOLP3bwF4npbP+KBd36T9iFg68gMREkgNucS1A2ijzlnPdrlvCCh1T6BnuQYIQuGsUAMQCcVirJ2XVfrCfwf5t+AN8/U+XFeQigvrqHSRey6cJdxHnVijTw7M+HwPcTcItnLXtrhm2B5hg5C/inxafYaOnhAEBvWADn8aAAB0VgpmPfLRF0Mzy0YLJSCYmuXEC5l23lfNXDJaYEyLc1hJFvn8WTjnqWyD9WLIw+5rCSA09j8InU3/5XFMOuc9wOp41/v3Q3/3nSuTXHgcz/yr8b0esW/g/ZyllQeNO01umsU2IVBdUNyjecPPYsjJsQDXhnVxO0aMK+TCSf6r0dJvWh/oBploXbY2almkWu8l16akGcXq0l1CuoJi+rAMZTVC3o+unE8kGzb/PJQmhxYtmc3VWRvBFQCbD9toEAkAbGoV1Fl/SD88GXBFng6a72FM3dwslq9/wdTRaUos1rppgP2RZwzTIwqYxDsvPAyYIFFp6EkZNwS7bj6yjPClw9t3FCLatxZZNkXySO3iQEgK7dwXcoFkhSZQhsR7Bz/wpfKclBPFUYo/ym0NxGjhGIL8MRPPQDsWk4RxEYatkJiTg69zz0A7D22CXX/WlgEf+uwAdCfIwEoNiToj32lU6YaSQOW+ZUczFwqbAb3JFKB4ze8+BRjUlog2F709q9QH/2ZYhbbeOdTYOCxhgL9u3WNAGdtqoM9urawoWtwPVTN53pRkznCo20mfIfYpKTvUT031MHZggvMUshAELvF4/8KnbOVvhVU7u3BZdDN/dxbdOGrK/i1DEcgxL9ZJ9SOK0K22nH46wRtATYRks5WcduHvOqPKaJ0+LjtppKIrwga3jjGdgfX2HdjcLJKwQ6eQnXJIiHyhYBKNgjz1Dahi1/9MK2TnsvLlgPY8y6cyFu9Ayw/+Gq288JPyfH+3V05sejG93MHIl8VztlJu45NrcZJTtY7LPs4kXrqvZHO53P9I+/i6BYjy8OJkMoojGJX4CoWX4CUSclUC2FpwBmTI7T0PaOYxLkacHmr1r+fxJVbqeorS79X+J2VomaL+sMHqA7OJp0iFFd16Z7IFHXxMLnnQCZ4nI0xaEhbueHmyoPqSmp+JiJW2aBTaD7Tt15mWM03O5MGGkuGYg+x44Q3uAEJdZp7lZMfUQniTw+cvbP/JAONuJGl2CmhYrFC2qxOOzpP02hCuAoPbeeXti2m0z21HMowedLQzl2qhJaLBmWnftf8zaBXSLewvYjNRRC3+7LWOXuqDjJswJL+QC3hRUC6G2oXBEKFVXJBeDc5LmQDuagwbnH7vq/o00wzwT0PEhdE1ew7m3iCR4MuP40Ht1uqKORTex9bhu/I77Ma9VEFOEhjEBGjzOwEWiDpD2qGeZpeVxm79hdYSKDotBMEVztWih7KGJeZDmBa+cM9VCjxrxWZ/sq5BzGCediqrIERb+6swXBmKpKpzz1CjX5YPcNY5Gu3u78E4OP0TdWH0kgqpT53U0m3HGWPx5jZZqtQUqOg23v8yMk4RcsfH4JgCw6czMA6PHwLK5fteZsvGe3kF/H40c2HoL5mAenadsYQqTxd3u3u8HxPzwIBZtZXncL96Zzr5kGLrk1miyAVychp41B6z8UZ/IWJwGrrvePaE18By3PESXb+C8ucOkc75ccYZsRP78EZMHaZKZ93Ao2YbMpCMbGyifL/ox+edvrdsfAV7fwF8tGIjoAi/0Op/SFvMuIZ8IUop4NvyonRfHCGtTGCO41OS5e/HTQKUNvEv5f/QS7BTYRUIWbSBinoLXz6ArHBrN+TNBrS7JDk4Dr/fXWQBJchVKeJ8fRC79u9jD4Z/LiO4/2GxMf/BA89yeyfN59/FI/SGn5aBcUCU/5W1QKLQpcuK+ez1EEqQnV09CTCoYiCnZggU0WN96V4dFUZswp4Lrh0PIRkQ8coipDDI+CE1rGzsdWfK8lz6YC99vXUUKzUM+Dd5Y0vew/a9jEYr33azLYhqUwPCCd30liQY8vYAuohFu8kLRnXSirP7H0fFdLSrE810aMIFl7mp4S9uG8LY7nMW0rn4xPyVgwJaM34gN26OhxppiujpJLuWm6gQ0ltG/Yhepn8FDtvpv0gdrWi7ReDxSjV5l2y0VV4S+n9AK3SrjyPN17J6prPsJP86k97yEYtLgRKkaLV2D9rL/mLRfZG7TzO/OGKad+xf8+LjMSh4BmKLGmE2Q/qZrahEYyRX/+IbVtXgApP6yMhR6hNLslY+wUl68DZkyLX7GAAJCZZehFGk398I3uVYKx7hEjxSHtSRA2h5CP67lCPakSD3ZnDvcyQerEsOCFilbbHB8gZKmR4tlmuAWN62MKuUIbwU2pu6qmr+mwuoArxhDObvuIxW7H0tAW0iSQX5FgTgZMIS6u4RRaLalJYiRSebBzHeyY6T6ReHRQBxXeekuuvIgZ8XZHX0Sa8hfYNeMUMGbTdDWs2zdawV8O/lq9bzlmdzlBvU0iJzx6AArrLQicv5ktiiQ53eSjfs3Ke7xCPjsfK70hupSA390EgpoaW2e2u3vOD6SbuQ0lak4p9YgWz3QqrjTisHuOX6IABe6xJg+6DkvYxasTleh8RWp3awOABJQ2P367SXaJYPgpvvrzyl+o1RjITWJsjJZr0mEjDFEnCWrzIc0QVqUaml8dP8/cux7IexReXqgX8LkUHXxIBdF4APm1inYy7avDf6NAy+LT3FcjJ5H+QrKIC6NyC4XBD623KiTg8WIpKPPGYlLfYIyyGhTaTIY8GI/OQfCOZb+UMW6kDoTKfHZYnWBsuNxalzi0YvAaOw5VfqsZAltTT8x1sgkxHlB6V8XGCBQ+WnBRVFQWAAAmAHSvyh5q1uKjgoZTQdyl3Ztp13bXiY3E9ngrb/uceG/qCec6IAAKRVKpnOZqvCFObJCQPTidELdNhNxYxg65IuyVm9MQ8qGUTG72AI7SlT3kNq6HKOHuwYlDcv9skxXOli2nCdezz2VRdjidEjh6wfcmAPPYGV8TSbKTHVUqjN652UQX0pR0RI/x7TgBL7Fyv4l5x+YZKftemVa5GrfI1b5GrfI1b5GrfI1ZwI4sLuHFZJPtYnHEj7+Jb4MnpFNeFHaveYM0/8s83NO5PhINie5PhDP+wlDTYqUbr6u7jdplw0DGLMdHarFojTIhIqlUSExTf5jRMlXRmmTdvLrirSYpv8xoBmWekIVJfdIC1V3/JuD561za6LrVwFKqwsMgH3NjSKDukO169GZ1V5PglhcARmpPuphmU54AokLhQEXPsKmFTKBuE3hm5jDmT8nxHhr8BHxdzH0bwv3oV/mF+zIisXZkhx/BO9I1zPTwf7WLbAdfXD/PRp5zE2gk+Np8ify+j12XRsFK/mNzH4y76aMGrafwEfF3MesDuiAMf9l6ouX9hdmSHH8E70jXM9PB/tYtsB19cP89Gnmxis0I5BpjK/JcWV5wL2YtvtgdHjLvpoN9BxXwEfF3MfRvC/ehX+YYAtmEqMPRhkd+Mcpb5+fz3E4VWf/EpcyFYDT9YfLD09K3Bwb/QOdVxjB/D8jiqL7w3mMQwpM2AGZCgS/NR+5DSC0KL7gY8BiWgibIZNwV5RQFfZfFrGSkSP30reMB92zmIYPuiSXeZoZ+gCunhuy9ELE0mbn7gcDT2WzwD3Lfeki6DaB7Pf4x+kKmakJzi8PzvXmTA7oQ9djjhInkkJHkjHt/58UbG3puPvc1ybPBsZ3mbIMwDkyyitPowsLokoGZMbmUThSR/PqwWdYZIFG43bTNL4yV8WokScIKEBc2aiI25FhToCaiK6GhyE8KtLEU9lA2r/v1xANQgv++xApSetIDJ+T0vTfD3ScwanWVJs0J7vBR2YY23GSnWTMuSsxfr0IjduPpNlrr2U02KvvM3vHE51/qqeCU194qOixTSEZBqNnp7xSltMoc0/Nfzb8PABBfh8CgJbVS/KrZFnbYA025wKEYm2FO+GroSBlsg14h8l81JzTAwzEHrVzO7Hn4OhOy3Z9XJX/02d1QX4bpkdwhnpmj5/a8+5KNGh4W56y/mRXVGxd1ZvBZ9i1iKAcoPHO9n/XWNjGvcixEeHdQdsETmM48tiXa3vYJnddCaCsFBByES7TRpe0BXww3jpOEget2FPEy0xsff+ZwupyKyAqPRi6Y6J8a4k7FJvAZcHmt0SNLkcrZxRb8COYzMZ3cqafouGH4M9TvPGr8rfluaSwW2BqmxHCHT186r9W7z73Tj4SfLGzY9JSUc2n27mSY9gkSG0CMXEud7iwma0EJ5oqzObHljeh4BLRv7ycNF3ia8Mqx1XKgbeICuGrT1XYeyfXifGehXkq7hWBQCNtQrHC8w+xA55YXRFh10cHFaFZfS321hlvLIzOmzR/NCq/rhwrrlyc2Lk9qnsUNxpDnYFShyF0+tvxMB79QS9AP+cYQKGcmr3BNxjqPV2+c8SyRr3nUVszrK6BVgXEIN3c+JFfk+G7mq94Ng1OofiU2HqTLNnDf7VhSEud/Hamrj/cnVB+k74HHzg2cUooA2OcQ+DSJhJbA9h4kTle4H4Hz7xH2bFqL2E8zY+bOt1G7jhVacby/fN4A3k9f53vyoiAd3EK2qLSA+NJmgkcIFYerKN/vIgb3JXcieZEr4V1FvX7jwRi81Cz7oU+v12yKPiYP8zWt3SsvJPeSe8k9OAC3QrypNPm9n/4fa20jnKnJUoUkh7bpDWAAPDoIHILob2ABL/kAqRE1fJ4dXhJmtRZc/HTDx/111LDZg20eGmz2QkCWr3ctL15HauTcKTChoFTSva8Qlm0dK2/qM+aqmE2gIBQrIKW5W4slGEvWq8zCnHN+HQQ8ZJXCLpOYDkddX+UMlfL/KqrvMhv47TF/+cIZAK9sPVChhaQHyzy/P5DI/2QM2WQjVZKFCWkO5h480KPo6lH4AUQPRJFOMCJoz0h+XHBILZFbxAdAGoI8mtbWqBGikdw9ibqyoMRlQHTt82ma0jxwKENzO2Q0LxzzBhsC0vZudz10grKIHCEz4sgFK2rMh1FTHr7H7uBrXW41zgAAGTkubroVymijzz+BQLovBOd71DecrwIAAjWO2TtfIKwbBVx34oH0s/00WrDtH0R6h7TFXd6JfH28jV3RV+ybIOW2wITQlJt0Ewbpaoqw+GkIjvEhptDWzL5vC/kX18vWH64uOBDCaYcQn534MVL/WSxHGvKi3VjzIuCQAAh7f6Pfmi0rZQHMJRYfU/27RpFyagpkJiUWTj8zLFHUuV4IQEnNK6oiidvQGaYnWmn1vHZW0XuNejM5Fh+gaV6ZWgplK1jT8lV9gLYSEU93Q0H8wkTlAxfIuorXkhXPXdPtKZfQBtvo2aM6ovAvlmCg/gNuCjWp2tIgaO5uyKDiC8Zt2i6U2oKaMEt5bEAz44gIfRDlCqj8D66w38vXTtkWE3f81D9HnD8yVw1OjeBIsTyz08ed0NoMR/pyPzjO/EgZrxHTSf3icBQm2an82BjpFoD8I7zziNLau77e74BdS4WC8WlheslbaVCZawEFI/wbqVzSM+SKRG9HC498js/kBAWjKhPE9Q9s8kLhxTV1N470ICOAAAxl0zpHvtKU1ffQvqjdXPPviIi2o6W9aYQOX5AA+zv/HAABaBt948w5b6uTfYHco9PT+06FmkeA+LW4++pJRDnanyH4P1kGSQCihy6yB6wLeO9xSdQ3l0sdaKkd8JD9TO9RDWXxgwEvHFi2Xks4fHycrUo8t91V38lUE9DXcTLB7aJciO1Ni6BdsEh388n4mcwbismDIJjcBBQuQOsPxaf8nNNQ+tet72RsJ6cebrNy/Sj9bLGTkoRwIaRYzQy6griv6WJ1ga/tSai5ZOGrQKht5UN1iVKx0eGsfGtwdHWI09T1seBU5iEZzyD5k4Sm9H/+NRRuqJHwLUSQW2JCULc8cM0cKQwSEMui6p4X23XZOnQu96/j84G2kGvPPNGlCnv2VathwZa2I+OGnNeLRt/JDmmPnZvNLOzFdabuhv0O2zug8PbmEw58j51pLlbY9XTxP+mnZ2Lkvl+hXSnXCtZaOTbknPyH5ueOlAO7q6yDNFHhXM0WxreTx2Ajt+VyOw57/a8KHo4VubCo3F98uNlrqO4C7SNNRCEMiuAAADHCYsEunB42PjsN95ZYmuKE/2L8e9k6G9P7yb6IDqLAGYESwHez2kGup6Kv0KDdCiuLxjn4Ai2n/iF56yaBHo8PLtCRRWRqqQcBj7Dxbv42T7HhGV5vTj51HtqDHj8YATXrWZK1rKa5ue9Tu/Fb9Qm9l7eLfwGHaxVqI82l5vv5olzOfTsd8Hn4cD5EN8dYIHkzsfhTb4khwHxMr4roUV5msrrR1pZk1z6pR9wSN0Ls4gZyE2TETsbWU21WV9mNz7a356PdzquQQrm/DCtGBWdyV3XPr73O9snByUJ+RiaytNPgkNi7v3J8EA/dFyv334IrIh+ABgr8NKHEA+Ijcd/PSkffoTTPvHC1bQqqPzkHuH78NOIOjXaPY1fCN5hsqmHE+CeucwMDhnXD5UrhfDTxo7VGb+wvTsrrlPBYLuf8SYGu8hGyaOgSbFb1FaT+PwB7GI/LpRtDRODfJ7PX3TCEe3eveCRQW//abAoP6sZ0ijHh16+U5V1ln7yLePeUmNnQXuWYGdTH3ZzPeluF4iTPXya8i1mnMDJWeT0Ml7HpnqwXJhkgLNQyKU5C3aSqZtWlvdM3v6xzm1wyu6Z09tvXcdJDQioA24Yi77F+jkmgyVRtlSvlmaBOK9VJwt+06oFifcZW+fGk9S87SuNBS1bNj+/3w7pZ3++B+anp2cY9DoPeaM7pxwDV/eEOGLbKNK26AzullyoIhpxaFH7cHbEz/DUO4um5I8KVMJuiSnDA/rieWrXxljf0vOEiJCIgTtQOQTlg4NTn9PER9Jc53yFx5vUnKv6IRnGWOzJz5icJXn31YquHGysIaMS0XbPEJ8GR2HXd13H+Ksmj3V+zcnNeflTIfbRxfaJhQB1rdz26I9Cvzqp28NUxhtmWslq4503WIat+cTV6y+SXfL/Wh34eG2vi85WcCYnmevPbFECKH/adxIJDjfqsyZAPGMWpVULszLxhSf/kzg3uMrn3jleC7k/ivw6I4lBvoV5+RnUMl+8M+/VzCaCg6YN1MUFZ1ESb7WY/zNBW5yqLCMtzRbo75YBfvF2cEXCZn2YMMtoUmNS7fuF49nm9wpq0QV9OxJGRi4fJ6CXJkKyUlYTZqdDVKlTJNFb4P6F7v4z+Qyq4ypCDOc/1LEkSuXzom7QqRLdgyjvV/pSIw0KU/YT0AdA1/us0OFG627InwVEAjY/WzfF8XOwXE8oHIGGWOLUd1gbdyDNa91eJH8bNl9ujpUB+Utm20lWQInjfPYUfNOCI0AAAAAAAA=;" vertex="1" parent="1">
          <mxGeometry x="-590" y="2610" width="293.25" height="267.87" as="geometry" />
        </mxCell>
        <mxCell id="Z4Xb9YO6mUinGf_k16KE-170" value="" style="shape=image;verticalLabelPosition=bottom;labelBackgroundColor=default;verticalAlign=top;aspect=fixed;imageAspect=0;image=data:image/webp,UklGRq4tAABXRUJQVlA4IKItAABQSQGdASrJA8MCPpFInkwlpCMiINLZqLASCWlu/BFZpwyvw6HP8LZ2pe+VseDt5zsf6n1d/3H0m+hl5h/5F/svVV/4vqq/t2+v+gV5dXs8ZER4z/oX46+AP9g/H3+4enP418o/UPyL/t/td5T+sH+b9Dv5b9XPu/9h/dj+yfNT9P/uX5cf279l/Y/5F/3HqC/kf8l/vX5gf2nzsu1427/W+gL6s/Nf81/aP8z/3P9H8HPuP+g9Df0H+2f6T9YP1v+wD+Pfz7/Xf1/++fsF89f7XwvPuH+t9gP+Rf3D/r/5z8uvpo/mf+r/qv9D+ynto/Qf8t/3v8/8Bv8y/sX/F/x/5P/Ot///c9+6f//92b9yxFxqbXgRe1I6PUXZ9oTEN1rG61jdaxutY3WsPsa0e+aNImpHR6jA06DuPZwcd4OO7gKTIlI6PUYGnjChUPSTpwy4U4owNPGfo9RgXJMCjSATEax04aP0rbRY3WsbnwHeDjtJuJiATBYWCy6PUYGnjP0elnItiTYfpDl6dOGZk9B0WN1rELBx3g3gO6TYfpW2ixutUJenThEax04aP0rbRY3WsbnwHeDjtJuJiATE0LG61jXJShwbvg8osbrFkuDjvBx3bZA9ok46ovMwW4Ieq5QH2LkBOjQzB0WN1iyXBx2kET0HRYhYOO8HHeDeEwFZjqwUXd7LtosavL0/HqsTnSTrT6NWKFIStjmhOe3UAnMuxhw0gCa0nN6xutY3WqGa61jc2GwzjtUrh/EpxCb8jLOC0u2TocMgwbtk1grsu3CtTrJhCPPWDjL83ZGwMp23TxlvvHb6MSa5djDhpAF2K1jdaxusXBN1rGuYf8iYSRew8vna2t1ReeS3VafRrrOJc+7/tLYbb/jzbmGZdjDhpAF2K1jdaxusFGzy9bKjCc6SdafRqot+RVGd9hV/DqDEkifFSINmfPoKdQXy7ppW6DWOnDR+lbaLG61jc+A7wcdpNxMQCYmhY3Wsa5RJo4aAOqpMbBD9IcvTpwzMnoOixutYhYOO8G8B3SbD9K20WN1qhRO554Z2+uhjXgt/yS6TYgC7FaxutY3WLJcHHdyJxEAnLtY7XkMoGnjP0eowLz5tay3CjGbgC9QGg8aqpBX2FX3lFjdaxusWS4OO7kTiIBOkAl05b3KakRuj4Mj5klEdYnu+dtVaxutTGZyv0hy9OnDMyeg6LG61iFg47wbwHdJsQCdGR5JVkP48r7WwCQBJK2NByESUyfZ9B0WNzr0Ec81YtkfmZCQS8mPo+jVihSE2Bg4ECo9E6HBx3g4zhv13DDCFGBp4wuxmZBbaLG61jdaxutY3WpvI4FhHB23hTTel3uzZjqwUXcCTjwhE+E2IBOkAVnDD+M/R6jA05lLD+Qu0WN1rG61jdaxusGdrlKrQ036DknwIGqyJY+s0XUr3p5rxJsQCXIzzqTtYayExh7VEnUtpJaAgdR0Ig7QkzxmUHXyGVRJ8AcKjN934XSAkYaynMS8eseOHWrKV/VxdEt/8z9Fco1fwA28yrU28yCAnSATpAJ0gE6QCcvSvBepmuiqit8dUXmYLbVttXuS8QXDuwsnkgJ0fEdoLpZDZnBN7SDmjeAFB1WgqEwSIEOcSylEQE0q78FgKGVJoFhEAohBU8J5EB86naLG61jdaxutY3Wsav88oQotaYOq7BWUnlT6vDBN1rG62/HrGPrFjdaxutY3WsbrWN1qguQZrDosa5KGwSMvMNsYbrWN1rG61jdaxutY3WsbrWN1rG61QXIM1h0WNclDiZEntOxtrRbFDZikkBOliZuJfo5e/BDDgcxPmkTgy7wcd4OO8HHeDjvBx3g47wcdo/76KBx3gk+5ZFukwW1jP4LflsnNFVYMN/U1gVqZYJgxhOuHSnsXjMWsXiy8ALxAJTREcCmRmLfEdImERutY3WsbrWN1rG61jdaxutYbFkKbxGSsowZXLyWUGjcHvgaiob1RFYo6vE7alGPCKiiYGuQ/vEhE6GcU2vYSFXYR0iWej5+zfC/AdS/hFge9BDosbrWN1rG61jdaxutY3Wsav8fGtbEZWCi7rBGldtGs5GxAc2wrfYVvsK32Fb7Ct9hW+wrfYRKAp/oM0dTgmcBPakrxE356yWe3Rs2My4MUlcUWN1rG61jdaxutY3WsbrWN1rG61hpgp/v0tBmtYThETdrJWZpP6wf3apD4Xviq1SW8BOgJ0gEvY3vAwhRgaeM+qxrfExAJ0gE6QCdIBOjJ4Nhd42tCOm6h23OknWn0asUKH/F8vTvsK32FboaFjdaoS9OnDMNERb9paBp4z9HqMDTpVFGVGRSw8nHII2K1jdYs4DjvBx3gk++wrfNsHHeDeAIgE6QBdisNKXKEYpcB3g47SbiYgE6QCYmhY3WqEvTpwzMnoOixufAZ5jDd5d0kZ32FbocmbrWN1rDdrLf+whRgaeM+y9Mceyhwcan6AnSATEyH5In9NHG8Oobd0kZ32FbocmbrWN1rDu5uBnrPGE50k603pHSzyCLG5wd3MRpbcR8PUYKm4KPjIIB2Iy3x6dGC83OICRDzddELBEhDxyqEWN1rG58qhdosNvCmAERa2q7hxXfivGLMSnMALXpyQQRQvZivJl3JQt8qQAgk8z/NXxibA/UvKUwQSeZ/mr4xNgfqelAEYT3c4ONWnjzWy8317NrBaI4UEmaNXEu8HHeDjtK0TvsKuF7HDvcO16ut+kAVxm/Dv3TzBbgh6zxhO2s9OLUrvBx3bYhNebiCz97najdSCTd+G4eJsmu45bXRSX2pCmsoTFAW8jY73jsKS1cfTiR3g47wcd22QGuXjryE2BhOdJOhk8dS8N1rDv3ulXk3AljoUvch0WNzpbPDlXoIvDSQVvp0V0EYgC0JTfSCR9cXK32Fb7Ct83mqr9ByWzF3IkVp+wrdDQsbrWNclKHBx3g4+Bvpw0gE6QCczJ6DosQto7wcan6AnSATE0LG61jdaxutY3WsbrWNz4DvBx2k3ExAJeoPm+HIUYGnjP0eouXHwhXkjx3g47wcd4OO8HHeDju5DpsQCYnJm61jgZJCCG+PO2Jp9fIQaGBaxvCgtUOO8HHeDjvBx3g47wcd3IdNiATE5M3WsbrUvvfe9wVL+DZYo4Dpdc+KqULxC8r6idsbrWN1rG61jdaxutY3WsbnwHeDjtJuJiATpAF8orKcgJ0gE6QCdIBOkAnSATpAJdmVajdA08Z+j1Fzmz+DXeDjvBx3g47wcd4OO8HHeDjvBx3g47wbn8441gyDGkD2cWvSdrJfxg7KCeyrveXZ8aL7RRkvwnbLvdF11EQ1IMOl1IJAwfjm1icaLG61jdaxutY3WsbrWN1rG61jdaxutYH+RnDLIXpT0a1KhQAKBnfcLuWKY+ubrH3DEYw8taYLVpssBHg2jPYGFofVKaD7r9GTdvK9snqbn48mkqo+LLlTOtKraOixutY3WsbrWN1rG61jdaxutY3WsbrWPw0i7RY3WsbrWN1rG61jdaxutY3WsbrWN1rG61KAA/v+VLy63llynvtHqBlyI4iKfgD97BmtZCYf4fFFjP/DDb6BOm/Ps9wP8RTCmHrvEIZ0pqEZ9sgeitezNvKwNOubxAsOa3YI0Ycfeea6j488PKYkPvNVVo2dGv4dB44OV4Tjlo4PmJpJUpAXrZsZ3xZyMaEc9UxWD3RAjohM4oCCO8BPtidpAAG75wKBN9uZaR62GsKnu1BpsoLYodEt1SkskCU1pd/jmHpT5XzEvmJfMS+Yl8xKqYk5dNNqSqoOQaRqPj1q9EkDwBhhU06wyIUPHoB9ZwIaIVhZo0skbXMJzDXleFT9Fn5QMlORAGwQTMr8EP2HOaFJfWscM5QW/OYjqyge6YMrlgEZRNfO2IWmnNh6HLNzOC4sF4DDHEtqcCe1SqyMoPDuznwIjQ95htIuU1AjGjSCX1s1LFvDjBPrq4TpaOU65xLYuJVcUGLc51iXGO7IFxlMShRCnj7m8ffEKaJGY7eFuudMZrz7kILnWa2ClKcv/DjBPrpklk8TFYoeR3jYpTi4bO5ZOVJkGmu2QSPbqp7Y+rJQbgdxyBt7nNiiJsmylYf2iX28FnPQS1u8OME+urhOlo5TrnI1EquKDFuc6xLjHdkC4xiSwFd4iqAS1SoaFTsUwonRZ9qpw8NKF10Tv/+XkFqtMg3Sws3bxwG+8E2QPita6GJil0aDX/SwMdQsRSWX8EgXyrwRYvVS1w0I68cLLA88ove/5hpDRD9iShQJJft1WB8NvC83lHlXffKFYkXfKFYkXfKFcTquCRWDVRe44pK3PIIpGJChPP3/2juhY6cABe2Z+F5uzudjl4IGnhYh1yMLOMXxOzOqlcvgDfK7HKM7FKiWHywgfuVp+TYBD+xRDUcWUTunB7610A2rpWREibJboEqnZphEknSJPcL79MeXsTydCiMQ9cH6w0mmnMaWTSPc0Al9GuxmPeZDFie1uXNiqCgYzRl6I3067zDfYPSb/0QwLnNhbY8KeYKNe25NWCsoYHAGjYuk3uIX182wznwoiM4TrmBQyKZMkO+ALhxnrskfM/K9c9uUyzog7baFbVYs1Sm5iaV+lJtcyQ4Ae3RFxBdEjcBK9AABMw/bksDf1c+1WVue9yGOKuDsnMRPjO9Gp76f21rrY8r08Felx+atx/C3ZMczqgISwHQcAACoFd9JZa2dptLO3sn0zOfvuFZnmBXnBg/8Vaf3MHQPmcfz/dpxwadVwKldllLdIU44AAEOKC2MWQgWud/nE1x/+qM1dQrnMB2yB0bs84+DBTJQJbKmG+OqbSp51OkEouABVDvo/v2HDTa46riTBAAWpj2lBxoxGAKWiT2TIv6STrlXhkMNrpFL5syKm7p5/YAIMNxLBS7LCjGmxf7O21P8OJn4a10oOwhyiRpAyrd2HooABmV9Jmj6wOiEotevgdpzL+x1jzlDx1cm+vR8PcwX3ssMQMWjlvmMtntGJp8g9CJeYY8ab4WnS2T9vYCaeC3dqhsGJ6Q8tuoOJYROA7GYKrKfgLsruhHz9m2Wiac/gES+xKWIpZLkzyjWrn96iEo6urXQzDsGRtEkkhgKt+LA0yRNgOzH8446F7iXbiid7jn9w1og8NBgwtIETXLhNyrJyHeg8Pb4nXZetF6xz5BWohrmiOeUZ/SzIkGjCOkpC8qUvd9L1RGA0Xa+dwDYqoAq97gFHOGOTtGCj2XYZqya5gA4yfLwIPFw9qNuIBtTVgWtHVlHYEjFyopCuMjfCvEcBpyrFKdjhCNpLd0LvQcNBq7m220BEK/3rzIVHiZJ3LWFoKTuvWGnTgZ9KeTIO8O0oaTIVURBLkn+J95s3qkEi38RUxAqcnFq5oShvpl2a4Vjeb2t754GNp0qYzYKKbGUkzOL2w2YXoay7YeGCkErJXu3tfpN4Bnn9m6TICeY9qhte+s2loYBcIMK42WDzdIXo8Lr1TBUdgJfN66PF2H8FgitAhUxbmCIxwbi2jAXDt7oPIbehl/xBtKVlPbVgkU4CvvoOfGT5uuVghRi/xUEB0JAG+sAtu/PkkFfY4tdCoFeog/edcVQkGpwcIUQY6U4/JIKVtsVSahAkOq3MLGl/jirtL/HFXaX+OKtwyqzjy4fNXx2EDY/ew0ZO0HsYvj/kmOhlsmxihtZ/hSHRaggpyaf9/eP/lZYA6BgbKHg2QMulmiQvkdb6y8E3Y0mRdkn1VQCISiKp5op8JEPgCWH3iVUYKSxQ0l67cBOr9TwyyVWnr1y5SLWmMTc3lBFOV0EKGCnBUyqnGrK4LFpsRF5EaXPu4AfPTYv4EwZFAZvOJq31+BXawipY/Oc4mTP9VmimmxpPoPsB4SpvyoYYakMC5sNradzG9nTrrj4piBAKgQAH/NAUlF7ZGTOHr5kLmv4VjJ933X5CoEfjVcp1rdT2SJr2vQWPf2Ych6GSafVxJI2oiNctfp/Mq15gqoM7bDHKvCi/zCVTE2WYm62Kp+lfXQEdm2Wx2aEnNvav95NHOmEuFcytV4zFb221AWAh/+MXi3D5mMAkXOP//rC7fMtpcIn6dQY05KFd090+DK+a5SK/EoHww4cNDoTja803hJL17PFZC0MMwqDAfYBF5Gu5ffCFmWnqn7A8vep1+JqLvFLzFadfLuJ118ISsrvB3umaF6nmZQwOrxKpKOKXjax1NPXyQmDcIoHXJisObRS9mWLkDPiRgPPVFHWlfRQwVWbmqmF3NUvNWETNCu3ANn5SVVbEsMXTJEluI/ZDWAVc4Gn5WTwsKQ1W8CG8bHeXLweTDSHoFyZjUDzS7460kJARHYGEgyA2/gfAGS3VyCduBrzHmt5ocwSb6dLiHSzVczwDz7Na8uangFdrUaqMvlZ12iEbCWyOoVuM1eF+KnFu+mXgiiMaORsFm8Sfar3dNA2SRYz3PoMwSZMWEv9wrprmXP1dBqNTXw3Qs+4606y9RtqrVWctmrXQMSE/r6ZQIlyDtY0ZZ47T4WBqP1ze8OJuJ2i01ModpheVLtv2RBnTc+TOl47TvER6fSeDibmsPH2GuG9Uw+lDwVebTy6ca77FcmbQ+2gMct0xBFhp/sFTp4zUBVAxhpOK5Q54AqWrpETBVniuLJ5n+7wyFrN5XEB8EUQ2qn6J0OjNSoYRMrkm9ZiE4mzavNDJzXvVfmbMLbiBzJEkEb5cKHWxfzhCDG6kzrnZvtM/j+CoHBagISP/18f2pQybjBOTjUECQIU/m0cklH2rxPSdWrpLRAGsMnuOs58NWEnN4s5iAzI28y0cEbKjANwxP0Q6RbZZ/jB5Rg+o68yVTH5xZR0f0v8+PaRmJLzq25kHCN5CCUj53z7+1EfE+uipOymBFoUlnvmVIuWH48kIgFH0USnoKLfwH/xnA/V1Bsce4sw/JPBeBhac6Y3q4xt4hIW8DAAoiPf7WyiSS2yrxCQHN4DYki+xS7vBS8MlH9AAvc2CF4yv8h7jv2w/N+ehJ4va8TQvKocQeWo/2Y/4LHrFsjWCdahWiG8dbtvOFiynNh8D7CyFD35heK5+F/Up8cDKAWOcPCvpq366swTON4LUxlsiGUqBycTwYviQAKjZ+rp5v1JN47TXnOwSs8UZrR6lcHVySQlapaxBmtWjw7jui0mz/ISRrWSUeQ/UZKBiCUD5+HyexIWpp0lhOLwtLTu+5tajOMGB19+DutzOOUUUMvgLuEMq2YbiOHFZXhj+N366SPoUplRjPHCroeiWLJ3DpdSxDRAsxu9HyXLAq93tA7H+aiZp5UjEWyfniptNl4I3iXkSSAlW1Cly/IEB2LqkjNdJOdZjzFizOVqUF3S7MJv8wINroTHCtD2KUbN2KzLYZbO1kErHFnLAyzbbiKbnkbQ1rnk4noHJTcTY9AYPHiuVnKkuMFoX5zQxxmLNDate9Bwpk2oeEZOOZkUlqszFirW1SW1TZd44DuHcBizBwfPLri2BQ6f2D7MCaQuxtKXhxcpF47dOLgslJ+typCw9ZkvUa4yXzkM2aRG8ZKa6AXA5FJIf17AUEUOBHK76SBWn4Y6kYoxDEuev/AD21fBNDVDW30JcpKaTDHOgar0NzcuXcT15j486xAW3BHtVbY871gGpYb0g3Qql4LCxPMKr01QpV9E1yBI1cwVFCxC306MU7ptq9016I6a/ufRoSCxRMqbDoMYZQhtf+YYhTphkZZvMXEoyPqn6Hlow3Jrmw5D9iIGtTZ40A0giowEHOFNyJwWSrRGDsos06t2Ntr0Il4Od2Yi8D8fLz+pqKLg1Cs7qBEgEpb2NkJgX/hp0b7zQt39KRxbZk3xTfwUrjRXqwK2F/wr16nmJ8e5lgOBbuiGq+pIOdhF/vrDXh4YzBs4ci21zpr7s8TSQiylawl6l9V0kPk4QAx89B4WIUw1GwbuJdcmbtdLw9kDn4Fq76x67AftskXF87AobhJ0l7PvUwbxdXs2CjBUNXMOIVELmSEFmdxdVzLUrR4B4nQCJb3y3YL1be7OcZb+IfidGpSxvWeAhsLgVDtsZ74Pce/Mr8KK/hfOikV757IZc+KMReOY41xSWZy0t3RCF/L7v9z4NPiAF4QdJFP0KjgSlI5npINb92dge5GMyiGHw/myXMnBbO0roZUQ/+EYAAqrFAABVL0NZjUYwn1dW5eDhaPQaAI0KFPBbijtW2XzVbIEJUlUKVARZcSG8s1gY5wKNuSppQAAFq/ZOSBztzGNK6GWpGGqQMx7H+blj/J/OD2iCKPDZ3aWUhORURQ1cT7IEJH5VVwkzUfGBg4AAM2opGb1AX/ae3fR9+YTFzUJvFh60t91DyP5k8pRjrKxyr7ZRlTVIEtmWBeGhGohEETJ/V4+ET5X/w//g7y/ZbNjyC/pbp+7wqB+57Fy7vLwZuF5T+CA8rIC6IqutOQKf4XLUJXpjSeiHb2egOVbL1vRf8SozdpDMrVF8Aec9chfY7V9WHpQpbQQwqsftSspWrwXSw2YN7yMs+vryuEtyESftpF1/B7qH90TAI0/NYotd/yj7H8Iuoj7fbUGhm3z5QXc6t2SGyAN3FdeekUTxDI4v+IqYV0ToH4kBC49HB/R8xMiqO9zixUwJ8ysxLy0PD8XevsJ8rjd/s8P2iKzEbgkiJMJXyP65/ys1UW/gABOojLUDvF7GfthvfHPzFp0cGu5nCc2rkDi76K0gSoqn2jF4gDDM3/WwfF1H55ouUrpCMcb3u2wAFqG3zqnHwlfn1CC9VPKSQpC8Zxhk11+uc4FD4bRsqMmXjX//zwUeAP7EYYQFYqf0Dp86wo1gwq7ktOBfwku3p+wVk81nkV4svVVjMK3NOI5nX2ECPTDoOcAnncf2e0JCRdbjp7HqfCX/cIDIr+j8hBKDRDySSL8AWjtzPoTFnW48HPyz1NuuCiymUrqZFer7LXqhB5VWRp0aqFa+hUbiazJqUuVFHLSX9YpaDkmzML97sv9eF+9sxONtrH7t/6HAl5UZKwS/8rhosLE4geHrv0B8FGFVG3Nj1R8LEr3yFJ0fvvlEEb9qFfHcRWVbBQV7CAtzj1Ed6fWR8vWcKcIif3nXupgzp7km9OmiCvADc4T7oiEqpmyQ+hWo/bQlkFLpF4fm6gNBGlciqE9f8DodbxlpPKA65ev/ccYGTO8X+HQgfaLyyuF4wH26bP/PSErVni8pjET1hOTdAU8HTxhdXNoeVMUHxA+RiVIT/eyHsGqkwxcArsgscUmU1zS1C5Hs2EdgkIWMAs/ROUW0a+4HY2aprbK8agpr0gWC62eK5jUReACHKcRksFVQipWRCf7Y7i/Xya0viEQ2gKqty/M7tUB+qBuadMenW8MGStvB9KPHHlV1iFWgBAVL0q79BX1YQVww7PzoPgNG09Wnq+oDls5m/Rpn91xP+JR9C5XZoriav4ZlHK9cu+TOoDfG9p9LwzlM7pYwj7usAvMtH11CByMT76dxHXXAEvlVh2AMMYeUojuSAd3TyjjJgH75fvlEPV5cv9DLRUh450QVkgW0zX7qcLeQ8TqoX4pMatRU9Xq8aiMeJ+r3plQaj6QUcrsLK+lYT4x7Lg/kNDAPshGTP/xDW5/8w6jT7O4GLbTK2tXSbyPjjWMY1Rr+rD+SPbdXitIXKvg0B1/iXKUJ7XKwWu3DtV1aFdUrHyqPomS9AV9FJNf+9lFTvuv2BP2ntH3gjQ9rnRgP2Qh6J1i87+PSaIgNCGR+i6Z/CRkK4EY4GYLGY+Y6RSqvOS6DU7BMRjHgDIN7HWgdyh/MdaYvBE0lHI0JMf+Psbaa4hzP7gCNBbgXczeoNnSd653jxu7IHC3LnHcJxuIj3eVas8LLFaft3sdg9SQAzJ0o+fitVWxb8g8BTp/+1nlA+AmZfQDaq0o8WDcKQYFGh+WtA5gzoMo5zYH6+JHY9XXGcv36o6Rb2Dk2221h1txS5AkkVhqLct4R3/lyvtvDbYspLcXAC/h2xb7tiUKQy/LkiYomxyO2wG0jKrO2edGuP47jOYC8iAnlJndWY2gTjm+1ICjEzIx2dIM79SJ704CAb3OJ6xl8HA6KMFQq1xPTWe/TSzoTcx69gxV3Ht+zqlXDeMr3AP7uT2EhhhI7zKcUR0THCKXB3XGOdUIV6Pnj2SAvn/x5onQeoYGCA2pnrzZUd3Lo2JdxaoOeY0CK73Bn2vB1UKXvKXLCb8NBBiOz7y8C+efyz/MopxPXUj2ODBZgqnmnwy4LOcZCPtMgdFz1KTQhz2sPHovLyl89uj4hGh7IXOKAHcifu6aITbDzh12OvXeEIS7YQQYb95AHXkNRWIjhmOBaewlt3lFMyNpwCoVDbrPIZif54CHANRR8hygoagx+xMgRTZy58YdXdb99Y/Lftn6YLJAWfJ1iIUucurc0btdaYU04gotRJVYzTWPjuMw5Wf2Po/V3lXXoJMBTyvNMGh6Vz1PQ+ci3BTw+lCClbZuBAAuKcUuTd0Sppx6PLZZAgZn1mqC43SvKpQgBBrFyuVmQEdAblQEf3wg24SrYh0YsRWe2pL87WXfX+670YVLGZwPsqMNzY6Ln3aLS45y7elybO3+OsDMfNub78PijFWTDuqYQ0U6nRhfEUwofwkAgnHGKY9u+3hQfldiveCGMrHLIyS1PNwi7F7XsVXPilUEhdu9SDEb/ehIvK+8VE5EXf5fh5B9xp56qAMpuN0t4sFyRSnNyK6DB4arEqMVXdd0TDAo0X9nfxTN9xyjn8XVeFlk9YocAIktbZLTT22QUvpcA6qUFKeDoI+dVDBeGRK8v2sB+GqXb5DAGTO4oDcWMGmBHMmpXpfYCtOS+B9gry/sN4g0iCnWu1BPoPSDR8ncaI3fPLjx0Vxx0InCg7sAT4VCEEieNsxZlz3gK6x6NJuwsm3jlKSLpAFe8dAAxwl0A4mQ1lR18DiitJTgUWXVfgArSnkkvfJLQ5cMX6X1ggYHAG5jbeuVbXM1FoH98kjyHVPNRMNGRx/qdAAAPc3E4TGUeNCdch5GCblMlAsPeB9A8I6qFBSS+8vk72eLW1vXk2B0wsBCzr5f6To3tNuYo6C3GGwMAAAbIosE4w5pypiRgDYQee/bL1kB/YCDRNwPUWDJv3j2hZpfOGgt0Brwqhd+cq5XcYyzDylFYf9ZAeVfWuC+Ok0DFgQeKT0OgBUo9/iEnO72n/xCtWc0HluXMSq7VjlTIRO3yJ2+RO3yJ2+RO3yJ2k4W/nLWiyTlFp6WcDVKSem+axtvvl6Hjh5OR1DhQRczNJOdy5BcT3J0Ge3ZhboTWicSalSk62n/Y8rpp76Wi6D1UntabxPOupQ+mwJH5SpdAy2zOg+0uru1eiHBOyQU1pyi1UN46IGqrxAOwB+hQEUAtiqBuNxV/x3Bv/oMwbWw4byFaRYVBPUCRYTeErXv83eomli9yeLwcuvEGaBWFSKqrzE2jJJwWZeMWxkugKFpy2I2jtP2DiX9NQpT9Rq1SXfRh+YdfDAjICDLBzIN1T4D844tHxaG41ZoTy2pOFAdrOHLxj+4SSZ8AI4BEexvatDi5hshWS9MgzOG8AjK/VStQbAQqOKmjgrwohPB4Bw8cz+l77Fo+LQ3GrNCeW1JwoDtZw5eMf3B1IIonFwPeW5i9gcXMNkKyXpkGZw3gEZXuv6ZIyphFzyIkFeFEJ4PAOHjmf0vfYtHxaG41ZoTy2pOBNoja+jmm5lkQ4Ukt9b8ck6AnCFdCP8L3cUvoz93ny2U6H+mlfACOARHsb36KxCLSxrxp0YpBaa0cq+HvBndkOfdHB1aMYHetodmcwXoO3fs38KjL4w+9SHPHYTMOpCaIriOtexHgSBJz4kSAHuiIz0lF00jB5MjBQPrJO+j9wamx4lLwYiGfG+7827ILbLmC/g6mSX65abv8Jl9HVfxuLzpTRPDqgTKZX2noA/fQK5rVNJl0tmzgA5b77AAgrcjnEe/QnNwnVOnSclQ8XqGHbDjr4EuKsEOGU5UDJ/ijyILBFAOel7nJnTvB5o4cdcpw7lTCU5T5PTAhkmIG8N768P65fc8J+P7OwocII6o2RiHwfVhXuBeKRj2WqoBOscEAWdF0n4YSt1y8PlObSAFTXLHRYTk3cPJxeGKqsaDd3nGor1QtTLdSJHdQNPbFt4HkvAicqeIM2hXp2QGOoZ50ztkr7pVNLafW/Ij5lUHhfNyzxKosGbsozmc9tCsCHuht0D8etQX0i7ZYxIA9/0PZIJuHOeiXJQ2YfOCvd7NUHGRgYznlsY8FiEkDNxfgB670bdyqi3ewgzl2KHIwTBuOzFZL4abAfW5sj0dnPhqN7PfLgHFDXtOvvV5PNrl6Feb7JvC/4Ae2qtY0BRg0J8LX29RvAiA2ma1nBdPfKORHWe8PgG0x+bCJ8NxpLDDPJuTtO9U6PpAuzFGQ4+uy+jMDPLocBwSn+dBxBwl91j1e8ln8WFPh1dYcUcv8Ifdow3EDRjuyUMaVya8nrl9r+iW8dgxxMnBhn6WZAy6jccxm/FIeHx55R9LfDEaa8EKcuDplJYnf8Xd/0L7NzGconq3RrZcoSQhObzugr3DQqXcfIKXBgy7zcEkvkNWcM8QnkafutcY+Or1LpaT+BjQOZGsiOJfAPLkIDnltts4UAgmL7cc6fXiHLQ/4L+HVsMmWvRPyfNQr1E13Pjypjp+X0ecEa4jKKJooevHNMsVrKry4GK1cW9zd++nXSOI7ckDdV8YZpNmZ9JxKPJrfsr+tUbGO2/jLIozcRILLz0mbLW9+7WD6peLbXyyxg0t3Xitxmp6ciLXxuC7nyst8reo1EwxaF4dmk7Q/fTeyK1d4ddfurcfnshO2R/TZBRDBDBLMEsuhhpttqY2so9QQ6aDLavb683jAKYYD203CFiEYIzaU6vR9WroXr3pcMhrbbehOeSc8k55Doz8Bc67hrot4J8CvHWUr1wrPsjIg5t1zAACZBx3p2gwCjM1nPKpq2kwPPkub7EIYBO6bLBNkBTRoxqpUcWW9y1lVcV73GvE/7Hou/Fhk/uhoTDlqrJbl2+muHkXo4l4fyNBLLl0PijgO4+hivLhDwbgERO+VxIipRKWDWuASF020LOvC3yJghowtiI6ZQ6fmYDlI1oqaiz1YmLcdm/GQ7K3XkcqVG2mIOiJHSH00zm5+mOiKH1Uk6ud0t2GoSy7BTlq6LAPPLOZPkjoGoU29PaNeQrTHpXTTvoJVbCVeZmVYvMgkqSHGJqArFXUYczHiAm3locO3HIg6bIMmEQDifwtbsEsZ/BqXYw7sDRewx1ETiAAAkOAAAWJKmDNR3ezsH5SwGgtLkpCO5SBT5UAAFh1DpKradDQQOs2mZS6CxzQdXQ6BFZ/YLq7C8Jwy7CgqevGW12rheEkDkp+CyML3DaS5hxOmteiPUtE9yrN61k2oWRuJpMHAoJYjc+L4svA4MofTb0KTaABqMfuVJ0LXzgfAAAt7V/mdxt3c0a9t4YtfuoYKz80WqoIAtGA5+ygxbKJR+EVj7KpxcvoEtqSuGqFtHpd5P5HKe02WqXpSj/dA3Z6gqtoH7bptUGCcpP6RvCmiLHUhT/U/zrvEgYgaxkOHnYW2uWu+e1B8mhuodMU2CreDN7++vKIPcSiuWOF4YuvVOCOunzYg8VxjLejOfVkplRIhU64UuEurvp9dLouG+akgQN0ppQLAwHeD0xsNT8LXspkfudh3JiLsfuCaKqid0+Trk7uDVfv+FRuDVIYoSMFoeR6pTj780K96IcmxqbiuQvz4LtQLHIInwGbRvnsGBOmjXS+o7bw8cjz+QmWi2bzt1/q3097TydOaqdiCN6/2kv7aNBrs07AAAAFR1r3MlJVlbBmVn6D+xq6TkdDAIAACYzOrfc3ifcpBKDqVjT3tWUi0VvzTW2qMnfnLQD+ySYPUf/97n67Z6Xll7FHe5efmCaQHSs6UZSWOvBidH1D/c5nBDO3x7ou8lEk9IAX7pqb43382eK5mfWMUT1nRtXji+TCfhtfs+UjygsS4+TGGVyBNKnMuK1lq2n9uICjNGPd386AmPrjEPBxcEBmbwIJM4oeesu6/J4FPguX7wo5EviEFlD3bKt3AZNZh7cTRq5bzyfQlMMSeSslBJhrEYr5b0tRSEUOEpekH0Qyfxa78H3ibo4yzB7ulW01+p4kq5fLoIAHcbRoWucdMqRBDQGfnm3vs74xl1BGrFzOme3KLOEXxwo7xga4W3PkLk+cyyfEtOZ8ReTRHJvMcxi+F1MbRPjy9agGPpzpCiFrZEJNniYCTM0ZC87Nu4jAK0kV/b2grwN/TAxB5TZsVjJi2FpekeEgR/IOOuAQ1eK0qcpUNp/sVS+297SHupZwQBeGHX6UmcJlGWDpTqY13JPX8iieZcEh35nL5A8Pj+qNIuLTrQdRs8ao8aKlGI9MDcx7Sw/NsuQltsH/AB7fN/axWvt5cTx36noWyttTVtIaOUWbTeoYlCivEG/a99Td5I3QoP2a1W4mJkeVWSbrN3+Sjncjk2XGVVBdm7wkG+X3rA+q4HulwhuWK1taBm8+boI1oboV4we2vzkTu6kbDMkakeostbUSxY9qa9GVOqex9w2sWIbTYN3BbMiZfbg41w3nPrUK/iR+XwcC6+FMKLoz/PjjM+UM2wN166W3621v3Eoq4sMmeQaRnkis3BahUISae8aqj8d1TheDQAAIaqjKbexwYuC0wCfTSFBdb7iKBX0spML2A4JldutvVBLK+NM9JVOJ7l8Qa28/OqOlzToEeHXw03o+LIHj23ByxH2YO3ud97e/oQ9iP9vtv8zZ82am9LdRAC0J5X0DX9FY9p0DInBQhIxVSOBejsP2dOw2MUpYHGzagXdZSFkCbDwHGKEQ/6NeobzRH2lys5rtnMo5cGGDYY7t2sIHQzT8/IM9N/H0cg0FwTS3KCUcFMIWhrBdpj+GBXdJQtp+KVDzh0+UwsXkEtnSk3koN/x45JA/KDMaegxO/FeBXFjG9/mIWzazvNNw4v1fJQHX8Jtc7aifRiZp/O/wmOGDpYV2VO9MTPHzndt9jIsfQ+hVxR+1HF5dL1K6iuL72nw/VZgNECG7Rx7YUlvcowP11BTZM1H6s5y4lvSSNSbGGI9FCCHFjsD78eaoodJQmkUSLe3ct6L/zl7sP1j6BYji+cLditrgSTst/HUclCoGfjydopjq48oJtFqRWmQkU+OreiwNvUV2n94Js0K1unGCgadAf4yaG408gFa8Gdgm/hOkAF5I3hhP65b1sbM/M+Qvh94kUO7weDXhGRa41tuW30xW18kKSnSnzMx92yQqQtGxNgTMJXJLHPE78Mec+rKlo7vjRFbYXP7oem1XBrLkMdOhAKjVmzHoUhYo6/5yosp1crBznAujBEeKxEOpg9tvYmo+NzECrDZHNTbUyhhGzkuHO2A/0kUGyuQ5mfUUDJ3Mtc9tldjtlVOCX8LODXeNgng7RcSgNSfWSpGh3lD6MUFxp++42dmJ1hEhv+ue+NB1UVGqe1gGrQuq35YpsS/JNXhuW5hhFLxy1hBI2SQD4KszCW0cNyI2OlnTZlZvk+qdFZki2iwHYhN7TPSCAS0oxCAhYnuc+pGhGkU0Nhz/Bilbm4AAAAAAAAAA=;" vertex="1" parent="1">
          <mxGeometry x="-220" y="2610" width="359" height="261.93" as="geometry" />
        </mxCell>
      </root>
    </mxGraphModel>
  </diagram>
</mxfile>
